<svg width="151" height="30" viewBox="0 0 151 30" fill="none" xmlns="http://www.w3.org/2000/svg">
<path d="M12.338 29.4385C10.212 29.4385 8.27469 29.1556 6.52593 28.5899C4.77716 28.0241 3.37987 27.0983 2.33404 25.8124C1.30536 24.5094 0.791018 22.7949 0.791018 20.669C0.791018 18.5431 1.38251 16.8286 2.5655 15.5256C3.76563 14.2054 5.35151 13.2453 7.32316 12.6453C9.2948 12.0281 11.455 11.7195 13.8039 11.7195C14.764 11.7195 15.6983 11.788 16.607 11.9252C17.5157 12.0624 18.3129 12.2338 18.9987 12.4395C19.6845 12.6281 20.1645 12.8082 20.4389 12.9796C20.4046 12.4824 20.3103 11.9681 20.156 11.4366C20.0017 10.9051 19.7702 10.4508 19.4616 10.0736C18.913 9.23348 18.1329 8.53055 17.1214 7.96477C16.127 7.399 14.8325 7.11611 13.2381 7.11611C11.6093 7.11611 10.1949 7.47615 8.99476 8.19622C7.79463 8.9163 6.89454 9.74782 6.29447 10.6908L0.713867 7.09039C1.48538 5.99313 2.51406 5.02445 3.79992 4.18436C5.08577 3.34427 6.55164 2.69277 8.19753 2.22986C9.84343 1.74981 11.5922 1.50979 13.4438 1.50979C16.427 1.50979 18.8615 2.02413 20.7475 3.05281C22.6334 4.08149 24.0221 5.48736 24.9136 7.27041C25.3422 8.14479 25.6937 9.10489 25.968 10.1507C26.2423 11.1965 26.4224 12.431 26.5081 13.854C26.5595 15.1741 26.6024 16.3657 26.6367 17.4287C26.671 18.4916 26.7138 19.4603 26.7653 20.3347C26.7996 21.5862 26.9453 22.4006 27.2025 22.7778C27.4768 23.1378 27.8454 23.3179 28.3083 23.3179C28.8055 23.3179 29.2341 23.155 29.5941 22.8292C29.9542 22.5035 30.1771 22.0577 30.2628 21.4919L32.8602 25.8124C32.7059 26.824 32.183 27.6383 31.2915 28.2555C30.3999 28.8556 29.3113 29.1556 28.0254 29.1556C27.0481 29.1556 26.1481 28.9842 25.3251 28.6413C24.5022 28.2813 23.8249 27.8183 23.2935 27.2526C22.7791 26.6697 22.4791 26.0353 22.3934 25.3495C22.0848 25.9839 21.4761 26.6182 20.5674 27.2526C19.6588 27.8869 18.5101 28.4098 17.1214 28.8213C15.7326 29.2328 14.1382 29.4385 12.338 29.4385ZM13.7781 24.0637C14.6868 24.0637 15.6041 23.9265 16.5299 23.6522C17.4557 23.3779 18.2958 23.0178 19.0501 22.5721C19.8217 22.1263 20.4303 21.6634 20.8761 21.1833C20.8418 20.4633 20.816 19.7775 20.7989 19.126C20.7989 18.4745 20.8075 17.9001 20.8246 17.4029C20.4131 17.2486 19.6159 17.0686 18.4329 16.8629C17.2671 16.64 16.007 16.5286 14.6525 16.5286C13.4524 16.5286 12.338 16.6743 11.3093 16.9657C10.2978 17.2401 9.47482 17.6601 8.84046 18.2259C8.22325 18.7745 7.91465 19.4689 7.91465 20.309C7.91465 21.2691 8.15467 22.0234 8.63473 22.5721C9.13192 23.1207 9.81771 23.5065 10.6921 23.7293C11.5836 23.9522 12.6123 24.0637 13.7781 24.0637Z" fill="#32BA55"/>
<path d="M48.3576 0.918293C49.4205 1.10689 50.4235 1.32119 51.3664 1.56122C52.3094 1.80125 53.0895 2.01556 53.7067 2.20415C54.3411 2.39274 54.7268 2.52132 54.864 2.5899C54.5554 3.87576 54.1525 5.37592 53.6553 7.09039C53.1581 8.78772 52.6009 10.5879 51.9837 12.491C51.3664 14.394 50.715 16.3142 50.0292 18.2516C49.3605 20.189 48.6833 22.0577 47.9975 23.8579C47.3117 25.641 46.6602 27.2526 46.043 28.6927C45.2544 28.8299 44.2514 28.8985 43.0341 28.8985C42.4683 28.8985 41.9197 28.8813 41.3882 28.847C40.8567 28.7956 40.4024 28.7442 40.0252 28.6927C39.0994 26.7725 38.1993 24.7494 37.3249 22.6235C36.4677 20.4804 35.6276 18.2773 34.8047 16.0142C33.9989 13.7511 33.2188 11.4794 32.4644 9.19919C31.7272 6.9018 31.0242 4.6387 30.3556 2.40989C30.6128 2.35845 30.9985 2.27273 31.5129 2.15271C32.0444 2.0327 32.6187 1.89554 33.2359 1.74124C33.8703 1.58694 34.4875 1.43264 35.0875 1.27833C35.6876 1.12403 36.1762 0.995445 36.5534 0.892578C36.8277 1.93841 37.1792 3.19854 37.6078 4.67299C38.0536 6.13029 38.5422 7.66474 39.0737 9.27634C39.6052 10.8879 40.1367 12.4567 40.6681 13.9826C41.1996 15.5084 41.6797 16.8714 42.1083 18.0716C42.5541 19.2717 42.9055 20.189 43.1627 20.8233L42.8284 20.9262C43.1884 19.9318 43.557 18.8345 43.9342 17.6344C44.3285 16.4343 44.7229 15.1655 45.1172 13.8283C45.5287 12.491 45.923 11.1108 46.3002 9.68781C46.6945 8.24766 47.0631 6.79036 47.406 5.31591C47.7489 3.82432 48.0661 2.35845 48.3576 0.918293Z" fill="#32BA55"/>
<path d="M82.2993 23.9865C81.8706 24.5351 81.2963 25.1095 80.5762 25.7095C79.8733 26.2925 79.0246 26.8325 78.0302 27.3297C77.0358 27.8098 75.8871 28.2041 74.5841 28.5127C73.2811 28.8213 71.8238 28.9756 70.2122 28.9756C67.6234 28.9756 65.3346 28.4698 63.3458 27.4583C61.3741 26.4468 59.8311 24.9638 58.7167 23.0093C57.6195 21.0376 57.0708 18.6031 57.0708 15.7056C57.0708 12.8424 57.6537 10.3565 58.8196 8.24766C59.9854 6.12171 61.6056 4.47582 63.6801 3.30998C65.7546 2.14414 68.1549 1.56122 70.8809 1.56122C74.327 1.56122 77.0358 2.55561 79.0075 4.5444C80.9791 6.51604 82.0335 9.22491 82.1707 12.671C82.1878 13.2711 82.1793 13.8283 82.145 14.3426C82.1278 14.8398 82.0764 15.3799 81.9907 15.9628C81.7506 15.9456 81.2363 15.9285 80.4476 15.9113C79.659 15.8771 78.7589 15.8513 77.7473 15.8342C76.7358 15.7999 75.7586 15.7742 74.8156 15.757C73.8898 15.7399 73.1611 15.7313 72.6296 15.7313C71.0695 15.7313 69.5179 15.8085 67.9749 15.9628C66.4318 16.0999 65.1117 16.2542 64.0144 16.4257C64.0144 16.7857 64.0401 17.1372 64.0916 17.4801C64.143 17.823 64.2116 18.1487 64.2973 18.4573C64.5545 19.2803 64.9917 19.9918 65.6089 20.5919C66.2432 21.1748 66.9976 21.6205 67.872 21.9291C68.7635 22.2377 69.6979 22.392 70.6752 22.392C71.6181 22.392 72.4668 22.2635 73.2211 22.0063C73.9755 21.7491 74.6442 21.4234 75.2271 21.029C75.8271 20.6347 76.3501 20.2232 76.7958 19.7946C77.2416 19.366 77.6359 18.9888 77.9788 18.6631C78.0817 18.7488 78.3217 18.9802 78.6989 19.3574C79.0761 19.7346 79.5047 20.189 79.9847 20.7204C80.4648 21.2519 80.9105 21.8091 81.322 22.392C81.7506 22.975 82.0764 23.5065 82.2993 23.9865ZM64.2202 12.0795C65.146 11.9252 66.2604 11.788 67.5634 11.668C68.8835 11.548 70.4008 11.488 72.1153 11.488C73.024 11.488 73.8126 11.5052 74.4813 11.5394C75.1671 11.5566 75.6471 11.5737 75.9214 11.5909C75.9214 11.1623 75.8614 10.6994 75.7414 10.2022C75.5871 9.53351 75.2871 8.89059 74.8413 8.27338C74.4127 7.63902 73.8469 7.12468 73.144 6.73035C72.4411 6.33602 71.5924 6.13886 70.598 6.13886C69.3636 6.13886 68.2749 6.4046 67.3319 6.93609C66.389 7.45043 65.6432 8.16194 65.0945 9.0706C64.5631 9.96213 64.2716 10.9651 64.2202 12.0795Z" fill="#32BA55"/>
<path d="M93.2889 29.3099C92.826 29.3271 92.2688 29.3271 91.6173 29.3099C90.9658 29.3099 90.2971 29.3099 89.6114 29.3099C89.0456 29.2756 88.3941 29.2414 87.6568 29.2071C86.9368 29.1899 86.4224 29.1642 86.1138 29.1299C86.2853 27.6898 86.4224 26.0867 86.5253 24.3208C86.6453 22.5378 86.7396 20.5576 86.8082 18.3802C86.8939 16.2028 86.9539 13.794 86.9882 11.1537C87.0225 8.49626 87.0396 5.57308 87.0396 2.38417C87.6226 2.29844 88.3084 2.23844 89.097 2.20415C89.8857 2.15271 90.6743 2.127 91.463 2.127C92.0288 2.127 92.5688 2.14414 93.0832 2.17843C93.6146 2.19558 94.0776 2.23844 94.4719 2.30702C94.489 2.46132 94.4976 2.7785 94.4976 3.25855C94.4976 3.7386 94.4976 4.27009 94.4976 4.85301C94.4976 5.41878 94.489 5.92455 94.4719 6.37031C94.9862 5.71881 95.7663 5.03302 96.8121 4.31295C97.8751 3.57572 99.0924 2.95851 100.464 2.46132C101.853 1.96412 103.259 1.71552 104.682 1.71552C107.305 1.71552 109.302 2.23844 110.674 3.28426C112.062 4.33009 113.005 5.89026 113.503 7.96477C114.017 10.0393 114.274 12.6281 114.274 15.7313C114.274 16.8629 114.24 18.1659 114.171 19.6403C114.12 21.0976 114.025 22.6406 113.888 24.2694C113.768 25.881 113.614 27.4755 113.425 29.0528C113.117 29.0871 112.628 29.1128 111.959 29.1299C111.308 29.1642 110.614 29.1814 109.876 29.1814C109.122 29.1814 108.393 29.1642 107.69 29.1299C107.005 29.1128 106.49 29.0871 106.147 29.0528C106.336 27.9212 106.533 26.6182 106.739 25.1438C106.962 23.6522 107.142 22.1006 107.279 20.489C107.433 18.8774 107.51 17.3344 107.51 15.8599C107.51 14.3169 107.382 12.971 107.125 11.8223C106.885 10.6565 106.422 9.75639 105.736 9.12204C105.05 8.47054 104.039 8.14479 102.701 8.14479C101.501 8.14479 100.37 8.35053 99.3067 8.762C98.2437 9.17347 97.2922 9.67067 96.4521 10.2536C95.612 10.8365 94.9091 11.3851 94.3433 11.8995C94.309 14.6769 94.2233 17.1972 94.0861 19.4603C93.9661 21.7234 93.8289 23.6865 93.6746 25.3495C93.5375 27.0125 93.4089 28.3327 93.2889 29.3099Z" fill="#32BA55"/>
<path d="M130.478 29.4385C128.352 29.4385 126.414 29.1556 124.666 28.5899C122.917 28.0241 121.52 27.0983 120.474 25.8124C119.445 24.5094 118.931 22.7949 118.931 20.669C118.931 18.5431 119.522 16.8286 120.705 15.5256C121.905 14.2054 123.491 13.2453 125.463 12.6453C127.435 12.0281 129.595 11.7195 131.944 11.7195C132.904 11.7195 133.838 11.788 134.747 11.9252C135.655 12.0624 136.453 12.2338 137.139 12.4395C137.824 12.6281 138.304 12.8082 138.579 12.9796C138.544 12.4824 138.45 11.9681 138.296 11.4366C138.141 10.9051 137.91 10.4508 137.601 10.0736C137.053 9.23348 136.273 8.53055 135.261 7.96477C134.267 7.399 132.972 7.11611 131.378 7.11611C129.749 7.11611 128.335 7.47615 127.135 8.19622C125.934 8.9163 125.034 9.74782 124.434 10.6908L118.854 7.09039C119.625 5.99313 120.654 5.02445 121.94 4.18436C123.226 3.34427 124.691 2.69277 126.337 2.22986C127.983 1.74981 129.732 1.50979 131.584 1.50979C134.567 1.50979 137.001 2.02413 138.887 3.05281C140.773 4.08149 142.162 5.48736 143.053 7.27041C143.482 8.14479 143.834 9.10489 144.108 10.1507C144.382 11.1965 144.562 12.431 144.648 13.854C144.699 15.1741 144.742 16.3657 144.776 17.4287C144.811 18.4916 144.854 19.4603 144.905 20.3347C144.939 21.5862 145.085 22.4006 145.342 22.7778C145.617 23.1378 145.985 23.3179 146.448 23.3179C146.945 23.3179 147.374 23.155 147.734 22.8292C148.094 22.5035 148.317 22.0577 148.403 21.4919L151 25.8124C150.846 26.824 150.323 27.6383 149.431 28.2555C148.54 28.8556 147.451 29.1556 146.165 29.1556C145.188 29.1556 144.288 28.9842 143.465 28.6413C142.642 28.2813 141.965 27.8183 141.433 27.2526C140.919 26.6697 140.619 26.0353 140.533 25.3495C140.225 25.9839 139.616 26.6182 138.707 27.2526C137.799 27.8869 136.65 28.4098 135.261 28.8213C133.872 29.2328 132.278 29.4385 130.478 29.4385ZM131.918 24.0637C132.827 24.0637 133.744 23.9265 134.67 23.6522C135.595 23.3779 136.436 23.0178 137.19 22.5721C137.961 22.1263 138.57 21.6634 139.016 21.1833C138.982 20.4633 138.956 19.7775 138.939 19.126C138.939 18.4745 138.947 17.9001 138.964 17.4029C138.553 17.2486 137.756 17.0686 136.573 16.8629C135.407 16.64 134.147 16.5286 132.792 16.5286C131.592 16.5286 130.478 16.6743 129.449 16.9657C128.438 17.2401 127.615 17.6601 126.98 18.2259C126.363 18.7745 126.054 19.4689 126.054 20.309C126.054 21.2691 126.294 22.0234 126.775 22.5721C127.272 23.1207 127.958 23.5065 128.832 23.7293C129.723 23.9522 130.752 24.0637 131.918 24.0637Z" fill="#32BA55"/>
</svg>
