<svg width="22" height="22" viewBox="0 0 22 22" fill="none" xmlns="http://www.w3.org/2000/svg">
<g id="development" clip-path="url(#clip0_1045_4064)">
<path id="Vector" d="M5.90955 16.9264C6.10829 17.1251 6.36003 17.2179 6.61176 17.2179C6.8635 17.2179 7.11524 17.1251 7.31398 16.9264C7.69821 16.5421 7.69821 15.9062 7.31398 15.5219L2.94169 11.1497L7.31398 6.77737C7.69821 6.39314 7.69821 5.75717 7.31398 5.37294C6.92975 4.98871 6.29378 4.98871 5.90955 5.37294L0.835048 10.4474C0.450817 10.8317 0.450817 11.4676 0.835048 11.8519L5.90955 16.9264ZM14.3096 16.9264C14.5084 17.1251 14.7601 17.2179 15.0119 17.2179C15.2636 17.2179 15.5153 17.1251 15.7141 16.9264L20.7886 11.8519C20.9741 11.6664 21.0801 11.4146 21.0801 11.1497C21.0801 10.8847 20.9741 10.6329 20.7886 10.4474L15.7141 5.37294C15.3298 4.98871 14.6939 4.98871 14.3096 5.37294C13.9254 5.75717 13.9254 6.39314 14.3096 6.77737L18.6819 11.1497L14.3096 15.5219C13.9122 15.9194 13.9122 16.5421 14.3096 16.9264ZM11.832 3.30604L7.87045 18.4898C7.73796 19.0198 8.05594 19.563 8.58592 19.7087C8.66541 19.7352 8.75816 19.7352 8.83766 19.7352C9.27488 19.7352 9.68561 19.4438 9.80486 18.9933L13.7664 3.80952C13.8989 3.27955 13.5809 2.73632 13.0509 2.59058C12.5077 2.45809 11.9778 2.77607 11.832 3.30604Z" fill="#8A8A8A"/>
</g>
<defs>
<clipPath id="clip0_1045_4064">
<rect width="21.199" height="21.199" fill="white" transform="translate(0.210938 0.550781)"/>
</clipPath>
</defs>
</svg>
