<?xml version="1.0" encoding="UTF-8" standalone="no"?>
<!-- Created with Inkscape (http://www.inkscape.org/) -->

<svg
   width="149.396mm"
   height="131.942mm"
   viewBox="0 0 149.396 131.942"
   version="1.1"
   id="svg1"
   xml:space="preserve"
   inkscape:version="1.3.2 (091e20ef0f, 2023-11-25)"
   sodipodi:docname="devops.svg"
   xmlns:inkscape="http://www.inkscape.org/namespaces/inkscape"
   xmlns:sodipodi="http://sodipodi.sourceforge.net/DTD/sodipodi-0.dtd"
   xmlns="http://www.w3.org/2000/svg"
   xmlns:svg="http://www.w3.org/2000/svg"><sodipodi:namedview
     id="namedview1"
     pagecolor="#ffffff"
     bordercolor="#000000"
     borderopacity="0.25"
     inkscape:showpageshadow="2"
     inkscape:pageopacity="0.0"
     inkscape:pagecheckerboard="0"
     inkscape:deskcolor="#d1d1d1"
     inkscape:document-units="mm"
     inkscape:zoom="0.63748732"
     inkscape:cx="290.20185"
     inkscape:cy="185.10172"
     inkscape:window-width="1366"
     inkscape:window-height="704"
     inkscape:window-x="0"
     inkscape:window-y="0"
     inkscape:window-maximized="1"
     inkscape:current-layer="layer1" /><defs
     id="defs1" /><g
     inkscape:label="Layer 1"
     inkscape:groupmode="layer"
     id="layer1"><path
       style="fill:#d6180a;stroke-width:1.10778;fill-opacity:1"
       d="m 12.671952,129.41353 c -0.561436,-0.37322 -1.317558,-1.26604 -1.68027,-1.98401 -0.603242,-1.1941 -0.658928,-1.70626 -0.65304,-6.0062 0.0073,-5.34053 0.332272,-6.55769 2.084389,-7.80734 0.961367,-0.68566 1.134986,-0.70375 6.75398,-0.70375 5.358522,0 5.825893,0.0428 6.594767,0.60335 1.24288,0.90621 2.146474,2.90284 2.146474,4.74295 v 1.55834 l 43.012536,-0.0839 43.012532,-0.0839 2.78445,-0.77156 c 1.53146,-0.42436 3.54789,-1.11078 4.48095,-1.52539 4.48728,-1.99395 9.39958,-6.12465 12.08206,-10.1597 2.66583,-4.00997 4.03626,-7.931073 4.64387,-13.287146 0.26142,-2.30432 0.5321,-3.559992 0.80464,-3.732551 0.8146,-0.515739 1.99214,-0.295124 2.49134,0.466764 0.42449,0.647853 0.44384,1.094356 0.16189,3.737027 -0.42466,3.980428 -1.27513,7.109836 -2.82274,10.386686 -1.74875,3.70272 -3.10231,5.66542 -5.95766,8.63871 -4.70356,4.89786 -10.27215,7.93369 -16.83703,9.17902 -2.01788,0.38279 -8.16206,0.44317 -45.096507,0.44317 H 27.918252 v 1.54995 c 0,1.83062 -0.905889,3.82967 -2.14551,4.73455 -0.754462,0.55074 -1.317331,0.61122 -6.453276,0.69341 -5.467674,0.0875 -5.655576,0.0709 -6.647514,-0.58858 z m 11.077673,-3.03529 c 0.624711,-0.43757 0.651418,-0.63944 0.651418,-4.92409 0,-3.08418 -0.108928,-4.57675 -0.351721,-4.81954 -0.243814,-0.24382 -1.76934,-0.35172 -4.972401,-0.35172 -4.268356,0 -4.643816,0.0432 -4.924093,0.56693 -0.16916,0.31607 -0.303414,2.44862 -0.303414,4.81954 0,5.40569 -0.245693,5.16515 5.275815,5.16515 3.12148,0 4.11259,-0.0978 4.624396,-0.45627 z m 19.366977,-13.63972 c -5.117796,-0.67419 -10.322295,-3.56769 -13.6582,-7.59346 -1.976828,-2.38564 -4.058641,-6.546796 -4.619074,-9.232681 -1.928544,-9.242562 2.129107,-18.704962 10.095077,-23.541629 l 1.007588,-0.611773 0.0637,-3.311084 C 36.111032,62.9726 37.383012,58.377352 40.045771,53.852427 47.737138,40.7822 64.308434,35.586102 77.927866,41.974107 c 7.09853,3.329474 11.83125,8.182746 14.929497,15.309787 0.531615,1.222903 1.140888,2.333975 1.353941,2.469058 0.213054,0.135083 0.858038,0.247634 1.433299,0.250104 4.048251,0.01739 9.382267,3.462818 11.835407,7.644929 l 0.93396,1.592227 2.61813,0.203776 c 4.8157,0.374808 9.23052,2.379429 12.88458,5.850432 4.87503,4.630797 7.1355,10.26643 6.80038,16.954201 -0.47701,9.519289 -6.83599,17.348759 -16.25005,20.007769 l -2.2823,0.64463 -33.560028,0.0471 c -18.458021,0.0259 -34.436656,-0.0685 -35.50808,-0.20956 z m 68.602308,-3.50626 c 5.86196,-0.95113 10.79459,-4.4555 13.43664,-9.54601 1.71721,-3.30858 2.22166,-5.656348 2.03895,-9.489331 -0.22984,-4.821844 -1.89309,-8.620165 -5.24048,-11.967562 -3.35137,-3.351363 -7.16683,-5.025909 -11.96756,-5.252373 -1.69265,-0.07987 -3.3023,-0.262224 -3.57698,-0.405283 -0.27469,-0.143059 -0.90617,-1.112357 -1.4033,-2.154005 -2.15791,-4.521481 -6.187571,-6.902482 -12.28281,-7.257515 -1.492702,-0.08696 -1.47111,-0.0586 -2.71284,-3.567447 -2.156186,-6.093003 -7.464005,-11.779649 -13.585723,-14.555365 -3.794371,-1.720452 -6.018626,-2.164451 -10.843109,-2.164451 -3.696666,0 -4.769762,0.106458 -6.741317,0.668679 -9.492167,2.706911 -16.423764,9.924978 -18.809118,19.586458 -0.343625,1.391796 -0.502025,3.312181 -0.515739,6.252635 l -0.0198,4.243881 -0.966782,0.592276 c -5.900288,3.614694 -8.812328,7.147113 -10.161258,12.326007 -0.575732,2.210392 -0.579419,6.827718 -0.0072,9.088126 1.765089,6.97321 7.693319,12.36524 14.945604,13.59379 2.197908,0.37234 66.121172,0.37933 68.412882,0.008 z m -48.536132,-3.7848 c -0.940283,-0.39551 -1.264839,-1.22027 -1.264839,-3.21414 0,-1.22499 -0.113936,-1.77899 -0.366375,-1.78145 -0.201508,-0.002 -1.369851,-0.44173 -2.596319,-0.977228 l -2.229942,-0.973652 -1.485301,1.416873 c -0.816917,0.779287 -1.712662,1.416887 -1.990546,1.416887 -0.730262,0 -6.865857,-6.131186 -6.865857,-6.860915 0,-0.326165 0.622196,-1.22472 1.382657,-1.996789 1.359318,-1.380065 1.376029,-1.419823 0.989996,-2.354869 -0.215964,-0.523117 -0.668576,-1.696225 -1.005806,-2.606911 l -0.613143,-1.655803 -1.967377,-0.111165 c -3.098564,-0.175086 -3.182839,-0.318488 -3.182839,-5.415683 0,-5.204008 0.101628,-5.376932 3.16012,-5.376932 h 1.987718 l 0.371469,-1.24568 c 0.204308,-0.68513 0.676374,-1.839207 1.049036,-2.564638 l 0.677566,-1.318948 -1.424699,-1.52124 c -0.813446,-0.868557 -1.424698,-1.798485 -1.424698,-2.167465 0,-0.4254 1.020615,-1.683397 2.986667,-3.681305 3.571519,-3.629395 3.918509,-3.727777 6.065429,-1.719578 l 1.406364,1.315481 2.025013,-0.857158 c 1.113758,-0.471439 2.255831,-0.92738 2.537941,-1.013189 0.408822,-0.124359 0.512926,-0.488986 0.512926,-1.796546 0,-1.603991 0.349612,-2.704363 0.996456,-3.136276 0.177374,-0.118433 2.176797,-0.217358 4.443163,-0.219828 5.132779,-0.0055 5.202851,0.03224 5.405109,2.91606 l 0.14655,2.089543 2.597999,1.041559 2.597998,1.04156 1.36893,-1.348349 c 0.864765,-0.851763 1.629439,-1.348348 2.076277,-1.348348 1.016434,0 6.746586,5.749103 6.746586,6.768905 0,0.47762 -0.455607,1.176808 -1.318953,2.024118 -0.725424,0.71195 -1.318953,1.45299 -1.318953,1.646763 0,0.193773 0.395582,1.188495 0.879071,2.210502 0.483488,1.022007 0.879175,2.089012 0.879302,2.371131 1.99e-4,0.439624 0.29342,0.512926 2.051937,0.512926 3.130769,0 3.224108,0.155355 3.224108,5.366342 0,5.214708 -0.03259,5.275836 -2.920548,5.478383 l -2.089544,0.146548 -1.041556,2.598005 -1.041554,2.597993 1.348345,1.368932 c 0.8297,0.842368 1.348345,1.633248 1.348345,2.056077 0,0.771327 -4.544403,5.635707 -5.949938,6.368897 -1.073399,0.55991 -1.585748,0.36561 -3.097468,-1.174716 l -1.254645,-1.278392 -2.249769,0.982271 c -1.237372,0.540237 -2.414637,0.983877 -2.616144,0.985847 -0.257069,0.002 -0.366376,0.60213 -0.366376,2.00985 0,2.96387 -0.226262,3.10574 -5.085812,3.18904 -2.119569,0.0363 -4.141903,-0.0552 -4.494077,-0.2033 z m 6.06268,-5.09314 c 0,-2.208153 0.311633,-2.588455 2.549543,-3.111317 0.83803,-0.195801 2.532782,-0.872046 3.766117,-1.502785 1.233334,-0.630738 2.496077,-1.146787 2.806095,-1.146787 0.310017,0 1.161657,0.55121 1.892534,1.224908 l 1.328866,1.224909 1.208445,-1.208447 1.208444,-1.208447 -1.224906,-1.328862 C 82.106898,92.56661 81.55569,91.690343 81.55569,91.350221 c 0,-0.340123 0.4531,-1.4312 1.006887,-2.424626 0.553788,-0.993426 1.2361,-2.663552 1.516247,-3.711393 0.716633,-2.680412 0.993454,-2.931004 3.237758,-2.931004 h 1.859727 v -1.905153 -1.905153 h -1.859727 c -2.208153,0 -2.588452,-0.311641 -3.111319,-2.54955 -0.195797,-0.838027 -0.872051,-2.532779 -1.502785,-3.766117 -0.630733,-1.233328 -1.146788,-2.496078 -1.146788,-2.806091 0,-0.310013 0.551208,-1.161654 1.224906,-1.892535 l 1.224906,-1.328863 -1.208444,-1.208447 -1.208445,-1.208446 -1.328866,1.224908 c -0.730877,0.673698 -1.584896,1.224908 -1.897823,1.224908 -0.312925,0 -1.601852,-0.52736 -2.864281,-1.171912 C 74.235214,64.346206 72.542842,63.660478 71.736815,63.466915 69.532419,62.93755 69.245458,62.5845 69.245458,60.401769 v -1.859734 h -1.905155 -1.905155 v 1.898396 c 0,2.209827 -0.198338,2.417536 -3.077558,3.222927 -0.967232,0.270565 -2.58749,0.943587 -3.600574,1.495617 -1.013082,0.552019 -2.074451,1.003684 -2.358597,1.003684 -0.284145,0 -1.031798,-0.527581 -1.661449,-1.17241 -0.629651,-0.644818 -1.289128,-1.1724 -1.465503,-1.1724 -0.176376,0 -0.830724,0.522331 -1.454108,1.160735 l -1.133424,1.160734 1.220491,1.324066 c 0.671269,0.728245 1.22049,1.577737 1.22049,1.88775 0,0.310013 -0.516055,1.572763 -1.146789,2.806091 -0.630733,1.233338 -1.306987,2.92809 -1.502784,3.766117 -0.522867,2.237909 -0.903166,2.54955 -3.111319,2.54955 h -1.859727 v 1.905153 1.905153 h 1.859727 c 2.208153,0 2.588452,0.311631 3.111319,2.549539 0.195797,0.838038 0.872051,2.53279 1.502784,3.766117 0.630734,1.233339 1.146789,2.466367 1.146789,2.740067 0,0.2737 -0.527581,1.012801 -1.172403,1.642454 -0.644821,0.629652 -1.172402,1.289126 -1.172402,1.465507 0,0.17637 0.522328,0.830726 1.160731,1.454109 l 1.160732,1.133416 1.324076,-1.220488 c 1.53445,-1.414405 2.32353,-1.524231 3.907629,-0.543866 1.39117,0.860958 3.727696,1.836526 5.050163,2.108587 1.694882,0.348674 2.051706,0.866186 2.051706,2.97568 v 1.85973 h 1.905155 1.905155 z m -5.76563,-8.656034 c -3.081138,-1.142678 -5.563206,-3.41659 -7.06574,-6.473161 -0.721918,-1.468576 -0.797816,-1.930267 -0.797816,-4.85325 0,-3.048728 0.05326,-3.338458 0.947779,-5.155476 1.763691,-3.582568 5.4316,-6.246985 9.213656,-6.692922 7.971183,-0.939876 14.4619,5.619603 13.381065,13.522833 -0.525704,3.844027 -3.0829,7.348553 -6.639871,9.099635 -1.677599,0.825885 -2.247627,0.950013 -4.715832,1.026948 -2.2049,0.06868 -3.132924,-0.03312 -4.323241,-0.474607 z m 7.377684,-3.666616 c 5.427466,-2.57031 6.639655,-9.513891 2.400893,-13.752654 -4.067582,-4.067589 -11.095079,-2.731548 -13.58029,2.58182 -0.513689,1.098266 -0.685457,1.97964 -0.685457,3.517209 0,3.043267 1.090199,5.056661 3.875081,7.156563 1.78914,1.349079 5.679572,1.591108 7.989773,0.497062 z M 13.976369,92.626807 C 13.546639,92.197076 13.50005,91.727332 13.64933,89.329426 14.134516,81.5358 18.307534,72.909985 23.949043,68.039464 25.492421,66.707001 25.504052,66.684236 25.706877,64.598515 26.55885,55.83734 30.383746,47.671167 36.683524,41.16331 l 2.778464,-2.870231 -3.642489,-3.651262 -3.64249,-3.651253 h -3.741432 -3.741434 l -0.0017,1.245679 c -0.0034,2.631772 -1.255908,4.70142 -3.314831,5.477665 -0.458434,0.172836 -2.94531,0.311077 -5.59609,0.311077 -4.415153,0 -4.866173,-0.05029 -6.047303,-0.674939 C 8.8618937,36.888732 8.2443205,36.271155 7.7830034,35.398798 7.1584068,34.217669 7.1080692,33.766647 7.1080692,29.351491 c 0,-2.650779 0.1382412,-5.137656 0.3110775,-5.596089 0.4626465,-1.227131 2.0146298,-2.6972 3.1931313,-3.024595 1.440187,-0.400094 9.368198,-0.368789 10.594166,0.04183 2.082254,0.697423 3.469697,2.813115 3.481234,5.308488 l 0.0064,1.392229 h 4.460499 4.460498 l 5.065275,5.065277 c 6.188509,6.188511 6.121215,5.985676 2.884928,8.695467 -4.816456,4.032883 -8.895571,10.199309 -10.834461,16.378531 -0.901982,2.874607 -1.640227,6.872782 -1.640227,8.883108 v 1.428685 l -3.297383,3.297857 c -2.402406,2.402758 -3.69263,3.973505 -4.753594,5.787167 -2.345045,4.008699 -3.958074,9.437941 -3.963941,13.342076 -0.0013,0.855995 -0.193437,1.746575 -0.458484,2.124982 -0.554532,0.79171 -1.921672,0.869509 -2.640884,0.150304 z m 6.739978,-58.579625 c 0.376652,-0.376647 0.460587,-1.240403 0.460587,-4.739804 0,-5.662314 0.308122,-5.351232 -5.300305,-5.351232 -3.545698,0 -4.413589,0.08344 -4.790736,0.460587 -0.378389,0.378389 -0.460587,1.257161 -0.460587,4.924092 0,3.080815 0.108951,4.572459 0.351721,4.815229 0.242766,0.24276 1.734412,0.351721 4.815228,0.351721 3.666931,0 4.545703,-0.0822 4.924092,-0.460593 z M 128.86176,70.555548 c -4.78978,-3.700846 -8.92711,-5.748992 -13.36961,-6.618479 l -2.55458,-0.499976 -1.93567,-2.154227 C 108.00712,57.949959 104.10979,55.454923 100.31414,54.440659 98.596321,53.981627 98.492967,53.882824 97.126963,51.393892 91.173857,40.547029 79.81435,33.246371 67.792295,32.540752 c -4.528623,-0.265801 -4.408853,-0.07635 -4.408853,-6.973785 0,-4.16546 0.09894,-5.636815 0.419677,-6.241714 0.502027,-0.946775 9.123946,-9.5285635 10.039407,-9.9926778 0.377236,-0.1912476 2.319619,-0.3245681 4.728743,-0.3245681 h 4.088534 l 0.12111,-1.9019972 C 82.91498,5.0005353 83.445536,4.031712 85.069918,2.9261675 85.989497,2.300308 86.318349,2.2666902 91.521116,2.2666902 c 5.202365,0 5.532257,0.033721 6.4623,0.6604732 1.981431,1.3352853 2.184174,2.0765712 2.184174,7.9859986 0,5.028534 -0.0323,5.327758 -0.689014,6.384053 -1.279948,2.058724 -2.241613,2.311394 -8.399997,2.207023 -4.894355,-0.08295 -5.451283,-0.145552 -6.186913,-0.695466 -1.537305,-1.149199 -1.991035,-2.059358 -2.114321,-4.24122 l -0.115402,-2.042336 h -3.707752 -3.70775 l -4.172895,4.180353 -4.172894,4.180353 v 3.990279 3.990277 l 2.855282,0.359397 c 12.470414,1.569658 23.343204,8.626451 29.574087,19.19454 1.492509,2.531416 1.525449,2.562944 3.370659,3.224844 1.02488,0.367639 2.09424,0.764968 2.37635,0.882958 0.4728,0.197739 0.51292,-0.07599 0.51292,-3.499862 0,-2.135516 0.13797,-3.986521 0.32457,-4.354593 0.46411,-0.915471 9.0459,-9.537387 9.99268,-10.039411 0.57749,-0.306214 1.89552,-0.419673 4.87529,-0.419673 h 4.08382 l 0.12111,-1.902004 c 0.13407,-2.105474 0.66463,-3.074298 2.289,-4.179842 0.91958,-0.62586 1.24844,-0.659476 6.45121,-0.659476 5.20164,0 5.5332,0.03388 6.47815,0.661842 0.54776,0.364013 1.29269,1.249279 1.6554,1.96726 0.60242,1.192473 0.65948,1.713091 0.65948,6.017373 0,4.308654 -0.0565,4.82241 -0.65948,6.002575 -1.21787,2.383416 -1.52897,2.4848 -7.93933,2.587381 -5.46767,0.08752 -5.65557,0.0709 -6.6475,-0.588565 -1.39224,-0.925541 -2.33975,-2.885308 -2.33975,-4.839392 v -1.549942 h -3.72586 -3.72586 l -4.18786,4.18786 -4.18786,4.187861 v 4.388458 4.388469 l 1.5847,1.264512 c 0.87158,0.695488 2.11104,1.888747 2.75436,2.651677 1.08984,1.292483 1.32673,1.421296 3.47128,1.887473 4.55665,0.990523 10.15315,3.793412 13.46097,6.74162 1.96958,1.755459 2.1184,2.825433 0.51069,3.671668 -0.83225,0.438061 -0.71194,0.470464 -2.0274,-0.545938 z m 9.78997,-29.658172 c 0.24279,-0.242804 0.35172,-1.735375 0.35172,-4.819552 0,-5.654682 0.26898,-5.380361 -5.27582,-5.380361 -5.52151,0 -5.27582,-0.240539 -5.27582,5.165152 0,2.370921 0.13425,4.503468 0.30341,4.819541 0.28028,0.523704 0.65574,0.566941 4.9241,0.566941 3.20306,0 4.72859,-0.107898 4.97241,-0.351721 z M 96.493516,15.475493 c 0.16916,-0.316078 0.303414,-2.448621 0.303414,-4.819543 0,-5.4056917 0.245693,-5.1651511 -5.275814,-5.1651511 -5.544805,0 -5.275814,-0.2743213 -5.275814,5.3803631 0,3.084171 0.108928,4.576747 0.351721,4.819542 0.243814,0.243814 1.76934,0.351721 4.972401,0.351721 4.268355,0 4.643814,-0.04322 4.924092,-0.566932 z"
       id="path38" /></g></svg>
