<?xml version="1.0" encoding="UTF-8"?>
<svg version="1.1" xmlns="http://www.w3.org/2000/svg" width="148" height="56">
<path d="M0 0 C1.32 0 2.64 0 4 0 C4 11.88 4 23.76 4 36 C2.68 35.67 1.36 35.34 0 35 C0 34.34 0 33.68 0 33 C-1.03125 33.515625 -2.0625 34.03125 -3.125 34.5625 C-6.79796837 36.11758741 -9.1214278 36.2647518 -13 35 C-16.34642169 32.79440388 -18.78177129 30.87618227 -20 27 C-20.686005 20.94028918 -19.34258401 17.87062241 -16 13 C-12.842224 10.894816 -12.04602866 10.74710656 -8.4375 10.8125 C-7.65246094 10.81894531 -6.86742187 10.82539063 -6.05859375 10.83203125 C-4 11 -4 11 -2 12 C-1.90912109 10.82630859 -1.90912109 10.82630859 -1.81640625 9.62890625 C-1.73261719 8.61699219 -1.64882813 7.60507813 -1.5625 6.5625 C-1.48128906 5.55316406 -1.40007813 4.54382813 -1.31640625 3.50390625 C-1 1 -1 1 0 0 Z M-12.875 17.625 C-14.32142958 20.67857355 -14.41827541 22.65379675 -14 26 C-13.02896212 28.46186579 -13.02896212 28.46186579 -11 30 C-7.84768868 30.45971207 -5.93063634 30.57763635 -3.1875 28.875 C-1.46887042 26.16137435 -1.06427657 24.21382832 -1 21 C-2.40878096 18.0098357 -2.40878096 18.0098357 -5 16 C-8.51958663 15.35354531 -10.1310527 15.24691234 -12.875 17.625 Z " fill="#111111" transform="translate(42,0)"/>
<path d="M0 0 C0.99 0 1.98 0 3 0 C3 11.88 3 23.76 3 36 C1.35 35.34 -0.3 34.68 -2 34 C-3.66967972 34.6590841 -5.33607955 35.32650839 -7 36 C-11.48980038 35.91982499 -13.41944237 35.49221191 -16.875 32.5625 C-20.21204979 28.53841055 -20.47653394 25.75744425 -20.39453125 20.62109375 C-19.84061647 16.94112524 -18.57918201 14.84977586 -15.99609375 12.2109375 C-12.26442521 9.94710727 -8.19463079 10.30484461 -4 11 C-3.67 11.33 -3.34 11.66 -3 12 C-2.95101562 11.30132812 -2.90203125 10.60265625 -2.8515625 9.8828125 C-2.77679688 8.97273437 -2.70203125 8.06265625 -2.625 7.125 C-2.55539063 6.22007812 -2.48578125 5.31515625 -2.4140625 4.3828125 C-2 2 -2 2 0 0 Z M-13.375 18.125 C-15.26733708 20.90320867 -15.26733708 20.90320867 -14.9375 24.125 C-13.79675187 27.72206885 -13.79675187 27.72206885 -11 30 C-7.91184125 30.38601984 -5.89815624 30.47901666 -3.125 29 C-1.31501348 25.78224619 -1.32654416 22.59176448 -2 19 C-4.06468927 16.55296087 -5.39144027 16.12171195 -8.5 15.5 C-11.20416667 15.82083333 -11.20416667 15.82083333 -13.375 18.125 Z " fill="#111111" transform="translate(145,0)"/>
<path d="M0 0 C7.59 0 15.18 0 23 0 C22.67 1.32 22.34 2.64 22 4 C18.93618406 5.53190797 15.73034134 5.10243613 12.375 5.0625 C9.94125 5.041875 7.5075 5.02125 5 5 C5 12.92 5 20.84 5 29 C8.25520833 28.93489583 11.51041667 28.86979167 14.765625 28.8046875 C19.60706236 29.09704483 19.60706236 29.09704483 22 31 C22.38632494 32.65518637 22.72436503 34.32282552 23 36 C19.54168414 36.02894547 16.08339928 36.04678 12.625 36.0625 C11.64015625 36.07087891 10.6553125 36.07925781 9.640625 36.08789062 C8.22910156 36.09272461 8.22910156 36.09272461 6.7890625 36.09765625 C5.91975098 36.10289307 5.05043945 36.10812988 4.15478516 36.11352539 C2 36 2 36 0 35 C0 23.45 0 11.9 0 0 Z " fill="#111111" transform="translate(0,0)"/>
<path d="M0 0 C2.82424288 2.19022918 4.41508603 3.83017207 6 7 C6 9.31 6 11.62 6 14 C1.38 14 -3.24 14 -8 14 C-8.33 12.35 -8.66 10.7 -9 9 C-6.03 9 -3.06 9 0 9 C-0.66 8.01 -1.32 7.02 -2 6 C-4.95746492 5.41654524 -4.95746492 5.41654524 -8 6 C-10.09764165 7.51894806 -10.09764165 7.51894806 -11 10 C-10.77962372 13.67293796 -10.63033454 15.36966546 -8 18 C-3.85490567 18.28602162 -3.85490567 18.28602162 0 17 C1.99960012 16.960008 4.00047242 16.95653201 6 17 C3.81089907 21.49981858 1.74615635 23.35709972 -3 25 C-7.31352253 25 -10.03359663 24.26295003 -13.375 21.625 C-16.65932854 18.34067146 -16.93521231 16.79040985 -17.3125 12.1875 C-17.26435467 7.83034762 -15.80463186 5.36555823 -13 2 C-8.7741215 -0.81725233 -4.96375312 -0.79958384 0 0 Z " fill="#111111" transform="translate(90,11)"/>
<path d="M0 0 C3.0625 1.9375 3.0625 1.9375 5 5 C5.67636879 8.0641556 5.85853821 10.84068676 6 14 C1.38 14 -3.24 14 -8 14 C-8.33 12.35 -8.66 10.7 -9 9 C-6.03 9 -3.06 9 0 9 C-0.66 8.01 -1.32 7.02 -2 6 C-4.95746492 5.41654524 -4.95746492 5.41654524 -8 6 C-10.09764165 7.51894806 -10.09764165 7.51894806 -11 10 C-10.77962372 13.67293796 -10.63033454 15.36966546 -8 18 C-3.573784 18.30880577 0.63182208 17.69890847 5 17 C4.6452187 19.57216446 4.1957002 20.79677287 2.375 22.6875 C-0.84553053 24.46726687 -3.32383034 24.87323553 -7 25 C-11.64071145 23.36210184 -14.56700205 21.30453484 -17 17 C-17.87012579 12.19655048 -17.47146781 8.89416308 -15.1875 4.5625 C-10.73339279 -0.65516845 -6.50812837 -0.97570027 0 0 Z " fill="#111111" transform="translate(116,11)"/>
<path d="M0 0 C2.31 0 4.62 0 7 0 C7 0.66 7 1.32 7 2 C7.928125 2 8.85625 2 9.8125 2 C12.875 2 15.9375 2 19 2 C19 1.34 19 0.68 19 0 C20.98 0 22.96 0 25 0 C25.33 0.99 25.66 1.98 26 3 C27.1446875 2.7525 27.1446875 2.7525 28.3125 2.5 C32.15760484 1.78463166 35.21800993 2.18227242 39 3 C39 4.32 39 5.64 39 7 C39.33 5.35 39.66 3.7 40 2 C41.65 2 43.3 2 45 2 C45.99435406 5.09354597 45.87840996 6.90279155 45 10 C34 10 23 10 12 10 C11.67 8.35 11.34 6.7 11 5 C10.67 5 10.34 5 10 5 C9.67 6.65 9.34 8.3 9 10 C6.03 10 3.06 10 0 10 C0 6.7 0 3.4 0 0 Z M2 2 C2 2.66 2 3.32 2 4 C3.32 4 4.64 4 6 4 C6 4.66 6 5.32 6 6 C4.68 6 3.36 6 2 6 C2 6.66 2 7.32 2 8 C3.65 8 5.3 8 7 8 C7 6.02 7 4.04 7 2 C5.35 2 3.7 2 2 2 Z M17 4 C17.33 5.32 17.66 6.64 18 8 C18.33 7.01 18.66 6.02 19 5 C18.34 4.67 17.68 4.34 17 4 Z " fill="#045AE5" transform="translate(22,43)"/>
<path d="M0 0 C2.97 0.495 2.97 0.495 6 1 C6.66 0.67 7.32 0.34 8 0 C14.99573809 -0.68810539 14.99573809 -0.68810539 18.7421875 1.87890625 C21.96817608 6.33836105 21.55835967 9.96032404 21.3125 15.3125 C21.28994141 16.24384766 21.26738281 17.17519531 21.24414062 18.13476562 C21.18542078 20.4248396 21.10336858 22.71157875 21 25 C19.35 24.34 17.7 23.68 16 23 C15.95101562 21.94039062 15.90203125 20.88078125 15.8515625 19.7890625 C15.77653291 18.40101503 15.70098515 17.01299549 15.625 15.625 C15.5940625 14.92632812 15.563125 14.22765625 15.53125 13.5078125 C15.40500502 9.29814173 15.40500502 9.29814173 13 6 C9.69316534 6.28983269 9.69316534 6.28983269 7 8 C6.79502168 11.26598787 6.68043155 14.53015954 6.57421875 17.80078125 C5.90763846 21.51458572 4.96910098 22.7439289 2 25 C1.34 25 0.68 25 0 25 C0 16.75 0 8.5 0 0 Z " fill="#111111" transform="translate(49,11)"/>
<path d="M0 0 C2.875 -0.1875 2.875 -0.1875 6 0 C6.66 0.99 7.32 1.98 8 3 C8.7425 2.835 9.485 2.67 10.25 2.5 C13 2 13 2 17 2 C17.33 2.66 17.66 3.32 18 4 C18.52464844 3.67257813 19.04929687 3.34515625 19.58984375 3.0078125 C22.7052626 1.70509279 25.19613651 1.80606423 28.5625 1.875 C30.26599609 1.90207031 30.26599609 1.90207031 32.00390625 1.9296875 C32.99261719 1.95289063 33.98132813 1.97609375 35 2 C35.99 2 36.98 2 38 2 C38.99 2 39.98 2 41 2 C41 1.34 41 0.68 41 0 C41.99 0 42.98 0 44 0 C44 3.3 44 6.6 44 10 C40.7 10 37.4 10 34 10 C33.505 7.525 33.505 7.525 33 5 C32.67 6.65 32.34 8.3 32 10 C30.54207116 10.05399736 29.08357288 10.09279177 27.625 10.125 C26.81289062 10.14820313 26.00078125 10.17140625 25.1640625 10.1953125 C23 10 23 10 21 8 C20.34 9.65 19.68 11.3 19 13 C18.01 13 17.02 13 16 13 C16 11.35 16 9.7 16 8 C15.34 8.66 14.68 9.32 14 10 C11.5625 10.125 11.5625 10.125 9 10 C8.01 10 7.02 10 6 10 C4 10 2 10 0 10 C0 6.7 0 3.4 0 0 Z M2 2 C2 2.66 2 3.32 2 4 C2.66 4 3.32 4 4 4 C4 3.34 4 2.68 4 2 C3.34 2 2.68 2 2 2 Z M25 4 C25 5.32 25 6.64 25 8 C25.33 6.68 25.66 5.36 26 4 C25.67 4 25.34 4 25 4 Z M40 4 C40 5.32 40 6.64 40 8 C40.33 6.68 40.66 5.36 41 4 C40.67 4 40.34 4 40 4 Z M2 6 C2 6.66 2 7.32 2 8 C2.99 7.67 3.98 7.34 5 7 C4.01 6.67 3.02 6.34 2 6 Z " fill="#045AE5" transform="translate(82,43)"/>
<path d="M0 0 C0.9075 0.165 1.815 0.33 2.75 0.5 C5.91372977 0.98672766 7.94173339 0.80954116 11 0 C11.33 1.65 11.66 3.3 12 5 C12.33 3.35 12.66 1.7 13 0 C14.65 0 16.3 0 18 0 C18.99435406 3.09354597 18.87840996 4.90279155 18 8 C15.04142591 8.05379226 12.08382279 8.09357093 9.125 8.125 C7.86236328 8.15013672 7.86236328 8.15013672 6.57421875 8.17578125 C5.76855469 8.18222656 4.96289062 8.18867187 4.1328125 8.1953125 C3.38918457 8.20578613 2.64555664 8.21625977 1.87939453 8.22705078 C0 8 0 8 -2 6 C-1.44444444 1.44444444 -1.44444444 1.44444444 0 0 Z " fill="#045EE7" transform="translate(49,45)"/>
<path d="M0 0 C1.98 0 3.96 0 6 0 C6 3.3 6 6.6 6 10 C3.03 10 0.06 10 -3 10 C-3.66 8.02 -4.32 6.04 -5 4 C-4.34 3.34 -3.68 2.68 -3 2 C-2.01 2 -1.02 2 0 2 C0 1.34 0 0.68 0 0 Z M-2 4 C-1.67 5.32 -1.34 6.64 -1 8 C-0.67 7.01 -0.34 6.02 0 5 C-0.66 4.67 -1.32 4.34 -2 4 Z " fill="#0352D4" transform="translate(41,43)"/>
<path d="M0 0 C1.22589844 0.01353516 1.22589844 0.01353516 2.4765625 0.02734375 C3.41628906 0.04474609 3.41628906 0.04474609 4.375 0.0625 C4.375 1.7125 4.375 3.3625 4.375 5.0625 C1.85024538 6.32487731 0.06299534 6.16106404 -2.75 6.125 C-3.66007813 6.11597656 -4.57015625 6.10695313 -5.5078125 6.09765625 C-6.20648438 6.08605469 -6.90515625 6.07445312 -7.625 6.0625 C-7.25 3.625 -7.25 3.625 -6.625 1.0625 C-4.21954362 -0.14022819 -2.67503047 -0.03821472 0 0 Z " fill="#035BEB" transform="translate(14.625,10.9375)"/>
<path d="M0 0 C1.65 0 3.3 0 5 0 C5.33 0.99 5.66 1.98 6 3 C5.01 3.33 4.02 3.66 3 4 C3.99 4 4.98 4 6 4 C6.33 5.98 6.66 7.96 7 10 C4.69 10 2.38 10 0 10 C-0.95024979 6.30458414 -0.95024979 3.69541586 0 0 Z " fill="#045EE7" transform="translate(72,43)"/>
<path d="M0 0 C1.093125 0.0825 2.18625 0.165 3.3125 0.25 C3.3125 2.89 3.3125 5.53 3.3125 8.25 C0 8.5 0 8.5 -3.6875 8.25 C-5.625 6.25 -5.625 6.25 -6.6875 4.25 C-4.79150483 0.68106792 -4.16790733 0.28256999 0 0 Z M-1.6875 2.25 C-1.6875 3.57 -1.6875 4.89 -1.6875 6.25 C-1.3575 4.93 -1.0275 3.61 -0.6875 2.25 C-1.0175 2.25 -1.3475 2.25 -1.6875 2.25 Z " fill="#0344C1" transform="translate(108.6875,44.75)"/>
<path d="M0 0 C1.37478516 0.01740234 1.37478516 0.01740234 2.77734375 0.03515625 C3.69644531 0.04417969 4.61554687 0.05320312 5.5625 0.0625 C6.27277344 0.07410156 6.98304687 0.08570312 7.71484375 0.09765625 C7.38484375 1.74765625 7.05484375 3.39765625 6.71484375 5.09765625 C3.08484375 5.09765625 -0.54515625 5.09765625 -4.28515625 5.09765625 C-3.0432556 0.13005366 -3.0432556 0.13005366 0 0 Z " fill="#108744" transform="translate(11.28515625,17.90234375)"/>
<path d="M0 0 C0.99 0 1.98 0 3 0 C2.67 1.65 2.34 3.3 2 5 C-0.375 5.1875 -0.375 5.1875 -3 5 C-3.66 4.01 -4.32 3.02 -5 2 C-3.68 2 -2.36 2 -1 2 C-0.67 1.34 -0.34 0.68 0 0 Z " fill="#035AEC" transform="translate(108,48)"/>
</svg>
