<?xml version="1.0" encoding="UTF-8" standalone="no"?>
<!-- Created with Inkscape (http://www.inkscape.org/) -->

<svg
   width="30mm"
   height="17mm"
   viewBox="0 0 30 17"
   version="1.1"
   id="svg1"
   xml:space="preserve"
   inkscape:version="1.3.2 (091e20ef0f, 2023-11-25)"
   sodipodi:docname="FrontudeLogo.svg"
   xmlns:inkscape="http://www.inkscape.org/namespaces/inkscape"
   xmlns:sodipodi="http://sodipodi.sourceforge.net/DTD/sodipodi-0.dtd"
   xmlns="http://www.w3.org/2000/svg"
   xmlns:svg="http://www.w3.org/2000/svg"><sodipodi:namedview
     id="namedview1"
     pagecolor="#ffffff"
     bordercolor="#000000"
     borderopacity="0.25"
     inkscape:showpageshadow="2"
     inkscape:pageopacity="0.0"
     inkscape:pagecheckerboard="0"
     inkscape:deskcolor="#d1d1d1"
     inkscape:document-units="mm"
     inkscape:zoom="1.2749746"
     inkscape:cx="124.70837"
     inkscape:cy="-14.902258"
     inkscape:window-width="1366"
     inkscape:window-height="704"
     inkscape:window-x="0"
     inkscape:window-y="0"
     inkscape:window-maximized="1"
     inkscape:current-layer="layer1" /><defs
     id="defs1"><inkscape:path-effect
       effect="fillet_chamfer"
       id="path-effect71"
       is_visible="true"
       lpeversion="1"
       nodesatellites_param="F,0,0,1,0,2.6458333,0,1 @ F,0,0,1,0,2.6458333,0,1 @ F,0,0,1,0,2.6458333,0,1 @ F,0,0,1,0,2.6458333,0,1"
       radius="10"
       unit="px"
       method="auto"
       mode="F"
       chamfer_steps="1"
       flexible="false"
       use_knot_distance="true"
       apply_no_radius="true"
       apply_with_radius="true"
       only_selected="false"
       hide_knots="false" /><inkscape:path-effect
       effect="fillet_chamfer"
       id="path-effect70"
       is_visible="true"
       lpeversion="1"
       nodesatellites_param="F,0,0,1,0,2.6458333,0,1 @ F,0,0,1,0,2.6458333,0,1 @ F,0,0,1,0,2.6458333,0,1 @ F,0,0,1,0,2.6458333,0,1"
       radius="10"
       unit="px"
       method="auto"
       mode="F"
       chamfer_steps="1"
       flexible="false"
       use_knot_distance="true"
       apply_no_radius="true"
       apply_with_radius="true"
       only_selected="false"
       hide_knots="false" /><inkscape:path-effect
       effect="fillet_chamfer"
       id="path-effect69"
       is_visible="true"
       lpeversion="1"
       nodesatellites_param="F,0,0,1,0,2.6458333,0,1 @ F,0,0,1,0,2.6458333,0,1 @ F,0,0,1,0,2.6458333,0,1 @ F,0,0,1,0,2.6458333,0,1"
       radius="10"
       unit="px"
       method="auto"
       mode="F"
       chamfer_steps="1"
       flexible="false"
       use_knot_distance="true"
       apply_no_radius="true"
       apply_with_radius="true"
       only_selected="false"
       hide_knots="false" /><inkscape:path-effect
       effect="fillet_chamfer"
       id="path-effect68"
       is_visible="true"
       lpeversion="1"
       nodesatellites_param="F,0,0,1,0,0.52916667,0,1 @ F,0,0,1,0,0.52916667,0,1 @ F,0,0,1,0,0.52916667,0,1 @ F,0,0,1,0,0.52916667,0,1 @ F,0,0,1,0,0.52916667,0,1 @ F,0,0,1,0,0.52916667,0,1 @ F,0,0,1,0,0.52916667,0,1 @ F,0,0,1,0,0.52916667,0,1 @ F,0,0,1,0,0.52916667,0,1 @ F,0,0,1,0,0.52916667,0,1 @ F,0,0,1,0,0.52916667,0,1 @ F,0,0,1,0,0.52916667,0,1 @ F,0,0,1,0,0.52916667,0,1 @ F,0,0,1,0,0.52916667,0,1 @ F,0,0,1,0,0.52916667,0,1 @ F,0,0,1,0,0.52916667,0,1 @ F,0,0,1,0,0.52916667,0,1 @ F,0,0,1,0,0.52916667,0,1"
       radius="2"
       unit="px"
       method="auto"
       mode="F"
       chamfer_steps="1"
       flexible="false"
       use_knot_distance="true"
       apply_no_radius="true"
       apply_with_radius="true"
       only_selected="false"
       hide_knots="false" /><inkscape:path-effect
       effect="fillet_chamfer"
       id="path-effect67"
       is_visible="true"
       lpeversion="1"
       nodesatellites_param="F,0,0,1,0,0.52916667,0,1 @ F,0,0,1,0,0.52916667,0,1 @ F,0,0,1,0,0.52916667,0,1 @ F,0,0,1,0,0.52916667,0,1 @ F,0,0,1,0,0.52916667,0,1 @ F,0,0,1,0,0.52916667,0,1 @ F,0,0,1,0,0.52916667,0,1 @ F,0,0,1,0,0.52916667,0,1 @ F,0,0,1,0,0.52916667,0,1"
       radius="2"
       unit="px"
       method="auto"
       mode="F"
       chamfer_steps="1"
       flexible="false"
       use_knot_distance="true"
       apply_no_radius="true"
       apply_with_radius="true"
       only_selected="false"
       hide_knots="false" /><inkscape:path-effect
       effect="fillet_chamfer"
       id="path-effect66"
       is_visible="true"
       lpeversion="1"
       nodesatellites_param="F,0,0,1,0,0.52916667,0,1 @ F,0,0,1,0,0.52916667,0,1 @ F,0,0,1,0,0.52916667,0,1 @ F,0,0,1,0,0.52916667,0,1 @ F,0,0,1,0,0.52916667,0,1 @ F,0,0,1,0,0.52916667,0,1"
       radius="2"
       unit="px"
       method="auto"
       mode="F"
       chamfer_steps="1"
       flexible="false"
       use_knot_distance="true"
       apply_no_radius="true"
       apply_with_radius="true"
       only_selected="false"
       hide_knots="false" /></defs><g
     inkscape:label="Layer 1"
     inkscape:groupmode="layer"
     id="layer1"><path
       id="path65"
       style="opacity:1;fill:#ff2a2a;fill-opacity:1;stroke:none;stroke-width:1"
       d="m 773.36988,-214.38486 c -0.7818,0.43299 -2.33494,1.32146 -4.4139,2.52644 -0.25277,0.1465 -0.66248,0.38437 -0.91522,0.53112 l -0.23198,0.13469 a 0.91963212,0.91963212 119.94267 0 0 -0.45786,0.79488 l -0.002,3.33829 a 0.31051988,0.31051988 30.430867 0 0 0.46184,0.2713 l 1.38991,-0.77566 a 0.90198989,0.90198989 120.43698 0 0 0.46243,-0.78704 1731.6597,1731.6597 90.055793 0 1 7.5e-4,-0.76326 0.78041375,0.78041375 125.96353 0 1 0.46028,-0.63437 l 1.2362,-0.70374 a 4339.31,4339.31 150.34129 0 0 0.91968,-0.52369 l 1.09628,-0.62445 a 0.90999931,0.90999931 120.1562 0 0 0.45961,-0.79107 l -6.6e-4,-1.71565 c -1.1e-4,-0.29225 -0.21018,-0.41939 -0.46584,-0.27779 z"
       inkscape:path-effect="#path-effect67"
       inkscape:original-d="m 773.83552,-214.63624 c -0.4552,0.23078 -2.43463,1.35861 -5.33714,3.04323 l -1.14722,0.66611 -0.002,4.39663 2.31407,-1.2914 5.1e-4,-0.76326 0.001,-0.90175 2.15594,-1.22732 2.0159,-1.14825 z"
       transform="translate(-766.9937,218.9383)" /><path
       id="path62"
       style="opacity:1;fill:#ff2a2a;fill-opacity:1;stroke:none;stroke-width:1"
       d="m 773.36961,-218.58567 -2.31707,1.33906 a 8575.4697,8575.4697 149.97933 0 1 -0.91635,0.5295 l -2.3072,1.33298 a 0.91762912,0.91762912 120.01223 0 0 -0.45857,0.79389 l -0.001,1.69705 c -2.1e-4,0.29225 0.20885,0.41794 0.46428,0.27591 0.51826,-0.28818 1.35597,-0.76377 2.3147,-1.31486 0.25315,-0.14552 0.66342,-0.38214 0.91636,-0.52854 0.95641,-0.55359 1.79129,-1.04316 2.31,-1.35361 0.25066,-0.15002 0.4519,-0.51201 0.45205,-0.80426 l 9.2e-4,-1.70273 a 0.30517651,0.30517651 30.003256 0 0 -0.45788,-0.26439 z"
       inkscape:path-effect="#path-effect66"
       inkscape:original-d="m 773.82777,-218.85045 -3.23339,1.86862 -3.22358,1.86242 -0.002,2.75539 c 0.3462,-0.17941 1.68105,-0.93424 3.23753,-1.83193 1.5319,-0.88353 2.84579,-1.65695 3.21996,-1.89343 z"
       transform="translate(-766.9937,218.9383)" /><path
       id="path66"
       style="opacity:1;fill:#f9f9f9;fill-opacity:1;stroke:none;stroke-width:1"
       d="m 774.98924,-218.31484 0.001,1.79524 c 2e-4,0.29225 0.20246,0.65287 0.45448,0.80086 0.30602,0.1797 0.7414,0.43301 1.23377,0.71759 0.25297,0.14621 0.66355,0.38261 0.91681,0.52845 l 1.12718,0.64907 a 0.91534082,0.91534082 59.967411 0 1 0.45857,0.79323 v 1.83347 2.89181 a 0.91687424,0.91687424 119.99105 0 1 -0.45819,0.7939 l -1.54238,0.89113 a 12190.953,12190.953 149.97962 0 0 -0.91636,0.5295 l -1.54191,0.89104 a 0.92028104,0.92028104 179.87627 0 1 -0.91748,0.002 l -0.75053,-0.42942 c -0.25367,-0.14513 -0.66495,-0.38043 -0.91855,-0.52569 -0.308,-0.17641 -0.57973,-0.33223 -0.79223,-0.45427 -0.25342,-0.14554 -0.66537,-0.14867 -0.92055,-0.006 l -1.56515,0.87372 c -0.25518,0.14245 -0.26055,0.38259 -0.009,0.53177 1.09553,0.65028 3.84208,2.25095 4.93644,2.87691 0.25255,0.14446 0.66717,0.14166 0.92106,-0.003 0.46303,-0.26443 1.23477,-0.70786 2.12946,-1.22406 0.25262,-0.14575 0.66249,-0.38253 0.91555,-0.52871 1.11646,-0.64491 2.17961,-1.25891 2.79189,-1.61259 0.25307,-0.14617 0.6633,-0.3833 0.91631,-0.52958 a 0.6920904,0.6920904 108.4904 0 0 0.21937,-0.65601 v -3.25354 -4.31188 a 0.91679057,0.91679057 60.006685 0 0 -0.45821,-0.79386 l -2.47046,-1.42709 a 27792.866,27792.866 30.012279 0 0 -0.91643,-0.52936 l -2.38665,-1.37856 a 0.30519846,0.30519846 149.98552 0 0 -0.45785,0.2645 z"
       inkscape:path-effect="#path-effect68"
       inkscape:original-d="m 774.98887,-218.84401 0.002,2.85358 c 0.0832,0.0575 1.0342,0.61324 2.14612,1.25367 l 2.04432,1.17719 v 2.89181 2.89181 l -2.45876,1.42059 -2.45825,1.42058 -1.66915,-0.95498 c -0.87364,-0.49992 -1.57671,-0.90351 -1.70997,-0.98133 l -2.48925,1.38958 c 0.25178,0.17224 5.7869,3.39761 5.84925,3.40754 0.009,0.001 1.38088,-0.78528 3.04788,-1.74821 1.66697,-0.96296 3.33577,-1.92666 3.7083,-2.14199 l 0.67748,-0.39171 v -4.31188 -4.31188 l -3.38688,-1.95647 z"
       transform="translate(-766.9937,218.9383)" /><text
       xml:space="preserve"
       style="font-size:30.4271px;line-height:0;font-family:'Basier Circle';-inkscape-font-specification:'Basier Circle';letter-spacing:0.529167px;opacity:1;fill:#000000;fill-opacity:1;stroke-width:1"
       x="55.32753"
       y="81.974434"
       id="text11"><tspan
         sodipodi:role="line"
         id="tspan11"
         style="font-style:normal;font-variant:normal;font-weight:normal;font-stretch:normal;font-family:'Marck Script';-inkscape-font-specification:'Marck Script';opacity:1;fill:#000000;fill-opacity:1;stroke:none;stroke-width:1"
         x="55.32753"
         y="81.974434" /></text><path
       id="path14"
       style="opacity:1;fill:#ff0000;fill-opacity:1;stroke:none;stroke-width:0.597134"
       d="M 118.75923,-528.45785 H 98.314985 v 105.48245 h 85.041335 z" /><path
       id="path13"
       style="opacity:1;fill:#ff0000;fill-opacity:1;stroke:none;stroke-width:0.597134"
       d="m 146.7864,-408.92507 64.59709,105.48245 h 15.1691 l -64.66427,-105.48245 z" /></g></svg>
