<svg width="1439" height="245" viewBox="0 0 1439 245" fill="none" xmlns="http://www.w3.org/2000/svg">
<mask id="path-1-outside-1_78_15" maskUnits="userSpaceOnUse" x="0.387451" y="0" width="1439" height="248" fill="black">
<rect fill="white" x="0.387451" width="1439" height="248"/>
<path d="M53.1836 3C61.3136 3 67.0723 6.38749 69.1048 13.1625V9.775C69.1048 5.37125 71.4761 3 75.8798 3H181.57L193.087 71.7661H190.716C184.618 53.4737 160.228 9.775 133.128 9.775H96.2048C72.1536 9.775 70.1211 26.035 70.1211 37.2137V94.4623H111.11C122.288 94.4623 141.936 92.4298 141.936 68.3786H145.323V127.321H141.936C141.936 103.27 122.288 101.237 111.11 101.237H70.1211V205.911C70.1211 217.09 72.1536 236.737 96.2048 236.737V240.125H3.38745V236.737C27.4387 236.737 29.4712 217.09 29.4712 205.911V37.2137C29.4712 26.035 27.4387 6.38749 3.38745 6.38749V3H53.1836ZM249.685 70.4111C260.525 70.4111 266.622 76.5086 266.622 87.3486V113.771C291.69 44.3274 377.054 52.4574 377.054 129.354H336.405C336.405 74.4761 266.622 62.6199 266.622 156.115V205.911C266.622 217.09 268.655 236.737 292.706 236.737V240.125H199.889V236.737C223.94 236.737 225.972 217.09 225.972 205.911V104.625C225.972 93.4461 223.94 73.7986 199.889 73.7986V70.4111H249.685ZM469.522 243.512C415.323 243.512 383.819 204.217 383.819 155.776C383.819 106.996 415.323 67.7011 469.522 67.7011C523.722 67.7011 555.226 106.996 555.226 155.776C555.226 204.217 523.722 243.512 469.522 243.512ZM469.522 236.737C500.349 236.737 512.882 200.83 512.882 155.776C512.882 110.384 500.349 74.4761 469.522 74.4761C438.696 74.4761 426.162 110.384 426.162 155.776C426.162 200.83 438.696 236.737 469.522 236.737ZM608.613 70.4111C619.453 70.4111 625.551 76.5086 625.551 87.3486V113.771C649.941 46.0212 732.257 52.1187 735.983 124.272V205.911C735.983 217.09 738.016 236.737 762.067 236.737V240.125H669.25V236.737C693.301 236.737 695.333 217.09 695.333 205.911V129.354C695.333 74.4761 625.551 62.6199 625.551 156.115V205.911C625.551 217.09 627.583 236.737 651.635 236.737V240.125H558.817V236.737C582.868 236.737 584.901 217.09 584.901 205.911V104.625C584.901 93.4461 582.868 73.7986 558.817 73.7986V70.4111H608.613ZM844.828 3V6.38749C820.776 6.38749 818.744 26.035 818.744 37.2137V60.5874H858.716V65.3299H818.744V170.342C818.744 212.008 836.359 233.688 853.974 233.688V240.125C817.728 240.125 781.82 218.783 778.094 176.778V65.3299H752.01V60.5874H778.094V19.9375C778.094 9.09749 784.191 3 795.031 3H844.828ZM1001.99 240.463V197.103C977.604 264.853 895.288 258.756 891.562 186.602V104.964C891.562 93.7848 889.529 74.1374 865.478 74.1374V70.7499H915.274C926.114 70.7499 932.212 76.8474 932.212 87.6873V181.521C932.212 236.398 1001.99 248.255 1001.99 154.76V104.964C1001.99 93.7848 999.962 74.1374 975.91 74.1374V70.7499H1025.71C1036.55 70.7499 1042.64 76.8474 1042.64 87.6873V206.25C1042.64 217.428 1044.68 237.076 1068.73 237.076V240.463H1001.99ZM1148.11 240.125C1108.82 237.753 1072.23 202.523 1072.23 152.727C1072.23 95.4786 1111.19 67.7011 1152.18 67.7011C1182.33 67.7011 1199.94 81.5899 1208.75 105.641V37.2137C1208.75 26.035 1206.72 6.38749 1182.67 6.38749V3H1232.46C1243.3 3 1249.4 9.09749 1249.4 19.9375V205.911C1249.4 217.09 1251.43 236.737 1275.48 236.737V240.125H1148.11ZM1208.75 152.727C1208.75 102.592 1193.85 74.1374 1151.5 73.7986C1124.06 74.1374 1112.88 104.625 1112.88 152.727C1112.88 195.41 1124.4 233.35 1152.18 233.35H1182.67C1206.72 233.35 1208.75 217.09 1208.75 205.911V152.727ZM1318.03 151.033V155.776C1318.03 170.003 1319.38 183.553 1322.09 195.071C1325.14 157.808 1366.81 142.226 1393.91 139.516C1390.86 102.254 1383.07 74.4761 1357.66 74.4761C1328.19 74.4761 1318.03 108.012 1318.03 151.033ZM1403.05 145.613C1373.58 145.613 1317.35 163.228 1331.58 217.428C1339.71 229.623 1351.56 236.737 1368.5 236.737C1397.63 236.737 1417.96 215.396 1425.75 185.247H1433.2C1423.04 219.122 1404.07 243.512 1361.39 243.512C1307.19 243.512 1275.68 204.217 1275.68 155.776V151.033C1275.68 104.286 1305.49 67.7011 1357.66 67.7011C1405.42 67.7011 1435.91 101.576 1435.91 145.613H1403.05Z"/>
</mask>
<path d="M53.1836 3C61.3136 3 67.0723 6.38749 69.1048 13.1625V9.775C69.1048 5.37125 71.4761 3 75.8798 3H181.57L193.087 71.7661H190.716C184.618 53.4737 160.228 9.775 133.128 9.775H96.2048C72.1536 9.775 70.1211 26.035 70.1211 37.2137V94.4623H111.11C122.288 94.4623 141.936 92.4298 141.936 68.3786H145.323V127.321H141.936C141.936 103.27 122.288 101.237 111.11 101.237H70.1211V205.911C70.1211 217.09 72.1536 236.737 96.2048 236.737V240.125H3.38745V236.737C27.4387 236.737 29.4712 217.09 29.4712 205.911V37.2137C29.4712 26.035 27.4387 6.38749 3.38745 6.38749V3H53.1836ZM249.685 70.4111C260.525 70.4111 266.622 76.5086 266.622 87.3486V113.771C291.69 44.3274 377.054 52.4574 377.054 129.354H336.405C336.405 74.4761 266.622 62.6199 266.622 156.115V205.911C266.622 217.09 268.655 236.737 292.706 236.737V240.125H199.889V236.737C223.94 236.737 225.972 217.09 225.972 205.911V104.625C225.972 93.4461 223.94 73.7986 199.889 73.7986V70.4111H249.685ZM469.522 243.512C415.323 243.512 383.819 204.217 383.819 155.776C383.819 106.996 415.323 67.7011 469.522 67.7011C523.722 67.7011 555.226 106.996 555.226 155.776C555.226 204.217 523.722 243.512 469.522 243.512ZM469.522 236.737C500.349 236.737 512.882 200.83 512.882 155.776C512.882 110.384 500.349 74.4761 469.522 74.4761C438.696 74.4761 426.162 110.384 426.162 155.776C426.162 200.83 438.696 236.737 469.522 236.737ZM608.613 70.4111C619.453 70.4111 625.551 76.5086 625.551 87.3486V113.771C649.941 46.0212 732.257 52.1187 735.983 124.272V205.911C735.983 217.09 738.016 236.737 762.067 236.737V240.125H669.25V236.737C693.301 236.737 695.333 217.09 695.333 205.911V129.354C695.333 74.4761 625.551 62.6199 625.551 156.115V205.911C625.551 217.09 627.583 236.737 651.635 236.737V240.125H558.817V236.737C582.868 236.737 584.901 217.09 584.901 205.911V104.625C584.901 93.4461 582.868 73.7986 558.817 73.7986V70.4111H608.613ZM844.828 3V6.38749C820.776 6.38749 818.744 26.035 818.744 37.2137V60.5874H858.716V65.3299H818.744V170.342C818.744 212.008 836.359 233.688 853.974 233.688V240.125C817.728 240.125 781.82 218.783 778.094 176.778V65.3299H752.01V60.5874H778.094V19.9375C778.094 9.09749 784.191 3 795.031 3H844.828ZM1001.99 240.463V197.103C977.604 264.853 895.288 258.756 891.562 186.602V104.964C891.562 93.7848 889.529 74.1374 865.478 74.1374V70.7499H915.274C926.114 70.7499 932.212 76.8474 932.212 87.6873V181.521C932.212 236.398 1001.99 248.255 1001.99 154.76V104.964C1001.99 93.7848 999.962 74.1374 975.91 74.1374V70.7499H1025.71C1036.55 70.7499 1042.64 76.8474 1042.64 87.6873V206.25C1042.64 217.428 1044.68 237.076 1068.73 237.076V240.463H1001.99ZM1148.11 240.125C1108.82 237.753 1072.23 202.523 1072.23 152.727C1072.23 95.4786 1111.19 67.7011 1152.18 67.7011C1182.33 67.7011 1199.94 81.5899 1208.75 105.641V37.2137C1208.75 26.035 1206.72 6.38749 1182.67 6.38749V3H1232.46C1243.3 3 1249.4 9.09749 1249.4 19.9375V205.911C1249.4 217.09 1251.43 236.737 1275.48 236.737V240.125H1148.11ZM1208.75 152.727C1208.75 102.592 1193.85 74.1374 1151.5 73.7986C1124.06 74.1374 1112.88 104.625 1112.88 152.727C1112.88 195.41 1124.4 233.35 1152.18 233.35H1182.67C1206.72 233.35 1208.75 217.09 1208.75 205.911V152.727ZM1318.03 151.033V155.776C1318.03 170.003 1319.38 183.553 1322.09 195.071C1325.14 157.808 1366.81 142.226 1393.91 139.516C1390.86 102.254 1383.07 74.4761 1357.66 74.4761C1328.19 74.4761 1318.03 108.012 1318.03 151.033ZM1403.05 145.613C1373.58 145.613 1317.35 163.228 1331.58 217.428C1339.71 229.623 1351.56 236.737 1368.5 236.737C1397.63 236.737 1417.96 215.396 1425.75 185.247H1433.2C1423.04 219.122 1404.07 243.512 1361.39 243.512C1307.19 243.512 1275.68 204.217 1275.68 155.776V151.033C1275.68 104.286 1305.49 67.7011 1357.66 67.7011C1405.42 67.7011 1435.91 101.576 1435.91 145.613H1403.05Z" stroke="white" stroke-width="5.22686" mask="url(#path-1-outside-1_78_15)"/>
</svg>
