<svg width="1439" height="210" viewBox="0 0 1439 210" fill="none" xmlns="http://www.w3.org/2000/svg">
<mask id="path-1-outside-1_77_4" maskUnits="userSpaceOnUse" x="0" y="0" width="1442" height="215" fill="black">
<rect fill="white" width="1442" height="215"/>
<path d="M3 212V3H123.94V32.5785H153.77V65.0824H120.698V35.8289H35.7479V91.4106H94.7589V123.589H35.7479V212H3ZM160.685 212V91.4106H190.191V61.832H281.625V91.4106H311.455V123.589H278.383V94.3359H193.433V212H160.685ZM370.357 212V182.746H340.852V91.4106H370.357V61.832H461.792V91.4106H491.622V182.746H461.792V212H370.357ZM373.6 179.496H458.55V94.3359H373.6V179.496ZM530.834 212V61.832H651.774V91.4106H681.604V212H648.532V94.3359H563.582V212H530.834ZM766.521 212V182.746H737.34V94.3359H707.834V61.832H737.34V3H769.763V61.832H858.604V94.3359H769.763V179.496H855.362V149.918H888.11V182.746H858.604V212H766.521ZM950.436 212V182.746H920.931V61.832H953.679V179.496H1038.63V61.832H1071.7V182.746H1041.87V212H950.436ZM1134.09 212V182.746H1104.58V91.4106H1134.09V61.832H1222.6V3H1255.35V182.746H1225.52V212H1134.09ZM1137.33 179.496H1222.28V94.3359H1137.33V179.496ZM1317.74 212V182.746H1288.23V91.4106H1317.74V61.832H1409.17V91.4106H1439V123.589H1405.93V94.3359H1320.98V120.339H1379.99V153.168H1320.98V179.496H1405.93V149.593H1439V182.421H1409.17V212H1317.74Z"/>
</mask>
<path d="M3 212V3H123.94V32.5785H153.77V65.0824H120.698V35.8289H35.7479V91.4106H94.7589V123.589H35.7479V212H3ZM160.685 212V91.4106H190.191V61.832H281.625V91.4106H311.455V123.589H278.383V94.3359H193.433V212H160.685ZM370.357 212V182.746H340.852V91.4106H370.357V61.832H461.792V91.4106H491.622V182.746H461.792V212H370.357ZM373.6 179.496H458.55V94.3359H373.6V179.496ZM530.834 212V61.832H651.774V91.4106H681.604V212H648.532V94.3359H563.582V212H530.834ZM766.521 212V182.746H737.34V94.3359H707.834V61.832H737.34V3H769.763V61.832H858.604V94.3359H769.763V179.496H855.362V149.918H888.11V182.746H858.604V212H766.521ZM950.436 212V182.746H920.931V61.832H953.679V179.496H1038.63V61.832H1071.7V182.746H1041.87V212H950.436ZM1134.09 212V182.746H1104.58V91.4106H1134.09V61.832H1222.6V3H1255.35V182.746H1225.52V212H1134.09ZM1137.33 179.496H1222.28V94.3359H1137.33V179.496ZM1317.74 212V182.746H1288.23V91.4106H1317.74V61.832H1409.17V91.4106H1439V123.589H1405.93V94.3359H1320.98V120.339H1379.99V153.168H1320.98V179.496H1405.93V149.593H1439V182.421H1409.17V212H1317.74Z" stroke="white" stroke-width="4.10938" mask="url(#path-1-outside-1_77_4)"/>
</svg>
