<svg width="82" height="20" viewBox="0 0 82 20" fill="none" xmlns="http://www.w3.org/2000/svg">
<g clip-path="url(#clip0_3373_8835)">
<g clip-path="url(#clip1_3373_8835)">
<path d="M24.9297 14.2017H30.6211V12.4874H26.9525V6.03027H24.9297V14.2017ZM33.9925 13.0588C33.1816 13.0588 32.7587 12.3503 32.7587 11.2874C32.7587 10.2246 33.1816 9.50456 33.993 9.50456C34.8044 9.50456 35.2387 10.2246 35.2387 11.2874C35.2387 12.3503 34.804 13.0588 33.9925 13.0588ZM34.0044 14.3846C35.8902 14.3846 37.1244 13.0474 37.1244 11.2874C37.1244 9.52742 35.8902 8.19027 34.0044 8.19027C32.1302 8.19027 30.873 9.52742 30.873 11.2874C30.873 13.0474 32.1302 14.3846 34.0044 14.3846ZM40.3883 16.2246C41.2568 16.2246 42.0225 16.0303 42.5368 15.5731C43.0054 15.1503 43.314 14.5103 43.314 13.6303V8.35027H41.5311V8.97884H41.5083C41.1654 8.48742 40.6397 8.17884 39.8625 8.17884C38.4111 8.17884 37.4054 9.39027 37.4054 11.1046C37.4054 12.8988 38.6283 13.8817 39.9425 13.8817C40.6511 13.8817 41.0968 13.596 41.4397 13.2074H41.4854V13.7903C41.4854 14.4988 41.154 14.9103 40.3654 14.9103C39.7483 14.9103 39.4397 14.6474 39.3368 14.3388H37.5311C37.714 15.5617 38.7768 16.2246 40.3883 16.2246ZM40.3768 12.4988C39.6797 12.4988 39.2225 11.9274 39.2225 11.0474C39.2225 10.156 39.6797 9.58456 40.3768 9.58456C41.154 9.58456 41.5654 10.2474 41.5654 11.036C41.5654 11.8588 41.1883 12.4988 40.3768 12.4988ZM46.9797 13.0588C46.1683 13.0588 45.7454 12.3503 45.7454 11.2874C45.7454 10.2246 46.1683 9.50456 46.9797 9.50456C47.7911 9.50456 48.2254 10.2246 48.2254 11.2874C48.2254 12.3503 47.7911 13.0588 46.9797 13.0588ZM46.9911 14.3846C48.8768 14.3846 50.1111 13.0474 50.1111 11.2874C50.1111 9.52742 48.8768 8.19027 46.9911 8.19027C45.1168 8.19027 43.8597 9.52742 43.8597 11.2874C43.8597 13.0474 45.1168 14.3846 46.9911 14.3846ZM50.6554 14.2017H52.5183V8.35027H50.6554V14.2017ZM50.6554 7.53884H52.5183V6.03027H50.6554V7.53884ZM53.3264 16.1336H55.1892V13.5955H55.2121C55.5778 14.0869 56.1149 14.3841 56.8692 14.3841C58.4006 14.3841 59.4178 13.1727 59.4178 11.2755C59.4178 9.51551 58.4692 8.17837 56.9149 8.17837C56.1149 8.17837 55.5435 8.53265 55.1435 9.05837H55.1092V8.3498H53.3264V16.1336ZM56.3892 12.9446C55.5892 12.9446 55.1321 12.2931 55.1321 11.3446C55.1321 10.396 55.5435 9.67599 56.3549 9.67599C57.1549 9.67599 57.5321 10.3388 57.5321 11.3446C57.5321 12.3388 57.0978 12.9446 56.3892 12.9446ZM62.4506 14.3846C63.9821 14.3846 65.1135 13.7217 65.1135 12.4417C65.1135 10.9446 63.9021 10.6817 62.8735 10.5103C62.1306 10.3731 61.4678 10.316 61.4678 9.90456C61.4678 9.53884 61.8221 9.36742 62.2792 9.36742C62.7935 9.36742 63.1478 9.52742 63.2163 10.0531H64.9306C64.8392 8.89884 63.9478 8.17884 62.2906 8.17884C60.9078 8.17884 59.7649 8.81884 59.7649 10.0531C59.7649 11.4246 60.8506 11.6988 61.8678 11.8703C62.6449 12.0074 63.3535 12.0646 63.3535 12.5903C63.3535 12.9674 62.9992 13.1731 62.4392 13.1731C61.8221 13.1731 61.4335 12.8874 61.3649 12.3046H59.6049C59.6621 13.596 60.7364 14.3846 62.4506 14.3846ZM67.644 14.3731C68.4554 14.3731 68.9697 14.0531 69.3925 13.4817H69.4268V14.2017H71.2097V8.35027H69.3468V11.6193C69.3468 12.3165 68.9583 12.7965 68.3183 12.7965C67.724 12.7965 67.4383 12.4422 67.4383 11.8022V8.35075H65.5868V12.1907C65.5868 13.4936 66.2954 14.3731 67.644 14.3731ZM72.0202 14.2017H73.883V10.9217C73.883 10.2246 74.2259 9.73313 74.8087 9.73313C75.3687 9.73313 75.6316 10.0988 75.6316 10.7274V14.2017H77.4944V10.9217C77.4944 10.2246 77.8259 9.73313 78.4202 9.73313C78.9802 9.73313 79.243 10.0988 79.243 10.7274V14.2017H81.1059V10.396C81.1059 9.0817 80.443 8.17884 79.1173 8.17884C78.363 8.17884 77.7344 8.49884 77.2773 9.20742H77.2544C76.9573 8.57884 76.3744 8.17884 75.6087 8.17884C74.763 8.17884 74.203 8.57885 73.8373 9.18456H73.803V8.35027H72.0202V14.2017Z" fill="white"/>
<path d="M0.5625 9.9159C0.5625 4.65638 4.82679 0.39209 10.0863 0.39209C15.3463 0.39209 19.6101 4.65638 19.6101 9.9159C19.6101 15.1759 15.3463 19.4397 10.0863 19.4397C4.82679 19.4397 0.5625 15.1759 0.5625 9.9159ZM11.5563 7.75066C12.1511 7.1559 12.3292 6.26161 12.0073 5.48495C11.6858 4.7078 10.9277 4.20114 10.0863 4.20114C9.24536 4.20114 8.48726 4.7078 8.16583 5.48495C7.84393 6.26161 8.02202 7.1559 8.61679 7.75066L10.0863 9.22066L11.5563 7.75066ZM12.2515 11.3859C12.8463 11.9807 13.7406 12.1583 14.5173 11.8369C15.2944 11.5149 15.8006 10.7569 15.8006 9.9159C15.8006 9.07495 15.2944 8.31685 14.5173 7.99495C13.7406 7.67352 12.8463 7.85114 12.2515 8.4459L10.782 9.9159L12.2515 11.3859ZM11.5563 15.0216C12.3682 14.2097 12.3682 12.8935 11.5563 12.0816L10.0863 10.6116L8.61679 12.0816C7.82917 12.8973 7.8406 14.194 8.64202 14.9959C9.44393 15.7978 10.7406 15.8092 11.5563 15.0216ZM7.92107 11.3859L9.39107 9.9159L7.92107 8.4459C7.10631 7.65066 5.80393 7.65876 4.99869 8.46352C4.19393 9.26876 4.18583 10.5711 4.98107 11.3859C5.79298 12.1978 7.10917 12.1978 7.92107 11.3859Z" fill="white"/>
</g>
</g>
<defs>
<clipPath id="clip0_3373_8835">
<rect width="81.4286" height="20" fill="white" transform="translate(0.273438)"/>
</clipPath>
<clipPath id="clip1_3373_8835">
<rect width="81.4286" height="20" fill="white" transform="translate(0.273438)"/>
</clipPath>
</defs>
</svg>
