<svg width="52" height="20" viewBox="0 0 52 20" fill="none" xmlns="http://www.w3.org/2000/svg">
<path d="M12.2948 0.0001227C10.2722 0.0001227 8.33168 0.806641 6.90147 2.24269L2.23408 6.92919C0.803864 8.36471 0.000529904 10.3116 0 12.3422C0 16.5724 3.4147 19.9999 7.62691 19.9999C9.64955 19.9999 11.5895 19.1934 13.0203 17.7573L16.249 14.5159L25.6564 5.07133C26.5519 4.17155 27.8491 3.8038 29.0811 4.10001C30.3132 4.3957 31.3035 5.3135 31.6962 6.52275L34.6653 3.54202C33.2653 1.33496 30.8388 -0.000937114 28.2322 0.0001227C26.2096 0.0001227 24.2691 0.806641 22.8389 2.24269L10.2028 14.9292C8.77998 16.3573 6.47384 16.3573 5.05104 14.9287C3.62878 13.5006 3.62878 11.1854 5.05157 9.7573L9.71897 5.0708C10.6145 4.17102 11.9117 3.80327 13.1437 4.09948C14.3758 4.3957 15.3662 5.3135 15.7588 6.52275L18.7279 3.54255C17.3279 1.33549 14.9014 -0.000937114 12.2948 0.0001227Z" fill="white"/>
<path d="M26.1412 14.9288C25.2456 15.8286 23.949 16.1963 22.7169 15.9006C21.4844 15.6044 20.494 14.6871 20.1013 13.4779L17.1328 16.4581C18.5328 18.6652 20.9587 20.0011 23.5653 20C25.588 20 27.5279 19.1935 28.9587 17.7574L41.5948 5.07093C43.0176 3.64283 45.3237 3.64283 46.7465 5.07093C48.1688 6.49955 48.1688 8.81472 46.746 10.2428L42.0786 14.9293C41.1825 15.8291 39.8858 16.1969 38.6538 15.9006C37.4212 15.6044 36.4314 14.6866 36.0387 13.4774L33.0697 16.4581C34.4697 18.6652 36.8961 20.0016 39.5022 20C41.5254 20 43.4653 19.1935 44.8961 17.7574L49.5635 13.0709C50.9937 11.6349 51.797 9.68801 51.7975 7.6574C51.7975 3.42768 48.3828 0.000244141 44.1706 0.000244141C42.148 0.000244141 40.2075 0.806763 38.7773 2.24281L26.1412 14.9288Z" fill="white"/>
</svg>
