<svg width="83" height="20" viewBox="0 0 83 20" fill="none" xmlns="http://www.w3.org/2000/svg">
<path d="M24.36 14.1229H30.1902V12.3668H26.4322V5.75215H24.36V14.1229ZM33.6439 12.9521C32.8131 12.9521 32.38 12.2263 32.38 11.1375C32.38 10.0487 32.8131 9.31117 33.6444 9.31117C34.4756 9.31117 34.9205 10.0487 34.9205 11.1375C34.9205 12.2263 34.4751 12.9521 33.6439 12.9521ZM33.6561 14.3102C35.5878 14.3102 36.8522 12.9404 36.8522 11.1375C36.8522 9.33459 35.5878 7.96483 33.6561 7.96483C31.7361 7.96483 30.4483 9.33459 30.4483 11.1375C30.4483 12.9404 31.7361 14.3102 33.6561 14.3102ZM40.1956 16.1951C41.0853 16.1951 41.8697 15.996 42.3966 15.5278C42.8766 15.0946 43.1927 14.439 43.1927 13.5375V8.12873H41.3663V8.77263H41.3429C40.9917 8.26922 40.4531 7.95312 39.6571 7.95312C38.1702 7.95312 37.14 9.1941 37.14 10.9502C37.14 12.7882 38.3927 13.7951 39.739 13.7951C40.4649 13.7951 40.9214 13.5024 41.2727 13.1043H41.3195V13.7014C41.3195 14.4273 40.98 14.8487 40.1722 14.8487C39.54 14.8487 39.2239 14.5795 39.1185 14.2634H37.2688C37.4561 15.516 38.5449 16.1951 40.1956 16.1951ZM40.1839 12.3785C39.4697 12.3785 39.0014 11.7931 39.0014 10.8917C39.0014 9.97849 39.4697 9.39312 40.1839 9.39312C40.98 9.39312 41.4014 10.0721 41.4014 10.88C41.4014 11.7229 41.0151 12.3785 40.1839 12.3785ZM46.9483 12.9521C46.1166 12.9521 45.6834 12.2263 45.6834 11.1375C45.6834 10.0487 46.1166 9.31117 46.9483 9.31117C47.779 9.31117 48.2239 10.0487 48.2239 11.1375C48.2239 12.2263 47.779 12.9521 46.9483 12.9521ZM46.9595 14.3102C48.8912 14.3102 50.1556 12.9404 50.1556 11.1375C50.1556 9.33459 48.8912 7.96483 46.9595 7.96483C45.0395 7.96483 43.7517 9.33459 43.7517 11.1375C43.7517 12.9404 45.0395 14.3102 46.9595 14.3102ZM50.7131 14.1229H52.6214V8.12873H50.7131V14.1229ZM50.7131 7.29751H52.6214V5.75215H50.7131V7.29751ZM53.4492 16.1014H55.3575V13.5024H55.381C55.7556 14.0058 56.3058 14.3102 57.0785 14.3102C58.6473 14.3102 59.6892 13.0692 59.6892 11.1258C59.6892 9.32288 58.7175 7.95312 57.1253 7.95312C56.3058 7.95312 55.7205 8.31605 55.3107 8.85459H55.2756V8.12873H53.4492V16.1014ZM56.5868 12.8351C55.7673 12.8351 55.299 12.1678 55.299 11.196C55.299 10.2243 55.7205 9.48678 56.5517 9.48678C57.3712 9.48678 57.7575 10.1658 57.7575 11.196C57.7575 12.2146 57.3127 12.8351 56.5868 12.8351ZM62.7961 14.3102C64.3649 14.3102 65.5239 13.6312 65.5239 12.32C65.5239 10.7863 64.2829 10.517 63.2292 10.3414C62.4683 10.2009 61.7892 10.1424 61.7892 9.72093C61.7892 9.34629 62.1522 9.17068 62.6205 9.17068C63.1473 9.17068 63.5102 9.33458 63.5805 9.87312H65.3366C65.2429 8.69068 64.3297 7.95312 62.6322 7.95312C61.2156 7.95312 60.0449 8.60873 60.0449 9.87312C60.0449 11.278 61.1571 11.559 62.199 11.7346C62.9951 11.8751 63.721 11.9336 63.721 12.4721C63.721 12.8585 63.358 13.0692 62.7844 13.0692C62.1522 13.0692 61.7541 12.7765 61.6839 12.1795H59.881C59.9395 13.5024 61.04 14.3102 62.7961 14.3102ZM68.1161 14.2985C68.9473 14.2985 69.4741 13.9707 69.9073 13.3853H69.9424V14.1229H71.7688V8.12873H69.8605V11.477C69.8605 12.1912 69.4624 12.6829 68.8068 12.6829C68.198 12.6829 67.9053 12.32 67.9053 11.6643V8.12873H66.0088V12.0624C66.0088 13.397 66.7346 14.2985 68.1161 14.2985ZM72.599 14.1229H74.5073V10.7629C74.5073 10.0487 74.8585 9.54532 75.4556 9.54532C76.0292 9.54532 76.2985 9.91995 76.2985 10.5639V14.1229H78.2068V10.7629C78.2068 10.0487 78.5463 9.54532 79.1551 9.54532C79.7288 9.54532 79.998 9.91995 79.998 10.5639V14.1229H81.9063V10.2243C81.9063 8.878 81.2273 7.95312 79.8692 7.95312C79.0966 7.95312 78.4527 8.28093 77.9844 9.00678H77.961C77.6566 8.36288 77.0595 7.95312 76.2751 7.95312C75.4088 7.95312 74.8351 8.36288 74.4605 8.98337H74.4253V8.12873H72.599V14.1229ZM12.7171 0.964342L10.7985 0.450195L9.18193 6.48434L7.72193 1.03654L5.80339 1.55117L7.38047 7.43702L3.45217 3.50873L2.04778 4.91361L6.35656 9.2219L0.990709 7.78385L0.476562 9.70239L6.33949 11.2731C5.96973 9.67898 6.6151 8.02093 7.96583 7.09654C9.31656 6.17215 11.0961 6.17117 12.4483 7.09361C13.8 8.01556 14.4483 9.67312 14.0805 11.2678L19.4088 12.6951L19.9224 10.7765L14.0366 9.19946L19.4024 7.76141L18.8888 5.84288L13.0029 7.41995L16.9307 3.49215L15.5263 2.08727L11.2775 6.33605L12.7171 0.964342Z" fill="white"/>
<path d="M14.0785 11.2895C13.9166 11.9734 13.5751 12.6017 13.0902 13.1105L16.9502 16.9705L18.3551 15.5656L14.0785 11.2895ZM13.0512 13.151C12.5624 13.651 11.9498 14.013 11.2761 14.2003L12.681 19.4422L14.5995 18.9281L13.0512 13.151ZM11.2049 14.2193C10.8805 14.3027 10.5473 14.3447 10.2127 14.3442C9.85463 14.3447 9.49854 14.2964 9.15317 14.2013L7.74732 19.4486L9.66585 19.9627L11.2049 14.2193ZM9.08537 14.1822C8.42098 13.9852 7.82 13.6178 7.34146 13.1169L3.4722 16.9866L4.87659 18.3915L9.08537 14.1822ZM7.30927 13.0827C6.83659 12.5778 6.50439 11.9578 6.34585 11.2847L1 12.7169L1.51415 14.6354L7.30927 13.0827Z" fill="white"/>
</svg>
