<svg width="86" height="20" viewBox="0 0 86 20" fill="none" xmlns="http://www.w3.org/2000/svg">
<path d="M5.81606 1.25V20.0001H0.796875V1.25H5.81606ZM8.32597 1.25H18.9921C22.4566 1.25 25.2656 4.04819 25.2656 7.49981C25.2656 10.9521 22.4566 13.7496 18.9921 13.7496H13.3452V20.0001H8.32597V1.25ZM13.3452 8.75028H18.9921C19.684 8.75028 20.2458 8.19102 20.2465 7.49981C20.2465 6.80987 19.6853 6.24997 18.9921 6.24997H13.3452V8.75028ZM44.0881 1.25V10.9373C44.0881 13.1807 45.9138 15.0001 48.1662 15.0001C50.4186 15.0001 52.2443 13.1807 52.2443 10.9373V1.25H57.2635V10.9373C57.2635 15.9424 53.1905 20.0001 48.1662 20.0001C43.1419 20.0001 39.0689 15.9424 39.0689 10.9373V1.25H44.0881Z" fill="white"/>
<path d="M27.1487 10.0001C27.1487 5.16734 31.0808 1.25 35.9321 1.25H37.1865V6.24997H35.9321C33.8527 6.24997 32.1679 7.92901 32.1679 10.0001V10.6247C32.1679 15.8021 27.954 20.0001 22.7567 20.0001H22.1289V15.0001H22.7567C25.1821 15.0001 27.1487 13.0411 27.1487 10.6247V10.0001Z" fill="white"/>
<path d="M85.4965 1.87507C85.4958 2.37283 85.2973 2.84944 84.9443 3.20114C84.5913 3.55283 84.1128 3.75014 83.6137 3.75014C83.1147 3.75014 82.6362 3.55283 82.2838 3.20114C81.9308 2.84944 81.7323 2.37283 81.7316 1.87507C81.7323 1.37732 81.9308 0.900061 82.2838 0.548365C82.6362 0.196669 83.1147 -0.000639056 83.6137 1.55507e-06C84.1128 -0.000639056 84.5913 0.196669 84.9443 0.548365C85.2973 0.900061 85.4958 1.37732 85.4965 1.87507ZM62.6523 19.9999L65.0475 10.0089L66.8285 16.0191C67.8899 19.604 72.9873 19.604 74.0494 16.0191L75.8297 10.0096L78.2243 19.9999H83.385L79.6189 4.29018C78.7233 0.55349 73.4383 0.415118 72.3467 4.09927L70.4389 10.5413L68.5299 4.09991C67.439 0.415758 62.1539 0.554131 61.2577 4.29018L57.4922 19.9999H62.6523Z" fill="white"/>
</svg>
