<svg width="40" height="20" viewBox="0 0 40 20" fill="none" xmlns="http://www.w3.org/2000/svg">
<path d="M1.6875 11.5452H2.77652V16.8875H1.6875V11.5452ZM3.40789 15.0569C3.40632 14.2722 3.8777 13.5636 4.60201 13.2624C5.32632 12.9609 6.16083 13.1259 6.71574 13.6805C7.27103 14.2346 7.4377 15.0691 7.1377 15.7946C6.83809 16.5197 6.13103 16.9926 5.34632 16.9926C4.83103 16.9989 4.33495 16.7969 3.97025 16.4326C3.60554 16.0687 3.40279 15.5726 3.40789 15.0569ZM6.18828 15.0569C6.17613 14.595 5.79417 14.2287 5.33221 14.2365C4.87025 14.2448 4.50123 14.6236 4.50515 15.086C4.50907 15.5483 4.88436 15.9212 5.34632 15.9212C5.57534 15.9275 5.79691 15.8381 5.95691 15.6738C6.11652 15.5095 6.20083 15.286 6.18828 15.0569Z" fill="white"/>
<path d="M11.6628 13.2266V16.7058C11.6628 17.9368 10.7008 18.456 9.72786 18.456C9.03061 18.5078 8.36237 18.1662 7.99649 17.5698L8.93296 17.029C9.08472 17.3356 9.40865 17.5184 9.74982 17.4902C9.97178 17.5274 10.1988 17.4592 10.3639 17.3055C10.5286 17.1517 10.613 16.9302 10.5914 16.7058V16.3682C10.3318 16.6874 9.9357 16.8643 9.52472 16.8439C8.49845 16.8439 7.66629 16.0113 7.66629 14.9843C7.66629 13.9572 8.49845 13.1247 9.52472 13.1247C9.9357 13.1058 10.331 13.2823 10.5918 13.6004V13.2372L11.6628 13.2266ZM10.5918 14.9843C10.6067 14.6227 10.4004 14.289 10.071 14.1404C9.74159 13.9917 9.35492 14.058 9.09374 14.3086C8.83296 14.5588 8.75061 14.9427 8.88512 15.2784C9.01963 15.6137 9.34472 15.8341 9.70629 15.8341C9.93963 15.8505 10.1686 15.7678 10.3377 15.6058C10.5063 15.4439 10.5984 15.218 10.5918 14.9843ZM12.2906 15.0568C12.289 14.2721 12.7604 13.5635 13.4843 13.2623C14.2086 12.9607 15.0432 13.1258 15.5984 13.6804C16.1534 14.2345 16.32 15.069 16.0204 15.7945C15.7204 16.5196 15.0134 16.9925 14.229 16.9925C13.7137 16.9988 13.2177 16.7968 12.853 16.4325C12.4883 16.0682 12.2855 15.5725 12.2906 15.0568ZM15.071 15.0568C15.0592 14.5945 14.6773 14.2282 14.2149 14.236C13.7526 14.2435 13.3832 14.6227 13.3871 15.0855C13.391 15.5478 13.7667 15.9211 14.229 15.9211C14.4569 15.9255 14.6761 15.8349 14.8345 15.6709C14.993 15.507 15.0761 15.2847 15.0639 15.0568H15.071ZM16.6718 12.2458C16.6718 11.8807 16.9675 11.5847 17.3326 11.5847C17.6977 11.5847 17.9934 11.8807 17.9934 12.2458C17.9934 12.6109 17.6977 12.907 17.3326 12.907C16.9683 12.9051 16.6737 12.6102 16.6718 12.2458ZM16.7843 13.2266H17.8734V16.8874H16.7843V13.2266ZM22.6212 15.0568C22.6475 15.5455 22.4781 16.0247 22.1502 16.3882C21.8228 16.7513 21.3635 16.969 20.8749 16.9925C20.4639 17.0125 20.0651 16.849 19.7863 16.5462V18.3619H18.6973V13.227H19.7863V13.5717C20.0651 13.269 20.4639 13.1055 20.8749 13.1251C21.3632 13.1482 21.8216 13.3655 22.1494 13.7282C22.4773 14.0905 22.6467 14.5686 22.6212 15.0568ZM21.5322 15.0568C21.52 14.5815 21.129 14.2035 20.6537 14.2074C20.1784 14.2117 19.7941 14.596 19.7902 15.0717C19.7863 15.5474 20.1639 15.9384 20.6392 15.9502C20.8796 15.9655 21.1149 15.876 21.2847 15.7051C21.4545 15.5337 21.542 15.2976 21.5247 15.0568H21.5322ZM26.0114 15.7902C26.0114 16.6329 25.2851 16.9925 24.4867 16.9925C23.8341 17.0505 23.2122 16.7055 22.9149 16.1211L23.8659 15.58C23.9455 15.8521 24.2039 16.0321 24.4867 16.0117C24.7522 16.0117 24.8828 15.9286 24.8828 15.7831C24.8828 15.38 23.0679 15.5945 23.0679 14.3302C23.0679 13.5313 23.7428 13.1282 24.5196 13.1282C25.1032 13.1106 25.6506 13.4105 25.9494 13.9125L24.9949 14.4137C24.9086 14.218 24.7153 14.0913 24.5016 14.0905C24.3126 14.0905 24.1961 14.1635 24.1961 14.2976C24.211 14.7153 26.0114 14.4356 26.0114 15.7902ZM30.0184 13.2266V16.8874H28.9298V16.5462C28.6726 16.8537 28.2839 17.02 27.8839 16.9925C27.1584 16.9925 26.5157 16.4658 26.5157 15.4745V13.2266H27.6047V15.3149C27.5855 15.4953 27.6483 15.6745 27.7757 15.8035C27.9032 15.9325 28.0816 15.9972 28.262 15.9796C28.6608 15.9796 28.9408 15.747 28.9408 15.2278V13.2266H30.0184ZM36.3126 14.6427V16.8874H35.2239V14.7372C35.2239 14.3741 35.0463 14.1341 34.6977 14.1341C34.3494 14.1341 34.1243 14.3917 34.1243 14.8247V16.8874H33.0353V14.7372C33.0353 14.3741 32.8612 14.1341 32.5086 14.1341C32.1569 14.1341 31.9392 14.3917 31.9392 14.8247V16.8874H30.8506V13.227H31.9392V13.5647C32.1702 13.2611 32.5392 13.0956 32.9192 13.1251C33.3012 13.1062 33.6651 13.2898 33.8777 13.6082C34.1243 13.2756 34.5247 13.0933 34.9373 13.1251C35.7647 13.1251 36.3134 13.7282 36.3134 14.6431L36.3126 14.6427ZM37.242 13.2047C37.691 13.2047 38.0549 12.8404 38.0549 12.3909C38.0549 11.9419 37.691 11.5776 37.242 11.5776C36.793 11.5776 36.429 11.9419 36.429 12.3909C36.429 12.8404 36.793 13.2047 37.242 13.2047ZM14.011 8.77329C16.1141 8.77329 17.8188 7.0682 17.8188 4.96388C17.8188 2.85957 16.1141 1.15369 14.011 1.15369C11.9083 1.15369 10.2035 2.85957 10.2035 4.96388C10.2035 7.0678 11.9079 8.77329 14.011 8.77329ZM22.5232 8.77329C24.6259 8.77329 26.3306 7.0682 26.3306 4.96388C26.3306 2.85957 24.6259 1.15369 22.5232 1.15369C20.4204 1.15369 18.7153 2.85957 18.7153 4.96388C18.7153 7.0678 20.42 8.77329 22.5232 8.77329ZM9.30668 1.15369H1.69531V8.76977H9.30668V1.15369Z" fill="white"/>
</svg>
