<svg width="89" height="20" viewBox="0 0 89 20" fill="none" xmlns="http://www.w3.org/2000/svg">
<path d="M13.661 14.0003V18.9998H8.1788C4.05022 18.9998 0.703125 15.6422 0.703125 11.4999V0H5.68711V11.4999C5.68711 12.8809 6.80281 14.0003 8.1788 14.0003H13.661ZM23.1301 5.00016C20.6527 5.00016 18.6444 7.01475 18.6444 9.50023C18.6444 11.9851 20.6527 14.0003 23.1301 14.0003C25.6069 14.0003 27.6153 11.9851 27.6153 9.50023C27.6153 7.01475 25.6069 5.00016 23.1301 5.00016ZM13.661 9.50023C13.661 4.25346 17.9008 0 23.1301 0C28.3595 0 32.5993 4.25346 32.5993 9.50023C32.5993 14.7464 28.3595 18.9998 23.1301 18.9998C17.9008 18.9998 13.661 14.7464 13.661 9.50023ZM76.9545 5.00016C74.4771 5.00016 72.4687 7.01475 72.4687 9.50023C72.4687 11.9851 74.4771 14.0003 76.9545 14.0003C79.4312 14.0003 81.4396 11.9851 81.4396 9.50023C81.4396 7.01475 79.4312 5.00016 76.9545 5.00016ZM67.4853 9.50023C67.4853 4.25346 71.7251 0 76.9545 0C82.1838 0 86.4236 4.25346 86.4236 9.50023C86.4236 14.7464 82.1838 18.9998 76.9545 18.9998C71.7251 18.9998 67.4853 14.7464 67.4853 9.50023ZM57.0191 0C62.2485 0 66.4883 4.25346 66.4883 9.50023V10.1308C66.4883 11.6888 66.1062 13.2232 65.3763 14.5979L62.5013 20L59.837 18.5718C58.9474 18.8501 58.0007 18.9998 57.0191 18.9998H43.0648C37.8355 18.9998 33.5957 14.7464 33.5957 9.50023C33.5957 4.25346 37.8355 0 43.0648 0H57.0191ZM61.5049 9.50023C61.5049 7.01475 59.4965 5.00016 57.0191 5.00016H43.0648C40.5875 5.00016 38.5797 7.01475 38.5797 9.50023C38.5797 11.9851 40.5875 14.0003 43.0648 14.0003H57.0191C59.4835 14.0009 61.4863 12.0068 61.5049 9.53502V9.50023Z" fill="white"/>
<path d="M88.4173 1.25C88.4304 1.70473 88.1955 2.13088 87.8048 2.36197C87.4147 2.59368 86.9295 2.59368 86.5388 2.36259C86.148 2.1315 85.9138 1.70535 85.9263 1.25062C85.9455 0.574115 86.4971 0.0361437 87.1718 0.0355225C87.8458 0.0355225 88.3981 0.573494 88.4173 1.25Z" fill="white"/>
</svg>
