<?xml version="1.0" encoding="UTF-8"?>
<svg version="1.1" xmlns="http://www.w3.org/2000/svg" width="1322" height="455">
<path d="M0 0 C2.42215683 2.25347091 4.15316524 4.16724787 6 6.9375 C6.66 6.9375 7.32 6.9375 8 6.9375 C8.59554687 6.18726563 9.19109375 5.43703125 9.8046875 4.6640625 C16.45611298 -3.59696061 26.52229713 -6.81241699 36.5625 -8.75 C49.43184172 -9.91994016 60.9715402 -8.2402406 72 -1.0625 C82.34003706 7.73680306 86.39487995 20.26640697 87.79708862 33.37911987 C88.15962787 37.95014602 88.12175194 42.51493751 88.09765625 47.09765625 C88.09553383 48.64337563 88.09553383 48.64337563 88.09336853 50.22032166 C88.08781447 53.48024519 88.0752707 56.74009757 88.0625 60 C88.05747906 62.22330629 88.05291719 64.44661367 88.04882812 66.66992188 C88.03786013 72.09247493 88.02062762 77.51497544 88 82.9375 C92.29 82.9375 96.58 82.9375 101 82.9375 C101 93.4975 101 104.0575 101 114.9375 C80.21 114.9375 59.42 114.9375 38 114.9375 C37.96261719 109.30429687 37.92523437 103.67109375 37.88671875 97.8671875 C37.85643566 94.29424048 37.82528561 90.72134307 37.79101562 87.1484375 C37.73672705 81.47984334 37.68561559 75.81134732 37.65356445 70.14257812 C37.62751717 65.57125443 37.58710463 61.00026101 37.53681374 56.429142 C37.52015467 54.6869226 37.50863441 52.94464609 37.50238609 51.20235825 C37.49273446 48.75809014 37.46466334 46.3146651 37.43237305 43.87060547 C37.43380814 43.15346878 37.43524323 42.43633209 37.4367218 41.69746399 C37.35043814 37.06631854 36.47479417 33.85606245 34 29.9375 C30.12463781 27.35392521 27.43412942 27.62395517 22.91596985 28.20594788 C20.86979853 28.76316176 20.86979853 28.76316176 19.97111511 30.62693787 C18.06932071 36.70625403 17.53155563 42.30864396 17.48828125 48.66015625 C17.46135445 50.13928749 17.46135445 50.13928749 17.43388367 51.64830017 C17.38015472 54.7654913 17.3460056 57.88253264 17.3125 61 C17.27929387 63.1269738 17.24480121 65.25392793 17.20898438 67.38085938 C17.12444998 72.5662975 17.05746133 77.75169409 17 82.9375 C21.29 82.9375 25.58 82.9375 30 82.9375 C30 93.4975 30 104.0575 30 114.9375 C9.54 114.9375 -10.92 114.9375 -32 114.9375 C-32.02578125 109.3996875 -32.0515625 103.861875 -32.078125 98.15625 C-32.10330568 94.63797519 -32.12964789 91.11978531 -32.16015625 87.6015625 C-32.20841988 82.02310923 -32.25249131 76.44485265 -32.27099609 70.86621094 C-32.28619315 66.36612991 -32.32069245 61.86656511 -32.36830902 57.36671448 C-32.38309147 55.6540629 -32.39103921 53.9413376 -32.39188385 52.22862244 C-32.16869938 39.94943698 -32.16869938 39.94943698 -37 28.9375 C-39.84083641 27.51708179 -41.85477278 27.62297728 -45 27.9375 C-49.02263792 30.73099855 -50.09931724 34.30732098 -51 38.9375 C-51.3115246 42.37297667 -51.37106395 45.79794369 -51.4140625 49.24609375 C-51.43342865 50.21281509 -51.4527948 51.17953644 -51.4727478 52.17555237 C-51.53219191 55.24194713 -51.57878769 58.30838016 -51.625 61.375 C-51.66321217 63.46290636 -51.70226576 65.5507975 -51.7421875 67.63867188 C-51.83786438 72.73815662 -51.92202455 77.83771511 -52 82.9375 C-47.05 82.9375 -42.1 82.9375 -37 82.9375 C-37 93.4975 -37 104.0575 -37 114.9375 C-61.09 114.9375 -85.18 114.9375 -110 114.9375 C-110 104.3775 -110 93.8175 -110 82.9375 C-106.7 82.9375 -103.4 82.9375 -100 82.9375 C-100 64.4575 -100 45.9775 -100 26.9375 C-103.3 26.9375 -106.6 26.9375 -110 26.9375 C-110 16.3775 -110 5.8175 -110 -5.0625 C-94.49 -5.0625 -78.98 -5.0625 -63 -5.0625 C-60.525 0.8775 -60.525 0.8775 -58 6.9375 C-56.63875 5.143125 -56.63875 5.143125 -55.25 3.3125 C-41.5652191 -12.27985642 -15.38358545 -13.30472255 0 0 Z " fill="#F7961E" transform="translate(978,274.0625)"/>
<path d="M0 0 C11.9624642 -0.09083912 23.92469444 -0.16402426 35.88742733 -0.20724869 C41.44388211 -0.22800782 47.00008602 -0.25610894 52.55639648 -0.30175781 C57.93161501 -0.34563596 63.30659424 -0.36922456 68.68197823 -0.37950897 C70.71941449 -0.38682578 72.75683961 -0.40111053 74.79417229 -0.42292023 C100.83034816 -0.6902221 125.46499237 5.47624388 144.6875 24.0625 C160.26901179 39.8284488 165.86458769 60.73554037 166.25 82.5 C165.86532164 105.55665915 159.76030573 126.7836718 144 144 C134.85739053 152.82134648 124.33847821 159.02894036 112.4375 163.3125 C111.7657373 163.55508545 111.09397461 163.7976709 110.40185547 164.04760742 C97.57889456 168.40877073 84.96560622 168.26659645 71.58203125 168.1953125 C69.51267128 168.19157655 67.44330952 168.18873233 65.37394714 168.18673706 C59.96038827 168.17914644 54.54693885 168.15953778 49.13342285 168.1373291 C43.59612508 168.11677159 38.05880941 168.10771427 32.52148438 168.09765625 C21.68093407 168.0762871 10.84049331 168.04114279 0 168 C0 157.44 0 146.88 0 136 C4.95 136 9.9 136 15 136 C15 101.68 15 67.36 15 32 C10.05 32 5.1 32 0 32 C0 21.44 0 10.88 0 0 Z M65 32 C65 66.32 65 100.64 65 136 C80.05772871 136 86.65517649 134.96474939 96.96484375 125.21875 C109.97959057 111.02992813 110.61261136 91.92366231 110.13623047 73.73242188 C109.42710744 59.5092948 103.4774182 47.57741307 93 38 C83.5161563 31.38407063 77.45418037 32 65 32 Z " fill="#F7961E" transform="translate(1090,221)"/>
<path d="M0 0 C19.14 0 38.28 0 58 0 C58.33 23.76 58.66 47.52 59 72 C61.31 70.02 63.62 68.04 66 66 C78.01813005 57.24893443 91.40344101 54.39956155 106 56 C116.75289551 57.94149502 124.93656904 62.4025931 131.375 71.3125 C137.95022551 82.00407168 138.15050455 93.76100509 138.09765625 105.93359375 C138.09553383 107.78320457 138.09553383 107.78320457 138.09336853 109.67018127 C138.08778941 113.59264595 138.07524068 117.51505269 138.0625 121.4375 C138.05691698 124.10351479 138.05291987 126.76952904 138.04882812 129.43554688 C138.0378268 135.95705343 138.0205765 142.47851691 138 149 C141.63 149 145.26 149 149 149 C149 159.56 149 170.12 149 181 C128.54 181 108.08 181 87 181 C86.96261719 175.7509375 86.92523437 170.501875 86.88671875 165.09375 C86.85642366 161.75778039 86.8252658 158.42186313 86.79101562 155.0859375 C86.73679777 149.79722813 86.68568375 144.50862233 86.65356445 139.21972656 C86.62745292 134.95312398 86.5869957 130.68687142 86.53681374 126.42048645 C86.5201979 124.79714835 86.50865084 123.17374979 86.50238609 121.55033875 C86.9162694 108.65552965 86.9162694 108.65552965 81.58403015 97.36706543 C78.45400368 94.6657589 74.98692368 94.71583626 70.99609375 94.7890625 C67.9667989 95.10918368 66.3031715 96.025853 64 98 C61.21921655 102.66774365 59.91114163 106.82715864 59.79467773 112.21777344 C59.77473251 113.03832214 59.75478729 113.85887085 59.73423767 114.70428467 C59.71752518 115.58046448 59.70081268 116.45664429 59.68359375 117.359375 C59.66281265 118.26375305 59.64203156 119.1681311 59.62062073 120.09991455 C59.5553406 122.98320055 59.49634048 125.8665761 59.4375 128.75 C59.39429429 130.70704044 59.35067935 132.66407188 59.30664062 134.62109375 C59.19968128 139.4139712 59.09835327 144.20693854 59 149 C64.61 149 70.22 149 76 149 C76 159.56 76 170.12 76 181 C50.92 181 25.84 181 0 181 C0 170.44 0 159.88 0 149 C3.3 149 6.6 149 10 149 C10 110.72 10 72.44 10 33 C6.7 33 3.4 33 0 33 C0 22.11 0 11.22 0 0 Z " fill="#F7961E" transform="translate(458,208)"/>
<path d="M0 0 C12.21022198 6.49615731 20.51380048 16.25608815 25.1875 29.25 C31.33554026 49.80503588 31.21054173 74.13628782 20.875 93.375 C12.58158507 106.41639497 0.00837216 115.25447681 -15.01171875 118.90625 C-30.130243 121.18256482 -42.6948255 118.57668778 -56.125 111.375 C-56.455 118.635 -56.785 125.895 -57.125 133.375 C-53.165 133.375 -49.205 133.375 -45.125 133.375 C-45.125 143.935 -45.125 154.495 -45.125 165.375 C-68.885 165.375 -92.645 165.375 -117.125 165.375 C-117.125 154.815 -117.125 144.255 -117.125 133.375 C-113.825 133.375 -110.525 133.375 -107.125 133.375 C-107.125 98.725 -107.125 64.075 -107.125 28.375 C-110.425 28.375 -113.725 28.375 -117.125 28.375 C-117.125 17.485 -117.125 6.595 -117.125 -4.625 C-109.88106882 -4.72984944 -102.63988293 -4.83000952 -95.39585114 -4.88375092 C-92.02260396 -4.91016012 -88.64998443 -4.94544912 -85.27709961 -5.00219727 C-81.40721768 -5.06269753 -77.53823647 -5.09117712 -73.66796875 -5.11328125 C-72.45852097 -5.13908768 -71.24907318 -5.1648941 -70.00297546 -5.19148254 C-68.32157219 -5.19204903 -68.32157219 -5.19204903 -66.60620117 -5.19262695 C-65.61802902 -5.20373001 -64.62985687 -5.21483307 -63.61174011 -5.22627258 C-61.125 -4.625 -61.125 -4.625 -59.28242493 -2.21452332 C-58.125 0.375 -58.125 0.375 -58.125 2.375 C-57.07699219 1.88128906 -56.02898437 1.38757813 -54.94921875 0.87890625 C-53.57035338 0.23168373 -52.19144488 -0.41544689 -50.8125 -1.0625 C-50.12220703 -1.38798828 -49.43191406 -1.71347656 -48.72070312 -2.04882812 C-33.62835555 -9.12108762 -14.87086736 -6.75948517 0 0 Z M-50.7265625 34.296875 C-57.12818857 43.18977427 -59.29852559 52.50302729 -58.125 63.375 C-56.43140648 72.47140797 -53.23511541 79.3064054 -46.125 85.375 C-43.45663871 86.97601678 -42.41730703 87.3813545 -39.25 87.3125 C-34.20746282 85.79973885 -31.36332833 83.40226331 -28.671875 78.99609375 C-23.19455747 68.43494414 -22.30417709 55.56318316 -25.0625 43.9375 C-27.21136068 38.01031083 -31.33900833 33.37797467 -36.125 29.375 C-42.61999853 26.95313614 -46.4185219 29.12722628 -50.7265625 34.296875 Z " fill="#F7961E" transform="translate(419.125,272.625)"/>
<path d="M0 0 C2.60919333 1.52249336 2.60919333 1.52249336 5.21838665 3.04498672 C14.28125836 7.90303451 27.34583743 6.30553782 37.34301758 6.26074219 C40.16444727 6.25008706 42.98523106 6.26065203 45.80664062 6.2734375 C54.41414394 6.28060217 62.93109148 6.09436338 71.48828125 5.109375 C72.50307808 4.99314789 72.50307808 4.99314789 73.53837585 4.87457275 C80.93643767 3.92977093 80.93643767 3.92977093 87 0 C87.76606446 13.85533776 88.14937603 27.65589991 88.1328125 41.53125 C88.13412906 43.44392421 88.13579132 45.35659821 88.13777161 47.26927185 C88.14184065 53.34619838 88.13476042 59.42308172 88.125 65.5 C88.12343525 66.53091389 88.1218705 67.56182777 88.12025833 68.62398148 C88.10060217 80.97164191 88.06563027 93.31920642 88.02242947 105.66680431 C88.00090874 112.30350017 88.00155198 118.93990921 88.01445007 125.57661629 C88.02375479 131.25575628 87.99907697 136.93427996 87.95526123 142.61328125 C87.94351711 144.81132931 87.94352256 147.00947478 87.95587158 149.20751953 C87.97032259 152.16957395 87.94241992 155.12810228 87.90234375 158.08984375 C87.9165889 158.92285507 87.93083405 159.75586639 87.94551086 160.61412048 C87.85850327 164.02644166 87.69914068 166.15382971 85.4815979 168.83772278 C82.06572552 171.85598172 79.0038015 173.78589819 74.5 174.8125 C73.6234375 175.02519531 72.746875 175.23789062 71.84375 175.45703125 C63.26232524 177.09551757 54.82388114 177.24183959 46.125 177.25 C45.38589386 177.25100708 44.64678772 177.25201416 43.88528442 177.25305176 C12.2052784 177.22378577 12.2052784 177.22378577 2.3671875 168.5625 C-0.54171802 165.23803654 -0.12345929 161.60821631 -0.12025452 157.41316223 C-0.12110894 156.74089637 -0.12196337 156.06863051 -0.12284368 155.37599295 C-0.12449341 153.11888047 -0.11898541 150.86184198 -0.11352539 148.60473633 C-0.11324338 146.98855084 -0.11340152 145.37236522 -0.1139679 143.75617981 C-0.11425534 139.36392438 -0.1083671 134.97169613 -0.10139394 130.57944703 C-0.09515166 125.99101031 -0.09455591 121.402573 -0.09336853 116.81413269 C-0.0902578 108.1231482 -0.08204788 99.43217625 -0.07201904 90.74119729 C-0.0608499 80.84772637 -0.05534543 70.95425486 -0.05032361 61.06077921 C-0.03986507 40.70717913 -0.0222706 20.35359036 0 0 Z " fill="#F79721" transform="translate(29,216)"/>
<path d="M0 0 C11.08532175 7.61205959 16.32803156 19.68314606 18.79585266 32.54272461 C20.5857725 43.14883435 20.08364906 53.96415765 19.95703125 64.6796875 C19.94194721 66.91926177 19.92826543 69.15884594 19.91601562 71.3984375 C19.88332795 76.82577028 19.83175367 82.25261628 19.76953125 87.6796875 C23.06953125 87.6796875 26.36953125 87.6796875 29.76953125 87.6796875 C29.76953125 98.2396875 29.76953125 108.7996875 29.76953125 119.6796875 C9.96953125 119.6796875 -9.83046875 119.6796875 -30.23046875 119.6796875 C-30.25625 114.44222656 -30.28203125 109.20476562 -30.30859375 103.80859375 C-30.33378038 100.47716559 -30.36012713 97.14582658 -30.390625 93.81445312 C-30.43885123 88.53458395 -30.48293657 83.25492133 -30.50146484 77.97485352 C-30.51668428 73.71465759 -30.5512225 69.45500452 -30.59877777 65.19505119 C-30.61353734 63.57533441 -30.62150663 61.95554011 -30.6223526 60.3357563 C-30.63024648 46.15078396 -30.63024648 46.15078396 -37.54296875 34.1171875 C-41.06175294 32.23504712 -43.28792473 32.1868695 -47.23046875 32.6796875 C-51.79775197 34.5915735 -53.7704252 37.46246998 -56.23046875 41.6796875 C-57.14234486 44.41531584 -57.37777134 46.14114225 -57.43579102 48.9675293 C-57.45573624 49.82819504 -57.47568146 50.68886078 -57.49623108 51.5756073 C-57.52129982 52.96324028 -57.52129982 52.96324028 -57.546875 54.37890625 C-57.5676561 55.32909134 -57.58843719 56.27927643 -57.60984802 57.258255 C-57.67524927 60.29449206 -57.73418479 63.33081581 -57.79296875 66.3671875 C-57.83616292 68.42513919 -57.87977751 70.48308209 -57.92382812 72.54101562 C-58.03092106 77.58715066 -58.13221521 82.63337293 -58.23046875 87.6796875 C-52.62046875 87.6796875 -47.01046875 87.6796875 -41.23046875 87.6796875 C-41.23046875 98.2396875 -41.23046875 108.7996875 -41.23046875 119.6796875 C-65.98046875 119.6796875 -90.73046875 119.6796875 -116.23046875 119.6796875 C-116.23046875 109.1196875 -116.23046875 98.5596875 -116.23046875 87.6796875 C-112.60046875 87.6796875 -108.97046875 87.6796875 -105.23046875 87.6796875 C-105.23046875 69.1996875 -105.23046875 50.7196875 -105.23046875 31.6796875 C-108.86046875 31.6796875 -112.49046875 31.6796875 -116.23046875 31.6796875 C-116.23046875 21.1196875 -116.23046875 10.5596875 -116.23046875 -0.3203125 C-98.74046875 -0.3203125 -81.25046875 -0.3203125 -63.23046875 -0.3203125 C-59.23046875 9.6796875 -59.23046875 9.6796875 -59.23046875 11.6796875 C-58.71097656 11.22078125 -58.19148438 10.761875 -57.65625 10.2890625 C-55.52154854 8.41084088 -53.37702908 6.54433559 -51.23046875 4.6796875 C-49.99296875 3.596875 -49.99296875 3.596875 -48.73046875 2.4921875 C-34.67433684 -7.69850814 -14.95229417 -8.85092019 0 0 Z " fill="#F7961E" transform="translate(261.23046875,269.3203125)"/>
<path d="M0 0 C7.61508999 7.09077232 13.09092312 16.21959024 13.74528503 26.79711914 C13.80134068 30.24014801 13.7949841 33.67772936 13.765625 37.12109375 C13.7627951 38.37636368 13.75996521 39.63163361 13.75704956 40.92494202 C13.74778377 44.24089347 13.72985549 47.55656301 13.7076416 50.87243652 C13.68707845 54.26454245 13.67802559 57.65667766 13.66796875 61.04882812 C13.64596371 67.6888892 13.61146214 74.32878109 13.5703125 80.96875 C18.5203125 80.96875 23.4703125 80.96875 28.5703125 80.96875 C28.5703125 91.52875 28.5703125 102.08875 28.5703125 112.96875 C11.0803125 112.96875 -6.4096875 112.96875 -24.4296875 112.96875 C-25.7496875 110.32875 -27.0696875 107.68875 -28.4296875 104.96875 C-29.5228125 105.855625 -30.6159375 106.7425 -31.7421875 107.65625 C-44.47766712 117.14059486 -57.93247916 119.1643214 -73.4296875 116.96875 C-85.06859311 114.45890778 -95.90812959 109.4759992 -103.4296875 99.96875 C-109.90071541 89.7043609 -110.84974647 77.85903515 -108.96484375 66.05859375 C-105.83860273 54.38606069 -98.82637717 45.65544561 -88.7109375 39.24609375 C-75.68636987 32.12109506 -61.69203067 30.24445874 -47.41796875 34.03515625 C-43.249339 35.33751247 -39.33611086 37.02540302 -35.4296875 38.96875 C-35.56309654 32.09017568 -35.56309654 32.09017568 -38.4921875 26.03125 C-47.59797217 19.63782672 -58.11505691 19.79227095 -68.78125 21.5078125 C-77.47431599 23.55191846 -85.48844859 26.94091701 -93.4296875 30.96875 C-104.99909451 6.67697102 -104.99909451 6.67697102 -103.4296875 1.96875 C-75.46429464 -18.58233051 -27.79862243 -23.24000589 0 0 Z M-61.4296875 67.96875 C-63.16563926 70.91232037 -63.43834723 72.55308275 -63.3671875 75.96875 C-62.1889486 79.73911448 -60.40523331 81.42864992 -57.4296875 83.96875 C-53.48069413 85.94324669 -48.73378646 85.40645498 -44.4296875 84.96875 C-40.03333718 82.8490811 -37.2065747 80.56775217 -35.4296875 75.96875 C-35.03756506 71.37531568 -35.90793501 68.66441998 -38.6796875 64.96875 C-45.7626063 59.91443416 -56.11912162 61.50995366 -61.4296875 67.96875 Z " fill="#F7961E" transform="translate(725.4296875,276.03125)"/>
<path d="M0 0 C0 14.52 0 29.04 0 44 C-7.425 44.99 -7.425 44.99 -15 46 C-23.13129677 48.52973677 -26.49717536 50.63138827 -31.09912109 57.68457031 C-32.41953398 61.07828191 -32.35833666 64.45311718 -32.4140625 68.046875 C-32.43342865 68.81807678 -32.4527948 69.58927856 -32.4727478 70.3838501 C-32.53237077 72.83912205 -32.57885914 75.29444133 -32.625 77.75 C-32.66319575 79.41798882 -32.70224841 81.08595826 -32.7421875 82.75390625 C-32.83805791 86.83577943 -32.92215235 90.91774493 -33 95 C-29.37 95 -25.74 95 -22 95 C-22 105.56 -22 116.12 -22 127 C-44.44 127 -66.88 127 -90 127 C-90 116.44 -90 105.88 -90 95 C-86.7 95 -83.4 95 -80 95 C-80 76.52 -80 58.04 -80 39 C-83.3 39 -86.6 39 -90 39 C-90 28.11 -90 17.22 -90 6 C-74.82 6 -59.64 6 -44 6 C-39 16 -39 16 -38 19 C-37.59910156 18.41992188 -37.19820312 17.83984375 -36.78515625 17.2421875 C-30.24741708 8.25835545 -22.93472542 3.23021797 -12 1 C-8.01017281 0.42922528 -4.03330718 0 0 0 Z " fill="#F7961E" transform="translate(857,262)"/>
<path d="M0 0 C3.3 0.99 6.6 1.98 10 3 C20.90942508 4.5584893 31.98795849 4.57645994 43 5 C43 45.59 43 86.18 43 128 C10 128 10 128 0 123 C0 82.41 0 41.82 0 0 Z " fill="#FEFEFE" transform="translate(34,241)"/>
<path d="M0 0 C7.59 0 15.18 0 23 0 C23 7.59 23 15.18 23 23 C15.41 23 7.82 23 0 23 C0 15.41 0 7.82 0 0 Z " fill="#4090A1" transform="translate(74,173)"/>
<path d="M0 0 C7.59 0 15.18 0 23 0 C23 7.59 23 15.18 23 23 C15.41 23 7.82 23 0 23 C0 15.41 0 7.82 0 0 Z " fill="#E8EEF2" transform="translate(252,66)"/>
<path d="M0 0 C7.59 0 15.18 0 23 0 C23 7.59 23 15.18 23 23 C15.41 23 7.82 23 0 23 C0 15.41 0 7.82 0 0 Z " fill="#C2D4DB" transform="translate(157,66)"/>
<path d="M0 0 C7.59 0 15.18 0 23 0 C23 7.59 23 15.18 23 23 C15.41 23 7.82 23 0 23 C0 15.41 0 7.82 0 0 Z " fill="#D5E0E7" transform="translate(95,40)"/>
<path d="M0 0 C7.26 0 14.52 0 22 0 C22 7.59 22 15.18 22 23 C14.74 23 7.48 23 0 23 C0 15.41 0 7.82 0 0 Z " fill="#4090A1" transform="translate(47,173)"/>
<path d="M0 0 C7.59 0 15.18 0 23 0 C23 7.26 23 14.52 23 22 C15.41 22 7.82 22 0 22 C0 14.74 0 7.48 0 0 Z " fill="#D5E0E7" transform="translate(221,121)"/>
<path d="M0 0 C7.59 0 15.18 0 23 0 C23 7.26 23 14.52 23 22 C15.41 22 7.82 22 0 22 C0 14.74 0 7.48 0 0 Z " fill="#8EB3BF" transform="translate(128,121)"/>
<path d="M0 0 C7.59 0 15.18 0 23 0 C23 7.26 23 14.52 23 22 C15.41 22 7.82 22 0 22 C0 14.74 0 7.48 0 0 Z " fill="#7CA7B6" transform="translate(101,121)"/>
<path d="M0 0 C7.59 0 15.18 0 23 0 C23 7.26 23 14.52 23 22 C15.41 22 7.82 22 0 22 C0 14.74 0 7.48 0 0 Z " fill="#9DBCC7" transform="translate(127,94)"/>
<path d="M0 0 C7.59 0 15.18 0 23 0 C23 7.26 23 14.52 23 22 C15.41 22 7.82 22 0 22 C0 14.74 0 7.48 0 0 Z " fill="#8EB3BF" transform="translate(101,94)"/>
<path d="M0 0 C7.26 0 14.52 0 22 0 C22 7.59 22 15.18 22 23 C14.74 23 7.48 23 0 23 C0 15.41 0 7.82 0 0 Z " fill="#D5E0E7" transform="translate(197,66)"/>
<path d="M0 0 C7.59 0 15.18 0 23 0 C23 7.26 23 14.52 23 22 C15.41 22 7.82 22 0 22 C0 14.74 0 7.48 0 0 Z " fill="#E8EEF2" transform="translate(180,25)"/>
<path d="M0 0 C7.26 0 14.52 0 22 0 C22 7.26 22 14.52 22 22 C14.74 22 7.48 22 0 22 C0 14.74 0 7.48 0 0 Z " fill="#C2D4DB" transform="translate(197,94)"/>
<path d="M0 0 C7.26 0 14.52 0 22 0 C22 7.26 22 14.52 22 22 C14.74 22 7.48 22 0 22 C0 14.74 0 7.48 0 0 Z " fill="#AFC6D0" transform="translate(155,94)"/>
<path d="M0 0 C6.93 0 13.86 0 21 0 C21 7.59 21 15.18 21 23 C14.07 23 7.14 23 0 23 C0 15.41 0 7.82 0 0 Z " fill="#669EAB" transform="translate(75,145)"/>
<path d="M0 0 C6.93 0 13.86 0 21 0 C21 7.59 21 15.18 21 23 C14.07 23 7.14 23 0 23 C0 15.41 0 7.82 0 0 Z " fill="#7CA7B6" transform="translate(75,119)"/>
<path d="M0 0 C4 1 4 1 5.625 3.5625 C6.07875 4.366875 6.5325 5.17125 7 6 C7.66 6 8.32 6 9 6 C9.639375 5.01 10.27875 4.02 10.9375 3 C11.618125 2.01 12.29875 1.02 13 0 C13.99 0 14.98 0 16 0 C16 5.61 16 11.22 16 17 C15.01 17 14.02 17 13 17 C12.67 14.03 12.34 11.06 12 8 C11.54625 8.825 11.0925 9.65 10.625 10.5 C10.08875 11.325 9.5525 12.15 9 13 C8.34 13 7.68 13 7 13 C5.375 10.5 5.375 10.5 4 8 C3.67 10.97 3.34 13.94 3 17 C2.01 17 1.02 17 0 17 C0 11.39 0 5.78 0 0 Z " fill="#000000" transform="translate(1273,225)"/>
<path d="M0 0 C4.29 0 8.58 0 13 0 C13 0.99 13 1.98 13 3 C11.35 3 9.7 3 8 3 C8 7.62 8 12.24 8 17 C7.01 17 6.02 17 5 17 C5 12.38 5 7.76 5 3 C3.35 3 1.7 3 0 3 C0 2.01 0 1.02 0 0 Z " fill="#000000" transform="translate(1255,225)"/>
</svg>
