<?xml version="1.0" encoding="UTF-8" standalone="no"?>
<!-- Created with Inkscape (http://www.inkscape.org/) -->

<svg
   width="8mm"
   height="8mm"
   viewBox="0 0 8 8"
   version="1.1"
   id="svg1"
   xml:space="preserve"
   inkscape:version="1.3.2 (091e20ef0f, 2023-11-25)"
   sodipodi:docname="Message.svg"
   xmlns:inkscape="http://www.inkscape.org/namespaces/inkscape"
   xmlns:sodipodi="http://sodipodi.sourceforge.net/DTD/sodipodi-0.dtd"
   xmlns="http://www.w3.org/2000/svg"
   xmlns:svg="http://www.w3.org/2000/svg"><sodipodi:namedview
     id="namedview1"
     pagecolor="#ffffff"
     bordercolor="#000000"
     borderopacity="0.25"
     inkscape:showpageshadow="2"
     inkscape:pageopacity="0.0"
     inkscape:pagecheckerboard="0"
     inkscape:deskcolor="#d1d1d1"
     inkscape:document-units="mm"
     inkscape:zoom="10.199797"
     inkscape:cx="15.000298"
     inkscape:cy="23.725962"
     inkscape:window-width="1366"
     inkscape:window-height="704"
     inkscape:window-x="0"
     inkscape:window-y="0"
     inkscape:window-maximized="1"
     inkscape:current-layer="layer1" /><defs
     id="defs1" /><g
     inkscape:label="Layer 1"
     inkscape:groupmode="layer"
     id="layer1"><path
       style="fill:#d6180a;fill-opacity:1;stroke-width:1.07891"
       d="M 5.1181661,7.6994573 C 5.0997167,7.6810079 5.0794331,7.6483168 5.0730675,7.6269544 4.8689371,6.939503 3.9327853,3.9681965 3.9145085,3.9497686 3.9003748,3.935527 3.156248,3.6962779 2.2609763,3.4182311 0.07404003,2.7390226 0.15891816,2.7671607 0.14270209,2.7160633 0.1351497,2.6923272 0.13838644,2.654781 0.15025449,2.6325554 0.17992461,2.5770992 7.5960962,0.13762159 7.6436871,0.16764775 c 0.017802,0.0112207 0.041538,0.0349568 0.052759,0.0527589 0.02611,0.0414303 -2.4007123,7.44343577 -2.4539459,7.48471497 -0.047472,0.036791 -0.083832,0.035173 -0.1247116,-0.00539 z M 6.274222,3.9658876 C 6.8595758,2.1821521 7.3437599,0.70713692 7.3501794,0.68806173 7.3566529,0.66896496 6.6378051,1.3758368 5.7528586,2.2588413 4.478284,3.5306107 4.1451371,3.8745792 4.1500677,3.9137114 4.1637699,4.0225629 5.1829765,7.2589585 5.1959666,7.2348879 5.203519,7.2206463 5.6888683,5.7496123 6.274222,3.9658876 Z M 5.6057272,2.1110086 C 6.4886993,1.2264073 7.1950856,0.50806657 7.1754709,0.51470189 7.1431035,0.52559892 1.9861662,2.219202 1.0025423,2.5419159 L 0.59147623,2.6767801 2.2512445,3.1958562 c 0.9128688,0.2854913 1.6798577,0.5200795 1.7044138,0.5212987 0.030857,0.00108 0.5404062,-0.4944446 1.6500689,-1.6061463 z M 2.9009016,7.3941032 C 2.835951,7.3291526 2.8788917,7.2707942 3.3035953,6.8464683 3.7275975,6.4228868 3.7863228,6.3797194 3.8507987,6.4441953 3.9157493,6.5091459 3.8728085,6.5675151 3.4481158,6.9918303 3.0241135,7.4154118 2.9653882,7.4585899 2.9009016,7.3941032 Z M 1.9420818,5.9224219 C 1.8756208,5.8559608 1.9207193,5.7985195 2.4673725,5.2522008 3.0132596,4.7066373 3.0712297,4.6612043 3.1372592,4.7272446 3.2037202,4.7937057 3.1586217,4.851147 2.6119793,5.3974657 2.0660814,5.9430399 2.0081221,5.9884622 1.9420818,5.9224219 Z M 0.47041131,4.9636022 C 0.40546071,4.8986516 0.44840147,4.8402931 0.87309422,4.4159672 1.2970965,3.9923857 1.3558218,3.9492184 1.4203084,4.0137051 1.485259,4.0786557 1.4423183,4.1370141 1.0176147,4.56134 0.59361247,4.9849215 0.53488721,5.0280888 0.47041131,4.9636022 Z"
       id="path1" /></g></svg>
