<?xml version="1.0" encoding="UTF-8" standalone="no"?>
<!-- Created with Inkscape (http://www.inkscape.org/) -->

<svg
   width="196mm"
   height="110mm"
   viewBox="0 0 196 110"
   version="1.1"
   id="svg1"
   xml:space="preserve"
   inkscape:version="1.3.2 (091e20ef0f, 2023-11-25)"
   sodipodi:docname="Performance.svg"
   xmlns:inkscape="http://www.inkscape.org/namespaces/inkscape"
   xmlns:sodipodi="http://sodipodi.sourceforge.net/DTD/sodipodi-0.dtd"
   xmlns="http://www.w3.org/2000/svg"
   xmlns:svg="http://www.w3.org/2000/svg"><sodipodi:namedview
     id="namedview1"
     pagecolor="#ffffff"
     bordercolor="#000000"
     borderopacity="0.25"
     inkscape:showpageshadow="2"
     inkscape:pageopacity="0.0"
     inkscape:pagecheckerboard="0"
     inkscape:deskcolor="#d1d1d1"
     inkscape:document-units="mm"
     inkscape:zoom="0.51315749"
     inkscape:cx="405.33365"
     inkscape:cy="75.0257"
     inkscape:window-width="1366"
     inkscape:window-height="731"
     inkscape:window-x="0"
     inkscape:window-y="0"
     inkscape:window-maximized="1"
     inkscape:current-layer="layer1" /><defs
     id="defs1" /><g
     inkscape:label="Layer 1"
     inkscape:groupmode="layer"
     id="layer1"><path
       style="fill:#d6180a;fill-opacity:1;stroke-width:1.46335"
       d="m 95.655045,108.96202 c -7.033814,-1.96546 -10.101007,-10.178081 -6.072624,-16.259828 2.164525,-3.26782 6.525855,-5.23792 10.331985,-4.66715 l 1.703244,0.25544 9.73903,-9.69959 c 8.06873,-8.03607 9.97212,-9.74225 11.09818,-9.94832 2.46357,-0.45083 5.01862,1.10211 5.8229,3.53913 0.88627,2.68543 0.53072,3.17979 -9.64214,13.40666 l -9.54247,9.59316 -0.0246,2.99015 c -0.0293,3.563398 -0.90052,5.825308 -3.08583,8.010608 -2.66218,2.66217 -6.781094,3.7708 -10.327757,2.77974 z"
       id="path1" /><path
       style="fill:none;stroke:#d6180a;stroke-width:4.39007;stroke-dasharray:none;stroke-opacity:1"
       d="m 125.1456,40.776697 c -4.62787,-2.408873 -14.01078,-4.97262 -20.03889,-5.475344 l -3.17639,-0.264901 V 19.162414 3.2883776 l 3.9686,0.272707 c 11.09048,0.762093 23.47163,4.0706249 33.44286,8.9367054 l 3.9669,1.935897 -7.83693,13.526169 c -4.3103,7.439393 -8.00149,13.57243 -8.20264,13.628989 -0.20115,0.05649 -1.15674,-0.308929 -2.12351,-0.812148 z"
       id="path7" /><path
       style="fill:none;stroke:#d6180a;stroke-width:4.39007;stroke-dasharray:none;stroke-opacity:1"
       d="M 67.898524,39.116375 C 67.049704,37.678972 63.4862,31.537338 59.979635,25.4683 l -6.37559,-11.034613 2.771463,-1.40263 C 66.279863,8.0185082 79.740259,4.3366946 90.995352,3.5615126 l 3.965735,-0.273135 V 19.162414 35.036452 l -3.18938,0.265982 c -5.96944,0.497834 -13.353019,2.469279 -19.218571,5.131443 -1.570473,0.712771 -2.912971,1.295962 -2.983358,1.295962 -0.07039,0 -0.822449,-1.176055 -1.671254,-2.613464 z"
       id="path6" /><path
       style="fill:none;stroke:#d6180a;stroke-width:4.39007;stroke-dasharray:none;stroke-opacity:1"
       d="m 149.71204,60.83111 c -3.13096,-4.233684 -8.60234,-9.773834 -12.83885,-13.00023 -1.98181,-1.509295 -3.55479,-2.869103 -3.49552,-3.021805 0.0593,-0.152701 3.58481,-6.305129 7.83453,-13.672062 l 7.72676,-13.394426 1.37195,0.808489 c 3.74614,2.207577 10.82386,8.003041 15.51415,12.703467 4.70658,4.716738 10.54883,11.849972 12.71249,15.521579 l 0.80621,1.368076 -13.37875,7.730641 c -7.35829,4.251851 -13.52431,7.784013 -13.70227,7.849233 -0.17794,0.0652 -1.32576,-1.23659 -2.5507,-2.892962 z"
       id="path5" /><path
       style="fill:none;stroke:#d6180a;stroke-width:4.39007;stroke-dasharray:none;stroke-opacity:1"
       d="m 30.998277,55.926674 -13.435885,-7.807455 0.798832,-1.355593 c 3.62176,-6.14601 14.06125,-17.643889 20.676904,-22.773221 3.353469,-2.600052 8.74605,-6.339159 8.903199,-6.173306 0.209041,0.2206 15.658225,27.071422 15.658225,27.214128 0,0.084 -1.345394,1.14771 -2.989767,2.363777 -4.259242,3.149857 -9.819114,8.652734 -12.955479,12.822656 -1.481546,1.969782 -2.81216,3.566792 -2.95693,3.548922 -0.144726,-0.0179 -6.309359,-3.545828 -13.699099,-7.839908 z"
       id="path4" /><path
       style="fill:none;stroke:#d6180a;stroke-width:4.39007;stroke-dasharray:none;stroke-opacity:1"
       d="m 162.16875,95.644567 c -0.62261,-8.207645 -2.64133,-16.604855 -5.49972,-22.877175 -0.72939,-1.60056 -1.1914,-3.04157 -1.02667,-3.20226 0.16472,-0.16067 6.31046,-3.7713 13.65717,-8.02361 l 13.3577,-7.731465 1.40262,2.76822 c 5.40377,10.664815 9.00547,24.497865 9.51643,36.549625 l 0.23391,5.517297 h -15.7069 -15.70692 z"
       id="path3" /><path
       style="fill:none;stroke:#d6180a;stroke-width:4.39007;stroke-dasharray:none;stroke-opacity:1"
       d="M 3.3090931,93.127902 C 3.785415,81.357412 7.053585,68.495122 12.298279,57.749768 l 1.935888,-3.966271 13.357624,7.737315 c 7.346687,4.25553 13.49158,7.87129 13.655315,8.03502 0.163735,0.16375 -0.29671,1.59248 -1.023192,3.17496 -2.825725,6.15517 -4.878622,14.70589 -5.501266,22.913775 l -0.227624,3.000632 H 18.790426 3.0858288 Z"
       id="path2" /></g></svg>
