<?xml version="1.0" encoding="UTF-8" standalone="no"?>
<!-- Created with Inkscape (http://www.inkscape.org/) -->

<svg
   width="200mm"
   height="215mm"
   viewBox="0 0 200 215"
   version="1.1"
   id="svg1"
   xml:space="preserve"
   inkscape:version="1.3.2 (091e20ef0f, 2023-11-25)"
   sodipodi:docname="reliability.svg"
   xmlns:inkscape="http://www.inkscape.org/namespaces/inkscape"
   xmlns:sodipodi="http://sodipodi.sourceforge.net/DTD/sodipodi-0.dtd"
   xmlns="http://www.w3.org/2000/svg"
   xmlns:svg="http://www.w3.org/2000/svg"><sodipodi:namedview
     id="namedview1"
     pagecolor="#ffffff"
     bordercolor="#000000"
     borderopacity="0.25"
     inkscape:showpageshadow="2"
     inkscape:pageopacity="0.0"
     inkscape:pagecheckerboard="0"
     inkscape:deskcolor="#d1d1d1"
     inkscape:document-units="mm"
     inkscape:zoom="0.25657875"
     inkscape:cx="514.46194"
     inkscape:cy="76.00006"
     inkscape:window-width="1366"
     inkscape:window-height="731"
     inkscape:window-x="0"
     inkscape:window-y="0"
     inkscape:window-maximized="1"
     inkscape:current-layer="layer1" /><defs
     id="defs1" /><g
     inkscape:label="Layer 1"
     inkscape:groupmode="layer"
     id="layer1"><path
       style="fill:#d6180a;fill-opacity:1;stroke-width:1.60207"
       d="m 91.885942,210.23409 c -36.726358,-4.50401 -64.062867,-35.18201 -63.997996,-71.82081 0.05455,-30.8071 19.986678,-58.435767 49.193501,-68.188917 8.126386,-2.71366 12.983543,-3.445889 22.858249,-3.445889 7.379534,0 9.419784,0.146911 13.532854,0.974575 19.48693,3.921208 36.21626,15.168247 46.76514,31.439972 8.27242,12.760249 12.26497,27.318369 11.63237,42.415359 -1.41868,33.85723 -26.30958,62.14866 -59.84969,68.02621 -4.60095,0.80628 -15.743206,1.13804 -20.134428,0.5995 z m 22.465758,-7.32428 c 13.01365,-3.10325 23.85304,-9.22614 32.88349,-18.57502 9.60514,-9.94384 15.54542,-21.78055 17.83708,-35.54246 0.96026,-5.76648 0.86004,-15.44762 -0.22393,-21.6359 C 161.31534,106.9871 148.30948,89.351853 130.03537,79.951912 114.12226,71.766441 96.038086,70.402081 78.896375,76.093744 68.31322,79.607722 57.726286,86.643848 50.454255,94.996495 30.627546,117.76944 28.552899,150.35089 45.328861,175.48867 c 3.229048,4.83852 10.299378,12.2843 14.969958,15.76489 6.841681,5.09852 15.244906,9.11672 23.383004,11.18112 6.376102,1.61743 8.699945,1.83777 17.741457,1.68229 7.24732,-0.12465 9.12359,-0.29984 12.92842,-1.20716 z m -22.889636,-8.99502 c -7.949148,-1.25687 -16.35601,-4.56475 -23.141074,-9.10542 -4.267994,-2.8562 -11.690268,-10.2634 -14.515321,-14.48581 -4.265671,-6.37563 -7.256058,-13.40496 -8.856836,-20.81921 -1.062609,-4.92165 -1.050577,-16.90331 0.02195,-21.91119 2.194107,-10.24438 6.414376,-18.62462 13.282572,-26.37547 16.424916,-18.535664 43.530738,-23.890732 66.059548,-13.050829 15.68185,7.545457 26.82045,21.940689 30.61861,39.570709 1.06339,4.93596 1.03639,16.91005 -0.0494,21.89748 -4.37686,20.10514 -18.50213,35.87262 -37.79936,42.19392 -7.87795,2.58063 -17.524524,3.36599 -25.620761,2.08582 z m 18.639686,-6.55509 c 10.42003,-2.14402 20.66122,-8.14084 27.43212,-16.06312 13.23645,-15.48731 15.97559,-36.44036 7.13344,-54.56691 -6.99042,-14.33043 -19.94001,-24.208992 -35.82608,-27.329819 -3.55304,-0.697992 -14.250011,-0.697992 -17.803059,0 -32.511712,6.386948 -50.276969,41.173369 -36.065469,70.620329 3.316778,6.87252 7.603501,12.39641 13.126609,16.91505 11.872953,9.71362 27.095602,13.49169 42.002439,10.42447 z M 88.91877,165.2494 c -0.815986,-0.23704 -1.718051,-0.6246 -2.004598,-0.86122 -0.353899,-0.29224 -0.951986,-0.27999 -1.864753,0.0383 -0.769733,0.26832 -4.313461,0.46844 -8.295613,0.46844 -7.752526,0 -8.865713,-0.28806 -10.317978,-2.66985 -0.777824,-1.27568 -0.82744,-2.22112 -0.82744,-15.76906 0,-13.70913 0.04166,-14.48043 0.85546,-15.81513 1.378586,-2.26114 2.859033,-2.62376 10.71196,-2.62376 h 6.935115 l 2.933769,-2.28013 c 1.686442,-1.3107 3.382977,-3.06785 3.990308,-4.13286 0.955237,-1.67505 1.041413,-2.21854 0.8987,-5.66766 -0.319935,-7.73218 -0.247505,-8.81641 0.712619,-10.66733 3.107254,-5.990207 11.939441,-5.293545 16.483371,1.30017 2.22242,3.22491 2.67872,5.44748 2.67872,13.04711 v 6.70519 h 7.56322 c 7.09872,0 7.67795,0.0605 9.43139,0.98601 2.2419,1.18328 4.42003,3.89946 5.08712,6.34377 0.42995,1.57535 0.23612,3.16448 -1.65949,13.6055 -2.44022,13.44068 -2.93498,14.7099 -6.62329,16.99099 l -2.07425,1.28285 -16.56539,0.0748 c -10.204555,0.0462 -17.135046,-0.0907 -18.04895,-0.3561 z m 34.15824,-6.76726 c 0.97611,-0.97657 1.34241,-2.25881 2.96666,-10.38511 1.90402,-9.52593 2.23033,-13.00835 1.32896,-14.18237 -1.14424,-1.49032 -2.27013,-1.6588 -11.08558,-1.6588 -8.15228,0 -8.77243,-0.055 -9.56523,-0.84775 -0.78769,-0.78772 -0.84775,-1.41295 -0.84775,-8.82461 0,-9.56963 -0.41467,-11.49664 -2.97083,-13.80598 -1.11846,-1.01045 -2.10849,-1.53072 -2.912844,-1.53072 -2.076183,0 -2.25014,0.62375 -1.924562,6.90094 0.450869,8.69258 -0.579555,11.05581 -7.083095,16.24489 l -2.91174,2.32323 v 12.42079 c 0,11.64739 0.04999,12.46599 0.802223,13.14677 0.441212,0.39931 1.347266,0.89393 2.013442,1.09919 0.666174,0.20526 7.930958,0.3373 16.143966,0.29344 l 14.93276,-0.0798 z M 82.037164,146.5619 82.14963,134.37528 h -5.093096 -5.093095 v 12.30604 12.30606 l 4.980629,-0.11936 4.980614,-0.11935 z M 26.834294,88.913877 c -0.594835,-0.757686 -2.558125,-3.571203 -4.362867,-6.252261 l -3.28135,-4.874653 h -7.686492 c -6.9621568,0 -7.7710339,-0.0761 -8.5836224,-0.807495 C 1.1838505,75.416819 1.6870049,74.10081 6.2693011,68.219188 8.6048589,65.221384 10.616528,62.506058 10.739677,62.18513 10.862828,61.864218 9.9056506,58.687318 8.6126212,55.125358 7.3195924,51.563398 6.2616575,48.195146 6.2616575,47.640331 c 0,-1.356526 1.429637,-2.705362 2.861209,-2.699499 0.6411221,0.0032 4.0133795,1.051731 7.4939065,2.331358 3.480526,1.279609 6.459397,2.326582 6.619714,2.326582 0.160317,0 2.844282,-1.995947 5.964365,-4.435428 6.183811,-4.834888 7.539848,-5.354378 9.322764,-3.571459 0.867719,0.867716 0.885461,1.121085 0.589459,8.418028 l -0.305187,7.52338 5.450866,3.706949 c 2.997981,2.038818 5.880052,4.10173 6.404603,4.584276 1.133774,1.042951 1.282542,3.311619 0.273763,4.174689 -0.373988,0.319951 -3.855123,1.538217 -7.735863,2.707221 L 36.14538,74.831901 34.133774,81.8199 c -2.142434,7.442477 -2.751204,8.471602 -5.011346,8.471602 -0.856873,0 -1.520098,-0.399317 -2.288134,-1.377625 z m 2.761465,-13.487029 c 0.71793,-2.432111 1.634189,-4.75778 2.036132,-5.168152 0.401943,-0.410388 2.704295,-1.310242 5.116339,-1.999664 2.412045,-0.689437 4.459287,-1.327271 4.549423,-1.41742 0.0902,-0.0902 -1.646026,-1.357343 -3.858159,-2.816017 C 35.227359,62.56692 33.277246,60.965421 33.10591,60.466727 32.934575,59.968033 32.850347,57.40311 32.918739,54.766893 l 0.124352,-4.793122 -3.535443,2.717409 c -5.219818,4.01203 -4.831515,3.904579 -8.923344,2.469263 -1.932498,-0.677871 -4.050606,-1.443582 -4.706905,-1.701565 -0.656299,-0.257983 -1.270549,-0.469056 -1.364998,-0.469056 -0.09444,0 0.597554,2.145917 1.537786,4.768691 2.008526,5.602765 2.068222,5.309665 -2.17219,10.665405 l -2.655086,3.353449 4.724085,-0.270302 c 2.598246,-0.148672 5.15385,-0.106217 5.679117,0.09436 0.525267,0.200563 2.194887,2.179944 3.710269,4.398627 1.515379,2.218667 2.799971,3.992278 2.854646,3.941347 0.05468,-0.05095 0.686807,-2.08249 1.404737,-4.514586 z M 168.65682,89.549693 c -0.624,-0.518031 -1.50552,-2.85067 -2.92229,-7.732948 l -2.02878,-6.991172 -7.04173,-2.122317 c -3.87295,-1.167257 -7.34772,-2.384098 -7.72172,-2.704049 -1.00879,-0.86307 -0.86003,-3.131738 0.27375,-4.174689 0.52455,-0.482546 3.40074,-2.541454 6.39154,-4.575354 l 5.43781,-3.698023 -0.30153,-7.522916 c -0.29324,-7.316841 -0.27674,-7.547669 0.60254,-8.426952 1.74371,-1.743715 3.05165,-1.265992 8.88807,3.246399 2.95255,2.282734 5.60597,4.296399 5.89653,4.474791 0.30082,0.184719 3.33767,-0.689727 7.05364,-2.031017 3.58896,-1.295471 7.02312,-2.355388 7.63148,-2.355388 1.38099,0 2.80164,1.371265 2.80164,2.704273 0,0.554815 -1.05795,3.923067 -2.35097,7.485027 -1.29304,3.56196 -2.25022,6.73886 -2.12706,7.059772 0.1232,0.320928 2.13481,3.036254 4.47036,6.034058 4.73495,6.077572 5.16383,7.301061 3.12214,8.907063 -1.07413,0.844902 -1.45766,0.872955 -8.58364,0.627565 l -7.45927,-0.256861 -3.79098,5.794853 c -2.08503,3.187169 -4.178,6.06594 -4.65105,6.397265 -1.15822,0.811259 -2.50852,0.75884 -3.59048,-0.13938 z m 9.78204,-18.053746 c 0.53837,-0.141144 2.93398,-0.137459 5.32362,0.008 2.38964,0.145789 4.3448,0.120476 4.3448,-0.05623 0,-0.17679 -1.21231,-1.874815 -2.69404,-3.773387 -1.48171,-1.898587 -2.8211,-3.853729 -2.9764,-4.344749 -0.17955,-0.567728 0.33989,-2.629792 1.42661,-5.663419 1.02193,-2.852769 1.49425,-4.690814 1.17489,-4.572117 -2.40997,0.895817 -7.90916,2.837084 -8.60848,3.038866 -0.97236,0.280572 -3.16417,-1.021276 -7.10304,-4.218955 l -2.46098,-1.997901 0.0702,5.033739 c 0.0386,2.768548 -0.0516,5.328601 -0.20042,5.688988 -0.14884,0.360387 -2.07669,1.870968 -4.28418,3.356861 -2.20747,1.485894 -3.94433,2.770903 -3.85966,2.855573 0.0846,0.08459 2.11292,0.713869 4.50721,1.398227 4.87889,1.394527 5.60707,1.876016 6.26035,4.139477 0.25123,0.870504 0.86486,2.979221 1.36362,4.686056 l 0.90683,3.103318 2.91516,-4.212996 c 1.84566,-2.667377 3.27426,-4.307181 3.89398,-4.469728 z M 84.776698,55.011659 c -1.765183,-0.850703 -1.69913,-2.650715 0.51369,-13.996842 l 0.558067,-2.861549 -5.458914,-5.134412 c -4.910475,-4.618593 -5.458897,-5.278633 -5.458897,-6.569858 0,-2.521971 0.733366,-2.843797 8.898041,-3.904579 4.063875,-0.527996 7.425366,-0.999103 7.469953,-1.046925 0.04453,-0.04774 1.348835,-2.852753 2.898314,-6.233213 4.951293,-10.8021737 6.493858,-10.8021737 11.475568,0 1.55902,3.38046 2.86742,6.183452 2.90759,6.228871 0.0917,0.10366 13.42266,1.822971 14.14329,1.824077 1.00333,0.0016 2.2252,1.679023 2.23908,3.073967 0.0128,1.218074 -0.6237,1.991268 -5.48987,6.676154 l -5.50358,5.29853 1.2328,6.146301 c 1.41896,7.074511 1.53593,8.99822 0.60383,9.930323 -1.56906,1.569058 -2.47092,1.331101 -9.29844,-2.453354 l -6.563644,-3.638203 -6.510477,3.591085 c -3.580768,1.975104 -6.776653,3.578173 -7.101971,3.562409 -0.325317,-0.01602 -1.024816,-0.237524 -1.55443,-0.492782 z m 10.28835,-10.923371 c 2.155934,-1.165671 4.355978,-2.119402 4.889008,-2.119402 0.533024,0 2.767014,0.969207 4.964414,2.153798 2.19741,1.184576 4.07187,2.07722 4.16545,1.983626 0.0936,-0.09356 -0.21319,-2.159582 -0.68172,-4.591116 -0.46854,-2.431535 -0.75403,-4.828257 -0.63443,-5.32607 0.11967,-0.497797 1.74528,-2.282429 3.61262,-3.965827 1.86737,-1.683381 3.39521,-3.198273 3.39521,-3.36641 0,-0.168138 -1.85979,-0.538346 -4.13286,-0.822682 -6.13866,-0.767859 -6.04736,-0.705058 -8.42878,-5.797849 -1.13427,-2.425703 -2.15769,-4.414441 -2.274264,-4.419407 -0.11663,-0.0048 -1.132112,1.96956 -2.256788,4.387845 -1.390845,2.990564 -2.359252,4.540108 -3.027783,4.84471 -0.540583,0.246304 -2.91079,0.681492 -5.267107,0.967078 -2.356302,0.285586 -4.284192,0.660264 -4.284192,0.832614 0,0.172368 1.516942,1.680899 3.371008,3.352313 1.854051,1.671414 3.484547,3.396641 3.62332,3.833847 0.138739,0.437223 -0.138421,2.819174 -0.615791,5.293228 -0.477434,2.474053 -0.868068,4.583972 -0.868068,4.688699 0,0.406366 0.662714,0.119195 4.450753,-1.928995 z"
       id="path1" /></g></svg>
