<?xml version="1.0" encoding="UTF-8" standalone="no"?>
<!-- Created with Inkscape (http://www.inkscape.org/) -->

<svg
   width="200mm"
   height="215mm"
   viewBox="0 0 200 215"
   version="1.1"
   id="svg1"
   xml:space="preserve"
   inkscape:version="1.3.2 (091e20ef0f, 2023-11-25)"
   sodipodi:docname="security.svg"
   xmlns:inkscape="http://www.inkscape.org/namespaces/inkscape"
   xmlns:sodipodi="http://sodipodi.sourceforge.net/DTD/sodipodi-0.dtd"
   xmlns="http://www.w3.org/2000/svg"
   xmlns:svg="http://www.w3.org/2000/svg"><sodipodi:namedview
     id="namedview1"
     pagecolor="#ffffff"
     bordercolor="#000000"
     borderopacity="0.25"
     inkscape:showpageshadow="2"
     inkscape:pageopacity="0.0"
     inkscape:pagecheckerboard="0"
     inkscape:deskcolor="#d1d1d1"
     inkscape:document-units="mm"
     inkscape:zoom="0.25657875"
     inkscape:cx="514.46194"
     inkscape:cy="76.00006"
     inkscape:window-width="1366"
     inkscape:window-height="731"
     inkscape:window-x="0"
     inkscape:window-y="0"
     inkscape:window-maximized="1"
     inkscape:current-layer="layer1" /><defs
     id="defs1" /><g
     inkscape:label="Layer 1"
     inkscape:groupmode="layer"
     id="layer1"><path
       style="fill:#000000"
       d="m 103.25497,142.56307 c -4.806632,-1.34312 -6.902632,-6.95531 -4.149792,-11.11135 1.479152,-2.2331 4.459512,-3.57939 7.060472,-3.18935 l 1.16393,0.17455 6.65527,-6.62832 c 5.51386,-5.49153 6.81456,-6.65747 7.58407,-6.79829 1.6835,-0.30808 3.42952,0.75314 3.97914,2.4185 0.60564,1.83512 0.36267,2.17295 -6.58906,9.16159 l -6.52096,6.55559 -0.0168,2.04337 c -0.02,2.43509 -0.61538,3.98079 -2.10874,5.47414 -1.81923,1.81923 -4.63393,2.57682 -7.05758,1.89957 z"
       id="path1" /><path
       style="fill:none;stroke:#1a1a1a;stroke-width:2;stroke-dasharray:none"
       d="m 123.40766,95.967857 c -3.1625,-1.64613 -9.57442,-3.398095 -13.69379,-3.741637 l -2.17062,-0.181023 V 81.197498 70.349799 l 2.71198,0.186357 c 7.5788,0.520785 16.0396,2.781707 22.85355,6.106998 l 2.71082,1.322917 -5.35545,9.243256 c -2.94549,5.083791 -5.46791,9.27487 -5.60536,9.31352 -0.13746,0.0386 -0.79047,-0.21111 -1.45113,-0.55499 z"
       id="path7" /><path
       style="fill:none;stroke:#1a1a1a;stroke-width:2;stroke-dasharray:none"
       d="m 84.287248,94.833257 c -0.58005,-0.982265 -3.01521,-5.179218 -5.41146,-9.326562 l -4.35683,-7.540624 1.89391,-0.958503 c 6.76825,-3.425381 15.96656,-5.94139 23.657852,-6.471119 l 2.71003,-0.18665 v 10.847699 10.847699 l -2.1795,0.181762 c -4.079282,0.3402 -9.124932,1.687409 -13.133222,3.506628 -1.0732,0.48708 -1.99061,0.88561 -2.03871,0.88561 -0.0481,0 -0.56203,-0.80367 -1.14207,-1.78594 z"
       id="path6" /><path
       style="fill:none;stroke:#1a1a1a;stroke-width:2;stroke-dasharray:none"
       d="m 140.19541,109.67226 c -2.13957,-2.89313 -5.8785,-6.67906 -8.77357,-8.88385 -1.35429,-1.031393 -2.42921,-1.960633 -2.3887,-2.064983 0.0405,-0.10435 2.44972,-4.30868 5.35381,-9.342954 l 5.28017,-9.153229 0.93754,0.55249 c 2.55996,1.508572 7.3966,5.468966 10.60176,8.681054 3.21629,3.223235 7.20866,8.097809 8.68722,10.606842 l 0.55093,0.93489 -9.14251,5.28282 c -5.02837,2.90555 -9.24199,5.31929 -9.3636,5.36386 -0.1216,0.0446 -0.90597,-0.84504 -1.74305,-1.97694 z"
       id="path5" /><path
       style="fill:none;stroke:#1a1a1a;stroke-width:2;stroke-dasharray:none"
       d="m 59.071058,106.32076 -9.18156,-5.33531 0.54589,-0.92636 c 2.47497,-4.199943 9.60891,-12.057145 14.12979,-15.562331 2.29163,-1.776774 5.97671,-4.331934 6.0841,-4.218596 0.14285,0.150749 10.70022,18.499554 10.70022,18.597074 0,0.0574 -0.91939,0.7843 -2.04309,1.615313 -2.9106,2.15249 -6.71,5.91294 -8.85327,8.7625 -1.01243,1.34607 -1.92172,2.43741 -2.02065,2.4252 -0.0989,-0.0122 -4.31157,-2.42308 -9.36143,-5.35749 z"
       id="path4" /><path
       style="fill:none;stroke:#1a1a1a;stroke-width:2;stroke-dasharray:none"
       d="m 148.70784,133.46242 c -0.42547,-5.60879 -1.80498,-11.34711 -3.75829,-15.63337 -0.49844,-1.09376 -0.81416,-2.07849 -0.70159,-2.1883 0.11256,-0.1098 4.31232,-2.57716 9.33278,-5.48302 l 9.12813,-5.28338 0.9585,1.89169 c 3.69272,7.28792 6.15398,16.74089 6.50315,24.97659 l 0.15985,3.77032 h -10.73349 -10.73349 z"
       id="path3" /><path
       style="fill:none;stroke:#1a1a1a;stroke-width:2;stroke-dasharray:none"
       d="m 40.149348,131.74263 c 0.3255,-8.0435 2.55884,-16.83308 6.14286,-24.17604 l 1.32291,-2.71039 9.12808,5.28738 c 5.02044,2.90806 9.21962,5.37893 9.33151,5.49082 0.11189,0.11189 -0.20276,1.08823 -0.69921,2.16964 -1.93099,4.2062 -3.33386,10.04943 -3.75935,15.65838 l -0.15555,2.05053 h -10.73191 -10.73191 z"
       id="path2" /></g></svg>
