<?xml version="1.0" encoding="UTF-8" standalone="no"?>
<!-- Created with Inkscape (http://www.inkscape.org/) -->

<svg
   width="204mm"
   height="204mm"
   viewBox="0 0 204 204"
   version="1.1"
   id="svg1"
   xml:space="preserve"
   inkscape:version="1.3.2 (091e20ef0f, 2023-11-25)"
   sodipodi:docname="secure.svg"
   xmlns:inkscape="http://www.inkscape.org/namespaces/inkscape"
   xmlns:sodipodi="http://sodipodi.sourceforge.net/DTD/sodipodi-0.dtd"
   xmlns="http://www.w3.org/2000/svg"
   xmlns:svg="http://www.w3.org/2000/svg"><sodipodi:namedview
     id="namedview1"
     pagecolor="#ffffff"
     bordercolor="#000000"
     borderopacity="0.25"
     inkscape:showpageshadow="2"
     inkscape:pageopacity="0.0"
     inkscape:pagecheckerboard="0"
     inkscape:deskcolor="#d1d1d1"
     inkscape:document-units="mm"
     inkscape:zoom="0.38805556"
     inkscape:cx="396.85039"
     inkscape:cy="561.77523"
     inkscape:window-width="1366"
     inkscape:window-height="704"
     inkscape:window-x="26"
     inkscape:window-y="23"
     inkscape:window-maximized="0"
     inkscape:current-layer="layer1" /><defs
     id="defs1" /><g
     inkscape:label="Layer 1"
     inkscape:groupmode="layer"
     id="layer1"><path
       style="fill:#d6180a;stroke-width:1.12213;fill-opacity:1"
       d="m 68.341792,202.88555 c -4.045801,-1.50816 -6.019535,-4.56006 -5.772822,-8.92628 0.183861,-3.2539 1.489584,-5.45714 4.16239,-7.02351 l 1.710202,-1.00224 -0.0061,-10.94759 c -0.0034,-6.02118 -0.136939,-11.12609 -0.296897,-11.34427 -0.15996,-0.21817 -1.805013,-1.67201 -3.655673,-3.23074 -4.757115,-4.00671 -10.292442,-9.77049 -10.292442,-10.71722 0,-1.44767 1.500821,-2.87541 3.022607,-2.87541 1.223283,0 1.920972,0.51859 6.085532,4.52324 5.458343,5.24876 10.195372,9.01827 16.7331,13.31542 4.605255,3.02696 14.605324,8.31813 19.768459,10.45975 3.047392,1.26403 2.386222,1.39551 9.613212,-1.91168 12.48851,-5.71497 23.10271,-12.96809 32.80355,-22.41603 8.20477,-7.99088 12.06958,-13.05886 15.50681,-20.33428 4.65789,-9.85914 6.07444,-18.01694 6.10686,-35.168856 l 0.014,-7.3937 1.04305,-0.82046 c 1.31141,-1.03156 2.14011,-1.03507 3.43747,-0.0146 0.87469,0.68804 1.0417,1.16565 1.142,3.26588 l 0.11749,2.45998 8.36994,0.10672 8.36993,0.10671 1.00679,-1.71795 c 0.55373,-0.94488 1.75991,-2.23986 2.68039,-2.87776 1.51655,-1.05097 1.97667,-1.1598 4.90326,-1.1598 2.85414,0 3.41938,0.12554 4.86129,1.07976 3.82173,2.5291 5.06836,7.93618 2.74213,11.893616 -1.57832,2.68506 -3.69876,3.97715 -6.8569,4.17824 -3.82822,0.24376 -6.53549,-1.11731 -8.34383,-4.19486 l -0.99313,-1.690166 -8.36993,0.10672 -8.36994,0.10671 -0.2425,6.927596 c -0.13339,3.81019 -0.37882,7.6847 -0.54543,8.61003 l -0.30292,1.68243 h 4.38653 4.38651 l 0.65966,-1.39014 c 1.33606,-2.81554 4.342,-4.54782 7.8916,-4.54782 2.6743,0 4.65224,0.92295 6.60127,3.08029 4.90645,5.43086 0.80562,14.33769 -6.60127,14.33769 -3.55519,0 -6.55553,-1.73227 -7.89713,-4.55947 l -0.66518,-1.40177 -4.96574,0.11065 -4.96573,0.11064 -1.31238,4.01305 c -2.32453,7.10807 -6.25299,14.26147 -11.16608,20.33254 -3.06623,3.7889 -12.75714,13.28023 -17.12819,16.77543 -4.56887,3.65339 -12.30047,8.75099 -18.02697,11.88553 -6.7689,3.70515 -15.28803,7.36259 -17.14937,7.36259 -3.070812,0 -14.74899,-5.55886 -24.64187,-11.72963 -1.874242,-1.16907 -3.522023,-2.12559 -3.661735,-2.12559 -0.139712,0 -0.254022,3.99119 -0.254022,8.86931 v 8.8693 l 1.682418,0.98859 c 3.0696,1.80369 4.430659,4.51445 4.187111,8.33929 -0.198653,3.11978 -1.490655,5.27851 -4.060613,6.78461 -2.163057,1.26763 -5.341602,1.62579 -7.450769,0.83955 z m 4.537667,-5.93645 c 1.81022,-1.37532 1.393526,-4.71599 -0.652287,-5.22946 -1.678098,-0.42118 -2.993401,0.13501 -3.571667,1.5103 -1.201137,2.85666 1.837564,5.53221 4.223954,3.71916 z M 188.00177,120.39135 c 1.02317,-1.30075 0.98729,-2.18846 -0.14151,-3.50076 -1.77394,-2.06234 -5.01426,-0.91388 -5.01426,1.7772 0,2.94722 3.32018,4.05715 5.15577,1.72356 z m 9.34735,-22.972536 c 1.8297,-2.4083 -0.84391,-5.4329 -3.72983,-4.21947 -2.23901,0.94143 -2.23227,4.16662 0.0112,5.10972 1.40611,0.59121 2.85759,0.24378 3.71916,-0.89025 z M 97.735438,167.68148 C 90.231159,164.29486 81.708755,159.04 74.659399,153.45294 c -4.657792,-3.6916 -13.518471,-12.42747 -16.243866,-16.01508 -3.895268,-5.12758 -7.293641,-11.92968 -8.960004,-17.93411 -1.908242,-6.87601 -1.99143,-8.4157 -1.993122,-36.889366 l -0.0016,-26.794836 1.088624,-1.05446 c 0.673175,-0.65205 3.052563,-1.77067 6.234844,-2.93119 2.830422,-1.0322 6.946404,-2.70655 9.146627,-3.72078 5.114712,-2.3577 5.988407,-2.37878 7.12959,-0.17197 1.400696,2.70865 -0.463499,4.0661 -11.525859,8.392836 -2.612697,1.02188 -5.166739,2.0288 -5.675651,2.23761 l -0.925291,0.37965 0.18445,25.42692 c 0.156535,21.578726 0.284156,25.934986 0.843252,28.783896 1.420368,7.23757 4.592713,14.59179 8.626832,19.99896 2.617338,3.50818 10.956476,11.86531 15.354044,15.38718 5.21937,4.18003 12.303897,8.70934 18.704529,11.95826 l 5.838972,2.96384 5.8726,-2.97459 c 6.35265,-3.21774 13.33171,-7.68022 18.67091,-11.93838 4.34161,-3.46254 12.7064,-11.85345 15.31143,-15.35921 4.22048,-5.67984 7.32204,-12.95737 8.71097,-20.43953 0.61548,-3.31559 0.6966,-6.62582 0.70714,-28.855786 l 0.0119,-25.11057 -4.48156,-1.69489 c -6.47261,-2.447886 -12.52423,-5.296346 -19.07229,-8.977206 -10.66255,-5.993718 -14.81718,-7.540756 -21.84751,-8.135228 -8.099472,-0.684871 -15.451174,0.720319 -22.628853,4.325234 -4.316373,2.167844 -5.758106,2.393834 -6.970428,1.092554 -1.817752,-1.95113 -0.630094,-3.8612 3.834143,-6.166351 6.971951,-3.600022 13.817504,-5.23903 21.881548,-5.23903 9.08707,0 15.95068,1.889704 24.5703,6.764759 7.72905,4.371362 17.34373,8.981422 23.0485,11.051322 3.26246,1.18374 5.63833,2.29379 6.31755,2.95169 l 1.08862,1.05446 -0.001,26.794836 c -0.002,28.473666 -0.0848,30.013356 -1.99312,36.889366 -1.67737,6.0441 -5.11239,12.90257 -8.97867,17.92709 -4.82529,6.27082 -13.74541,14.5194 -21.88325,20.23581 -7.42563,5.21612 -19.72098,11.71201 -22.16834,11.71201 -0.54432,0 -2.681982,-0.76373 -4.750362,-1.69718 z M 48.171634,143.23393 c -1.027399,-0.59903 -5.007924,-7.23431 -6.873957,-11.45843 -4.050394,-9.16885 -5.363201,-15.48701 -5.675503,-27.31456 l -0.235185,-8.906916 -3.834434,-0.113 -3.834435,-0.113 -0.666314,1.40416 c -1.342726,2.82959 -4.341927,4.561856 -7.898261,4.561856 -2.674306,0 -4.652239,-0.92294 -6.601269,-3.080286 -4.9237669,-5.45002 -0.831762,-14.33769 6.601269,-14.33769 3.556334,0 6.555535,1.73227 7.898261,4.56185 l 0.666314,1.40416 3.834435,-0.113 3.834434,-0.113 v -8.51105 -8.51106 l -8.369933,-0.10671 -8.369935,-0.10672 -0.993126,1.69017 c -1.808337,3.07754 -4.515603,4.43862 -8.3438296,4.19486 -3.1581343,-0.2011 -5.2785885,-1.4932 -6.8568993,-4.17824 -2.32623415,-3.95745 -1.0796052,-9.36453 2.742132,-11.89364 1.441912,-0.9542 2.00715,-1.07976 4.8612879,-1.07976 2.92659,0 3.38671,0.10885 4.903261,1.15982 0.92048,0.63788 2.126655,1.93288 2.680388,2.87775 l 1.006786,1.71795 8.369935,-0.10672 8.369933,-0.10671 0.197932,-9.89657 c 0.13629,-6.814456 0.35063,-10.163236 0.688243,-10.752806 0.541019,-0.94478 2.047225,-1.559066 7.541943,-3.075874 7.924139,-2.187461 18.040804,-6.676312 28.575231,-12.6791 10.141382,-5.778821 18.932879,-8.16867 30.049182,-8.168457 11.88638,2.36e-4 20.92886,2.610482 32.23028,9.303785 3.04638,1.80422 8.37364,4.589631 8.77795,4.589631 0.1143,0 0.20781,-3.991187 0.20781,-8.869295 v -8.869307 l -1.7102,-1.002243 c -0.94061,-0.551236 -2.23211,-1.755373 -2.87,-2.675847 -1.05098,-1.51655 -1.15981,-1.97668 -1.15981,-4.9032673 0,-2.854131 0.12554,-3.419371 1.07976,-4.861288 2.5291,-3.82173301 7.93618,-5.06836601 11.89362,-2.74213 2.68506,1.578312 3.97716,3.69877 4.17824,6.856898 0.24373,3.8276813 -1.11734,6.5355083 -4.19359,8.3430943 l -1.68891,0.992391 0.10548,10.295424 0.10548,10.295411 2.93482,1.164425 c 1.61415,0.640434 5.08786,1.79246 7.71934,2.560043 7.36506,2.148355 8.09777,2.460186 8.75155,3.724436 0.48688,0.94152 0.58536,3.6995 0.58536,16.392366 0,14.73257 -0.0274,15.28776 -0.79172,16.05211 -1.0179,1.01789 -2.94074,1.01789 -3.95864,0 -0.76196,-0.76197 -0.79172,-1.31954 -0.79172,-14.83381 V 49.853958 l -2.27621,-0.63385 c -10.5049,-2.92526 -19.68091,-6.880606 -30.79616,-13.274815 -11.16695,-6.423935 -21.59173,-8.915931 -32.896972,-7.863877 -8.756283,0.814859 -14.972382,2.914558 -24.187213,8.170062 -11.098391,6.329764 -20.862987,10.4903 -30.912132,13.17117 l -1.715953,0.45777 0.180422,30.358206 c 0.169981,28.601136 0.22786,30.610546 1.000037,34.718266 1.504489,8.00338 4.630974,15.98442 8.770921,22.38973 1.844739,2.85417 1.976552,3.98061 0.624058,5.33311 -1.014679,1.01467 -2.316681,1.223 -3.463739,0.5542 z M 21.738068,94.152884 c 1.702171,-3.18052 -2.290505,-6.10531 -4.626753,-3.38926 -0.508027,0.59062 -0.923687,1.38056 -0.923687,1.75542 0,0.95956 1.11586,2.44016 2.118586,2.81109 1.077184,0.39848 2.928413,-0.23655 3.431854,-1.17725 z m -9.257024,-22.86104 c 1.829703,-2.4083 -0.84392,-5.4329 -3.7298336,-4.21946 -2.2390083,0.94143 -2.2322723,4.16662 0.01066,5.1097 1.4061066,0.59123 2.8575806,0.2438 3.7191606,-0.89024 z M 148.09346,12.081019 c 1.81022,-1.375307 1.39353,-4.7159833 -0.65228,-5.2294483 -1.67811,-0.421181 -2.9934,0.135003 -3.57167,1.510288 -1.20114,2.8566673 1.83756,5.5322223 4.22395,3.7191603 z M 83.057494,126.5209 c -0.734622,-0.49507 -1.740727,-1.50117 -2.235788,-2.2358 -0.894495,-1.32733 -0.900112,-1.42389 -0.900112,-15.46966 0,-14.005806 0.0081,-14.145856 0.890692,-15.442686 1.313602,-1.93008 2.845903,-2.90298 4.953757,-3.14529 l 1.874881,-0.21552 0.219146,-4.55243 c 0.166305,-3.45475 0.423458,-5.00588 1.066497,-6.43308 1.174196,-2.60606 4.514733,-6.01133 7.182075,-7.32127 1.995316,-0.97989 2.642266,-1.09052 6.377158,-1.09052 3.73489,0 4.38183,0.11065 6.37715,1.09052 2.66734,1.30994 6.00787,4.71521 7.18207,7.32127 0.64304,1.4272 0.9002,2.97833 1.0665,6.43308 l 0.21915,4.55243 1.87488,0.21552 c 2.10784,0.24231 3.64015,1.21521 4.95375,3.14529 0.88261,1.29683 0.89069,1.43688 0.89069,15.442686 0,14.04577 -0.006,14.14233 -0.9001,15.46966 -0.49507,0.73463 -1.50117,1.74073 -2.2358,2.2358 l -1.33567,0.9001 H 102.4858 84.393171 Z m 35.828346,-5.26405 c 0.53774,-0.53773 0.62207,-2.22438 0.62207,-12.44141 0,-10.217036 -0.0843,-11.903666 -0.62207,-12.441416 -0.5447,-0.54471 -2.58424,-0.62207 -16.40004,-0.62207 -13.815803,0 -15.855343,0.0773 -16.400052,0.62207 -0.537739,0.53775 -0.622072,2.22438 -0.622072,12.441416 0,10.21703 0.08433,11.90368 0.622072,12.44141 0.544709,0.54471 2.584249,0.62207 16.400052,0.62207 13.8158,0 15.85534,-0.0773 16.40004,-0.62207 z m -18.12804,-1.38598 c -0.913812,-0.7188 -1.043042,-1.10652 -1.043042,-3.12929 0,-2.30359 -0.003,-2.3111 -1.71021,-3.31107 -0.9406,-0.55124 -2.232119,-1.75537 -2.870007,-2.67585 -1.050971,-1.51655 -1.159806,-1.97668 -1.159806,-4.90326 0,-2.85413 0.125547,-3.41937 1.079759,-4.86129 3.420564,-5.168806 11.433496,-5.181706 14.846776,-0.0239 0.79974,1.2085 1.10395,2.23619 1.2251,4.13868 0.24355,3.82484 -1.11751,6.5356 -4.18711,8.33929 -1.67401,0.98364 -1.68243,1.00012 -1.68243,3.29742 0,2.02276 -0.12922,2.41048 -1.04304,3.12928 -0.57367,0.45126 -1.35127,0.82046 -1.72799,0.82046 -0.37672,0 -1.15433,-0.3692 -1.728,-0.82046 z m 3.39486,-11.59512 c 1.81021,-1.37531 1.39352,-4.71598 -0.6523,-5.22945 -1.67809,-0.42118 -2.9934,0.13501 -3.571672,1.51029 -1.20113,2.85667 1.837572,5.53222 4.223972,3.71916 z m 7.18944,-21.846546 c -0.0388,-2.75118 -0.23718,-3.94561 -0.85444,-5.14621 -1.64945,-3.20831 -4.52274,-5.00751 -7.99693,-5.00751 -3.503452,0 -6.437768,1.86177 -8.087721,5.13149 -0.684753,1.35698 -1.30818,7.09046 -0.889588,8.18129 0.216162,0.56331 1.262048,0.6245 9.061829,0.53024 l 8.81747,-0.1066 z"
       id="path1" /></g></svg>
