<svg width="22" height="22" viewBox="0 0 22 22" fill="none" xmlns="http://www.w3.org/2000/svg">
<g id="transform-tool">
<path id="Vector" d="M17.7896 14.3216V6.93725C18.2133 6.78964 18.5925 6.53687 18.8918 6.20263C19.1911 5.8684 19.4007 5.46364 19.5008 5.0263C19.6009 4.58896 19.5884 4.13335 19.4643 3.70218C19.3403 3.27102 19.1088 2.87841 18.7915 2.56116C18.4743 2.24391 18.0817 2.01241 17.6505 1.88835C17.2193 1.76429 16.7637 1.75174 16.3264 1.85187C15.889 1.952 15.4843 2.16154 15.15 2.46084C14.8158 2.76014 14.563 3.1394 14.4154 3.56308H7.03112C6.88351 3.1394 6.63074 2.76014 6.29651 2.46084C5.96227 2.16154 5.55751 1.952 5.12017 1.85187C4.68283 1.75174 4.22722 1.76429 3.79606 1.88835C3.36489 2.01241 2.97228 2.24391 2.65504 2.56116C2.33779 2.87841 2.10628 3.27102 1.98222 3.70218C1.85816 4.13335 1.84561 4.58896 1.94574 5.0263C2.04587 5.46364 2.25541 5.8684 2.55471 6.20263C2.85401 6.53687 3.23327 6.78964 3.65696 6.93725V14.3216C3.23327 14.4692 2.85401 14.7219 2.55471 15.0562C2.25541 15.3904 2.04587 15.7952 1.94574 16.2325C1.84561 16.6698 1.85816 17.1255 1.98222 17.5566C2.10628 17.9878 2.33779 18.3804 2.65504 18.6976C2.97228 19.0149 3.36489 19.2464 3.79606 19.3705C4.22722 19.4945 4.68283 19.5071 5.12017 19.4069C5.55751 19.3068 5.96227 19.0973 6.29651 18.798C6.63074 18.4987 6.88351 18.1194 7.03112 17.6957H14.4154C14.563 18.1194 14.8158 18.4987 15.15 18.798C15.4843 19.0973 15.889 19.3068 16.3264 19.4069C16.7637 19.5071 17.2193 19.4945 17.6505 19.3705C18.0817 19.2464 18.4743 19.0149 18.7915 18.6976C19.1088 18.3804 19.3403 17.9878 19.4643 17.5566C19.5884 17.1255 19.6009 16.6698 19.5008 16.2325C19.4007 15.7952 19.1911 15.3904 18.8918 15.0562C18.5925 14.7219 18.2133 14.4692 17.7896 14.3216ZM16.9063 3.56308C17.081 3.56308 17.2518 3.61489 17.397 3.71194C17.5423 3.809 17.6555 3.94695 17.7224 4.10835C17.7892 4.26975 17.8067 4.44735 17.7726 4.61869C17.7385 4.79004 17.6544 4.94742 17.5309 5.07095C17.4074 5.19448 17.25 5.27861 17.0786 5.31269C16.9073 5.34677 16.7297 5.32928 16.5683 5.26243C16.4069 5.19557 16.2689 5.08236 16.1719 4.9371C16.0748 4.79185 16.023 4.62107 16.023 4.44637C16.023 4.21211 16.1161 3.98744 16.2817 3.82179C16.4474 3.65614 16.672 3.56308 16.9063 3.56308ZM4.54024 3.56308C4.71494 3.56308 4.88572 3.61489 5.03097 3.71194C5.17623 3.809 5.28944 3.94695 5.3563 4.10835C5.42315 4.26975 5.44064 4.44735 5.40656 4.61869C5.37248 4.79004 5.28836 4.94742 5.16482 5.07095C5.04129 5.19448 4.88391 5.27861 4.71257 5.31269C4.54122 5.34677 4.36362 5.32928 4.20222 5.26243C4.04082 5.19557 3.90287 5.08236 3.80582 4.9371C3.70876 4.79185 3.65696 4.62107 3.65696 4.44637C3.65696 4.21211 3.75002 3.98744 3.91566 3.82179C4.08131 3.65614 4.30598 3.56308 4.54024 3.56308ZM4.54024 17.6957C4.36555 17.6957 4.19477 17.6439 4.04952 17.5469C3.90426 17.4498 3.79105 17.3119 3.72419 17.1505C3.65734 16.9891 3.63985 16.8115 3.67393 16.6401C3.70801 16.4688 3.79213 16.3114 3.91566 16.1878C4.0392 16.0643 4.19658 15.9802 4.36792 15.9461C4.53927 15.912 4.71687 15.9295 4.87827 15.9964C5.03967 16.0632 5.17762 16.1764 5.27467 16.3217C5.37173 16.467 5.42353 16.6377 5.42353 16.8124C5.42353 17.0467 5.33047 17.2714 5.16482 17.437C4.99918 17.6027 4.77451 17.6957 4.54024 17.6957ZM14.4154 15.9291H7.03112C6.89923 15.5587 6.68655 15.2222 6.40849 14.9442C6.13044 14.6661 5.79398 14.4534 5.42353 14.3216V6.93725C5.79398 6.80536 6.13044 6.59267 6.40849 6.31462C6.68655 6.03656 6.89923 5.70011 7.03112 5.32966H14.4154C14.5473 5.70011 14.76 6.03656 15.0381 6.31462C15.3161 6.59267 15.6526 6.80536 16.023 6.93725V14.3216C15.6526 14.4534 15.3161 14.6661 15.0381 14.9442C14.76 15.2222 14.5473 15.5587 14.4154 15.9291ZM16.9063 17.6957C16.7316 17.6957 16.5608 17.6439 16.4156 17.5469C16.2703 17.4498 16.1571 17.3119 16.0903 17.1505C16.0234 16.9891 16.0059 16.8115 16.04 16.6401C16.0741 16.4688 16.1582 16.3114 16.2817 16.1878C16.4053 16.0643 16.5626 15.9802 16.734 15.9461C16.9053 15.912 17.0829 15.9295 17.2443 15.9964C17.4057 16.0632 17.5437 16.1764 17.6407 16.3217C17.7378 16.467 17.7896 16.6377 17.7896 16.8124C17.7896 17.0467 17.6965 17.2714 17.5309 17.437C17.3652 17.6027 17.1406 17.6957 16.9063 17.6957Z" fill="#8A8A8A"/>
</g>
</svg>
