<svg xmlns="http://www.w3.org/2000/svg" width="97" height="97" fill="none"><path fill="url(#a)" d="M66.571 81.845c14.234-6.832 24.062-21.38 24.062-38.224 0-23.403-18.972-42.375-42.375-42.375S5.883 20.218 5.883 43.621c0 16.758 9.5 30.125 23.845 38.12 15.07 8.666 38.563 14.263 39.055 13.918.094-.067-.486-3.21-1.29-6.983-.89-4.177-1.167-6.13-.922-6.83Z"/><g clip-path="url(#b)"><path fill="#FBFBF9" d="M75.472 38.193a14.497 14.497 0 0 0-5.227-6.344 14.239 14.239 0 0 0-3.773-1.808 14.167 14.167 0 0 0-4.284-.652 14.4 14.4 0 0 0-5.423 1.054c-.14.055-.27.11-.4.176a14.482 14.482 0 0 0-4.071 2.702c-.382.363-.745.745-1.11 1.174a43.542 43.542 0 0 0-1.946 2.44l-.4.54c-.354.485-3.736 5.441-4.332 6.326-.299.447-.653.95-1.035 1.5-.084.12-.176.252-.27.382a70.449 70.449 0 0 1-1.993 2.693c-.326.418-.652.81-.932 1.136-.288.335-.55.605-.736.782a8.888 8.888 0 0 1-6.13 2.44 8.89 8.89 0 0 1-3.474-.707 8.901 8.901 0 0 1-3.932-3.233 8.894 8.894 0 0 1-1.127-2.338 8.981 8.981 0 0 1 .298-6.13 9.037 9.037 0 0 1 3.243-3.931 8.848 8.848 0 0 1 2.338-1.118 8.88 8.88 0 0 1 2.654-.41 9.084 9.084 0 0 1 3.355.652 9.16 9.16 0 0 1 2.775 1.788c.187.178.448.457.736.783.503.587 1.1 1.341 1.696 2.134.233.317.466.633.699.959.894-1.304 2.459-3.596 3.278-4.78l-.418-.558a29.138 29.138 0 0 0-1.118-1.35 16.33 16.33 0 0 0-1.11-1.174 14.525 14.525 0 0 0-4.47-2.879 14.406 14.406 0 0 0-5.423-1.053 14.4 14.4 0 0 0-11.952 6.354 14.708 14.708 0 0 0-1.816 3.772A14.507 14.507 0 0 0 19 43.801c0 1.984.4 3.885 1.127 5.608a14.492 14.492 0 0 0 5.217 6.345 14.766 14.766 0 0 0 3.782 1.816c1.351.419 2.795.643 4.285.643 1.91 0 3.746-.373 5.422-1.053a14.666 14.666 0 0 0 4.463-2.87l.009-.008a15.06 15.06 0 0 0 1.109-1.175 43.447 43.447 0 0 0 1.947-2.44c.13-.177.27-.355.4-.531.354-.494 4.985-7.286 5.366-7.835.084-.121.177-.251.27-.382a77.624 77.624 0 0 1 1.994-2.692c.326-.42.652-.81.932-1.136.288-.336.55-.606.736-.784a9.16 9.16 0 0 1 2.775-1.788c.252-.102.504-.185.764-.27a9.462 9.462 0 0 1 2.59-.381 8.925 8.925 0 0 1 3.475.707 8.891 8.891 0 0 1 3.93 3.233 8.873 8.873 0 0 1 1.53 4.993 8.938 8.938 0 0 1-.7 3.475 8.98 8.98 0 0 1-3.242 3.93 8.54 8.54 0 0 1-2.338 1.119 8.888 8.888 0 0 1-8.785-2.03 13.79 13.79 0 0 1-.735-.783 40.952 40.952 0 0 1-1.696-2.133c-.242-.317-.475-.644-.708-.97-.075.112-.15.224-.233.345-1.537 2.255-2.506 3.68-3.037 4.453.14.186.28.364.419.55.373.475.746.932 1.118 1.35.364.429.727.82 1.109 1.175a14.564 14.564 0 0 0 4.471 2.878 14.421 14.421 0 0 0 5.422 1.053c1.984 0 3.885-.4 5.608-1.127a14.454 14.454 0 0 0 6.345-5.227 14.26 14.26 0 0 0 2.459-8.058c0-1.984-.4-3.884-1.127-5.608Z"/></g><defs><radialGradient id="a" cx="0" cy="0" r="1" gradientTransform="rotate(-134.335 93.628 26.39) scale(267.725 304.217)" gradientUnits="userSpaceOnUse"><stop offset=".295" stop-color="#635EF6"/><stop offset=".585" stop-color="#F50057"/></radialGradient><clipPath id="b"><path fill="#fff" d="M19 15h57.6v57.6H19z"/></clipPath></defs></svg>