<?xml version="1.0" encoding="UTF-8" standalone="no"?>
<!-- Created with Inkscape (http://www.inkscape.org/) -->

<svg
   width="149.396mm"
   height="131.942mm"
   viewBox="0 0 149.396 131.942"
   version="1.1"
   id="svg1"
   xml:space="preserve"
   inkscape:version="1.3.2 (091e20ef0f, 2023-11-25)"
   sodipodi:docname="UIUX.svg"
   xmlns:inkscape="http://www.inkscape.org/namespaces/inkscape"
   xmlns:sodipodi="http://sodipodi.sourceforge.net/DTD/sodipodi-0.dtd"
   xmlns="http://www.w3.org/2000/svg"
   xmlns:svg="http://www.w3.org/2000/svg"><sodipodi:namedview
     id="namedview1"
     pagecolor="#ffffff"
     bordercolor="#000000"
     borderopacity="0.25"
     inkscape:showpageshadow="2"
     inkscape:pageopacity="0.0"
     inkscape:pagecheckerboard="0"
     inkscape:deskcolor="#d1d1d1"
     inkscape:document-units="mm"
     inkscape:zoom="0.63748732"
     inkscape:cx="290.20185"
     inkscape:cy="180.39575"
     inkscape:window-width="1366"
     inkscape:window-height="704"
     inkscape:window-x="0"
     inkscape:window-y="0"
     inkscape:window-maximized="1"
     inkscape:current-layer="layer1" /><defs
     id="defs1" /><g
     inkscape:label="Layer 1"
     inkscape:groupmode="layer"
     id="layer1"><path
       style="fill:#d6180a;fill-opacity:1;stroke-width:1.49147"
       d="m 76.234567,63.51162 c 1.437943,-1.131088 1.437943,-3.152435 0,-4.283523 -0.571861,-0.449828 -1.347023,-0.817878 -1.722561,-0.817878 -1.299893,0 -2.762326,1.542152 -2.762326,2.91286 0,2.675611 2.385684,3.83978 4.484887,2.188541 z"
       id="path31" /><path
       style="fill:#d6180a;fill-opacity:1;stroke-width:1.49147"
       d="m 134.7308,14.4497 c 1.14111,-1.14111 1.34172,-1.616025 1.34172,-3.176537 0,-2.3733953 -0.81316,-3.8975307 -2.50863,-4.7020903 -2.56887,-1.2189951 -5.15978,-0.4947213 -6.58358,1.840387 -2.04233,3.3495343 0.38765,7.3799543 4.44946,7.3799543 1.7021,0 2.13548,-0.176158 3.30103,-1.341714 z"
       id="path30" /><path
       style="fill:#d6180a;fill-opacity:1;stroke-width:1.49147"
       d="m 20.723727,15.019562 c 3.366594,-2.052743 2.2303,-7.9562737 -1.722346,-8.9483115 -4.959836,-1.2448422 -8.325488,5.3439305 -4.410876,8.6349535 1.602178,1.346963 4.218821,1.480644 6.133222,0.313358 z"
       id="path29" /><path
       style="fill:#d6180a;fill-opacity:1;stroke-width:1.49147"
       d="M 80.418787,13.719654 C 80.38687,12.146122 80.266925,9.5712284 80.152321,7.9976806 L 79.943932,5.1367091 h -5.454999 c -3.431877,0 -5.551319,0.155814 -5.714665,0.4201327 -0.142883,0.2310738 -0.131846,2.8059512 0.02431,5.7219732 l 0.283962,5.301826 h 5.69717 5.69717 z"
       id="path28" /><path
       style="fill:#d6180a;fill-opacity:1;stroke-width:1.49147"
       d="m 126.3057,64.726171 1.87444,-0.0015 V 59.20005 53.675384 h -5.72198 -5.72197 v 5.781497 5.781483 l 3.84754,-0.254788 c 2.11614,-0.140199 4.69103,-0.255698 5.72197,-0.256817 z"
       id="path27" /><path
       style="fill:#d6180a;fill-opacity:1;stroke-width:1.49147"
       d="m 30.807998,64.726171 1.874437,-0.0015 -0.0028,-2.860986 c -0.0015,-1.573548 -0.116007,-4.059638 -0.254374,-5.524666 l -0.251568,-2.66368 H 26.508787 20.84388 l 0.0024,2.466373 c 0.0013,1.356494 0.118333,3.956308 0.260069,5.777366 l 0.257706,3.310993 3.784771,-0.250656 c 2.081624,-0.137813 4.628268,-0.251582 5.659209,-0.252716 z"
       id="path26" /><path
       style="fill:#d6180a;fill-opacity:1;stroke-width:1.49147"
       d="m 17.779788,68.504204 -1.474025,-1.349962 -0.128982,-7.430305 c -0.172704,-9.949273 0.26609,-10.794773 5.800029,-11.176083 l 2.908722,-0.200409 1.143588,-3.551568 c 1.579244,-4.904542 4.63968,-10.864569 7.611932,-14.823786 4.336093,-5.775934 11.144424,-11.698063 16.70056,-14.526744 0.922431,-0.469605 1.677131,-0.939016 1.677131,-1.04312 0,-0.104105 -5.501325,-0.189298 -12.225149,-0.189298 H 27.56843 l -0.761118,1.479824 C 24.623773,19.938153 19.413028,21.92906 14.378449,20.44154 12.210873,19.801117 8.94179,16.532034 8.3013594,14.364463 6.2738567,7.5022434 10.701132,1.0708368 17.476192,1.0363689 c 3.048585,-0.015511 5.051005,0.6836461 6.999405,2.4439113 1.565658,1.4144823 3.076792,3.8677003 3.076792,4.9949548 0,0.5383171 2.071294,0.6076556 18.15246,0.6076556 h 18.152453 l 0.0015,-2.6636796 c 0.0015,-2.9138293 0.791062,-4.7541419 2.443777,-5.69678208 1.288796,-0.73507198 15.130104,-0.73507198 16.4189,0 1.652715,0.94264018 2.442166,2.78295278 2.443777,5.69678208 l 0.0015,2.6636796 h 18.152454 c 16.08117,0 18.15246,-0.069354 18.15246,-0.6076556 0,-1.0253124 1.43921,-3.4686271 2.82641,-4.798349 2.3526,-2.2551207 5.92642,-3.21895469 9.22411,-2.4877009 9.15869,2.0309227 10.87254,14.4392399 2.57555,18.6470559 -2.63946,1.338611 -6.41124,1.485536 -8.9041,0.346872 -1.70877,-0.780517 -4.67793,-3.756482 -5.11181,-5.12349 -0.26735,-0.842354 -0.33268,-0.846694 -12.765,-0.846694 H 96.820476 l 2.727589,1.593906 c 6.514665,3.806953 11.684595,8.396839 15.973625,14.181469 2.88631,3.892757 6.79043,11.649083 7.8506,15.596815 l 0.74184,2.762326 3.11821,0.198589 c 5.72418,0.364561 6.17304,1.205766 6.00346,11.250881 l -0.1229,7.28168 -1.28913,1.289124 -1.28914,1.289139 -7.34906,0.123643 c -8.12098,0.136619 -9.07849,-0.04981 -10.49868,-2.044301 -0.77589,-1.08964 -0.88836,-1.82322 -1.02122,-6.660914 -0.21003,-7.648284 0.0881,-9.60009 1.71492,-11.226913 1.13426,-1.134265 1.56507,-1.303621 3.31618,-1.303621 2.39006,0 2.41552,-0.0953 1.01783,-3.808564 C 112.93258,32.031546 103.44961,22.31823 91.053192,17.427171 89.407337,16.777799 87.409585,16.124325 86.613736,15.975029 l -1.446997,-0.271463 v 1.430888 c 0,1.078648 -0.332315,1.793719 -1.349961,2.904896 l -1.349961,1.474022 -7.304604,0.122748 C 69.051085,21.738882 67.656902,21.65506 66.629248,21.123695 65.158,20.36288 63.860837,18.37433 63.858809,16.876579 c -0.0015,-1.331557 -0.230164,-1.336687 -3.975072,-0.08949 -12.499654,4.162774 -23.068091,14.247079 -27.905995,26.627639 -0.636089,1.627793 -1.273865,3.44797 -1.417278,4.044842 -0.255548,1.063539 -0.224784,1.085196 1.542148,1.085196 2.116483,0 3.75734,0.751478 4.66474,2.136354 0.545342,0.832286 0.650536,2.178668 0.650536,8.326761 0,10.972178 0.125731,10.846298 -10.838213,10.846298 h -7.325837 z"
       id="path25" /><path
       style="fill:#d6180a;fill-opacity:1;stroke-width:1.51933"
       d="m 86.879128,97.00442 c 0.685824,-6.809128 4.648143,-12.528149 10.37556,-14.975594 1.353242,-0.578275 2.263383,-1.205628 2.189943,-1.50954 C 99.208128,79.54046 77.47219,38.880778 77.175686,38.86253 c -0.16278,-0.0092 -0.295968,2.918417 -0.295968,6.507616 v 6.525839 l 1.57304,0.917443 c 0.865189,0.504589 2.06384,1.652348 2.66368,2.55057 0.943386,1.412652 1.090624,2.029574 1.090624,4.569666 0,2.540091 -0.147208,3.157013 -1.090624,4.569666 -4.477563,6.704811 -14.496795,3.57595 -14.496795,-4.52715 0,-2.978886 1.266394,-5.403316 3.613195,-6.91719 l 1.911456,-1.233025 v -6.490828 c 0,-3.569946 -0.133188,-6.485577 -0.295968,-6.479185 -0.216025,0.0078 -21.802159,40.060342 -22.49902,41.745658 -0.05742,0.138826 0.56409,0.495271 1.381163,0.791953 6.352836,2.306803 11.548364,9.732297 11.548364,16.505022 v 1.551979 h 12.176959 12.17696 z"
       id="path23" /><path
       style="fill:#d6180a;fill-opacity:1;stroke-width:1.49147"
       d="m 96.122616,117.89899 0.103955,-13.31838 H 74.776832 53.327152 l -0.259576,7.1664 c -0.33591,9.27323 -0.332449,19.06865 0.0075,19.40794 0.146612,0.14662 9.868951,0.22055 21.60536,0.16444 l 21.338923,-0.10202 z"
       id="path20" /></g></svg>
