<svg width="32" height="32" viewBox="0 0 32 32" fill="none" xmlns="http://www.w3.org/2000/svg">
<g id="user" clip-path="url(#clip0_430_9111)">
<path id="Vector" d="M31.0331 8.11625C30.1938 5.02375 26.9775 1.80813 23.885 0.968125C21.9894 0.495 19.4487 0.008125 16.0006 0C12.5525 0.00875 10.0125 0.495 8.11625 0.968125C5.02437 1.80813 1.80813 5.02375 0.96875 8.11625C0.495625 10.0119 0.009375 12.5525 0 16C0.00875 19.4481 0.495 21.9881 0.968125 23.8844C1.80813 26.9769 5.02375 30.1925 8.11625 31.0325C10.0125 31.5056 12.5525 31.9919 16.0006 32.0006C19.4481 31.9919 21.9888 31.5056 23.885 31.0325C26.9775 30.1925 30.1931 26.9769 31.0331 23.8844C31.5063 21.9888 31.9925 19.4481 32.0013 16C31.9925 12.5519 31.5063 10.0119 31.0331 8.11563V8.11625Z" fill="#EBF4FF"/>
<path id="Vector_2" d="M27.7897 22.8886C27.1309 21.7899 24.6078 20.6468 22.1822 20.3486C20.6947 20.1805 18.7022 20.0074 15.9972 20.0049C13.2922 20.008 11.2991 20.1805 9.81219 20.3486C7.38656 20.6474 4.86344 21.7899 4.20469 22.8886C3.83344 23.5624 3.45219 24.4649 3.44531 25.6905C3.45219 26.9155 3.83344 27.8186 4.20469 28.4924C4.86344 29.5911 7.38656 30.7343 9.81219 31.0324C11.2997 31.2005 13.2928 31.3736 15.9972 31.3761C18.7022 31.373 20.6947 31.1999 22.1822 31.0324C24.6084 30.7343 27.1309 29.5911 27.7897 28.4924C28.1603 27.8186 28.5422 26.9161 28.5491 25.6905C28.5422 24.4655 28.1603 23.5624 27.7897 22.8886Z" fill="url(#paint0_radial_430_9111)"/>
<g id="Group">
<path id="Vector_3" d="M15.6431 26.5635C15.8769 26.6654 16.1444 26.6654 16.3781 26.5635C19.1462 25.3585 24.825 19.6091 24.825 14.1697C24.825 9.3041 20.8806 5.36035 16.0156 5.36035H15.9969C11.1312 5.36035 7.1875 9.30473 7.1875 14.1697C7.1875 19.6097 12.875 25.3585 15.6438 26.5635H15.6431Z" fill="url(#paint1_linear_430_9111)"/>
</g>
<path id="Vector_4" d="M14.7426 19.9688L16.0983 19.4752L17.4894 19.9833C17.556 20.0062 17.6289 19.9958 17.6851 19.9542C17.7413 19.9125 17.7726 19.8438 17.7684 19.773C17.6976 18.6631 16.6251 17.7405 16.3065 17.4906V16.7826H17.9871C18.1016 16.7826 18.1953 16.691 18.1953 16.5743C18.1953 16.4598 18.1016 16.3661 17.9871 16.3661H16.3065V15.5435H17.9871C18.1016 15.5435 18.1953 15.4519 18.1953 15.3353C18.1953 15.2207 18.1016 15.127 17.9871 15.127H16.3065V14.3045H17.9871C18.1016 14.3045 18.1953 14.2128 18.1953 14.0962C18.1953 13.9817 18.1016 13.888 17.9871 13.888H16.3065V13.2882H17.9871C18.0475 13.2882 18.1037 13.2611 18.1433 13.2153C18.1828 13.1695 18.2016 13.1091 18.1911 13.0487C18.0808 12.2803 17.3707 11.1912 16.2461 10.0604C16.2066 10.0229 16.1524 10 16.0983 10C16.042 10 15.99 10.0229 15.9504 10.0604C14.8238 11.1912 14.1158 12.2803 14.0033 13.0487C14.0012 13.0591 14.0012 13.0696 14.0012 13.08C14.0012 13.1279 14.02 13.1778 14.0512 13.2153C14.0908 13.2611 14.1491 13.2882 14.2095 13.2882H15.89V13.888H14.2095C14.0949 13.888 14.0012 13.9817 14.0012 14.0962C14.0012 14.2128 14.0949 14.3045 14.2095 14.3045H15.89V15.127H14.2095C14.0949 15.127 14.0012 15.2207 14.0012 15.3353C14.0012 15.4519 14.0949 15.5435 14.2095 15.5435H15.89V16.3661H14.2095C14.0949 16.3661 14.0012 16.4598 14.0012 16.5743C14.0012 16.691 14.0949 16.7826 14.2095 16.7826H15.89V17.4885C15.5735 17.7384 14.4989 18.661 14.4281 19.773C14.426 19.7793 14.426 19.7834 14.426 19.7876V19.7897C14.426 19.9063 14.5198 20 14.6343 20C14.6739 20 14.7113 19.9896 14.7426 19.9688ZM15.9504 11.7909C15.8671 11.7076 15.8734 11.5702 15.9504 11.4973C16.0337 11.414 16.1649 11.4161 16.244 11.4952C16.3232 11.5743 16.3232 11.7139 16.244 11.7909C16.1691 11.8701 16.0316 11.8721 15.9504 11.7909Z" fill="white"/>
</g>
<defs>
<radialGradient id="paint0_radial_430_9111" cx="0" cy="0" r="1" gradientUnits="userSpaceOnUse" gradientTransform="translate(15.9966 26.325) scale(12.5519 5.64834)">
<stop stop-color="#3793FE" stop-opacity="0.6"/>
<stop offset="1" stop-color="#3793FE" stop-opacity="0"/>
</radialGradient>
<linearGradient id="paint1_linear_430_9111" x1="22.5363" y1="21.2866" x2="9.47875" y2="8.2291" gradientUnits="userSpaceOnUse">
<stop stop-color="#3894FE"/>
<stop offset="0.54" stop-color="#3693FE"/>
<stop offset="1" stop-color="#8AC0FF"/>
</linearGradient>
<clipPath id="clip0_430_9111">
<rect width="32" height="32" fill="white"/>
</clipPath>
</defs>
</svg>
