<?xml version="1.0" encoding="UTF-8" standalone="no"?>
<!-- Created with Inkscape (http://www.inkscape.org/) -->

<svg
   width="200mm"
   height="215mm"
   viewBox="0 0 200 215"
   version="1.1"
   id="svg1"
   xml:space="preserve"
   inkscape:version="1.3.2 (091e20ef0f, 2023-11-25)"
   sodipodi:docname="Visual.svg"
   xmlns:inkscape="http://www.inkscape.org/namespaces/inkscape"
   xmlns:sodipodi="http://sodipodi.sourceforge.net/DTD/sodipodi-0.dtd"
   xmlns="http://www.w3.org/2000/svg"
   xmlns:svg="http://www.w3.org/2000/svg"><sodipodi:namedview
     id="namedview1"
     pagecolor="#ffffff"
     bordercolor="#000000"
     borderopacity="0.25"
     inkscape:showpageshadow="2"
     inkscape:pageopacity="0.0"
     inkscape:pagecheckerboard="0"
     inkscape:deskcolor="#d1d1d1"
     inkscape:document-units="mm"
     inkscape:zoom="0.72571429"
     inkscape:cx="516.73228"
     inkscape:cy="75.098425"
     inkscape:window-width="1366"
     inkscape:window-height="731"
     inkscape:window-x="0"
     inkscape:window-y="0"
     inkscape:window-maximized="1"
     inkscape:current-layer="layer1" /><defs
     id="defs1" /><g
     inkscape:label="Layer 1"
     inkscape:groupmode="layer"
     id="layer1"><path
       style="fill:#d6180a;fill-opacity:1;stroke-width:1.58729"
       d="m 27.349352,214.64277 c -1.307185,-0.52751 -2.249782,-2.08154 -2.249782,-3.70912 0,-0.78036 1.332379,-6.92763 2.960841,-13.66061 3.915036,-16.18691 4.11417,-17.17692 4.614827,-22.94281 0.298575,-3.43858 0.292198,-6.39732 -0.02093,-9.7179 -0.863826,-9.16009 -2.355919,-14.44123 -6.939875,-24.56312 -6.291493,-13.89232 -9.904406,-28.68833 -10.021197,-41.039953 -0.04239,-4.48449 -0.02663,-4.56179 1.135339,-5.56461 l 1.178341,-1.01695 H 50.50782 83.008725 l 1.178338,1.01357 c 1.571187,1.35148 1.685365,4.33558 0.221893,5.79929 l -0.956446,0.956613 -29.687469,0.20999 -29.687469,0.20998 0.114269,2.09986 c 0.527099,9.68647 4.199828,23.21898 9.289385,34.22762 3.969913,8.58687 5.642479,13.87392 6.940127,21.93806 0.774007,4.81 0.883496,15.39581 0.209642,20.26901 -0.652072,4.71568 -7.459148,32.97256 -8.224658,34.14137 -1.018888,1.55573 -3.14217,2.12242 -5.05697,1.34971 z m 80.634408,0 c -1.34453,-0.54258 -2.24979,-2.09576 -2.24979,-3.85999 0,-2.25828 4.10696,-25.56469 4.71005,-26.72894 0.9828,-1.89721 1.43585,-1.95192 17.99184,-2.17234 l 15.77238,-0.20998 3.16434,-1.56473 c 3.86901,-1.9132 6.61201,-4.70818 8.47023,-8.63076 l 1.33759,-2.8236 0.2186,-13.64906 c 0.12017,-7.50699 0.37233,-13.96845 0.56023,-14.35882 0.88692,-1.84262 1.88692,-2.02004 11.38555,-2.02004 4.97427,0 9.04416,-0.15302 9.04416,-0.34002 0,-0.48574 -10.82986,-35.79549 -11.32754,-36.9324 l -0.41365,-0.94493 h -24.55388 -24.55388 l -1.17833,-1.013563 c -0.97845,-0.84164 -1.17833,-1.34651 -1.17833,-2.97617 0,-1.62965 0.19988,-2.13454 1.17833,-2.97616 l 1.17833,-1.01357 h 27.04129 27.04128 l 1.07387,0.94495 c 0.89949,0.79148 2.28138,4.88969 8.51001,25.237713 l 7.43613,24.2928 -0.8227,1.53542 c -1.23342,2.30195 -2.40365,2.53441 -12.8957,2.56163 l -9.13437,0.0236 v 10.2221 c 0,11.49153 -0.45673,14.41242 -3.01913,19.30771 -1.80007,3.43892 -7.26913,8.90799 -10.70807,10.70805 -5.1202,2.68013 -7.5674,3.01914 -21.79414,3.01914 h -12.70857 l -0.22942,1.15491 c -0.12619,0.63521 -1.00305,5.59611 -1.94855,11.02424 -0.94551,5.42812 -2.00108,10.30298 -2.34572,10.83299 -1.01103,1.55488 -3.13683,2.12275 -5.05244,1.3497 z M 97.462982,99.393597 c -0.97846,-0.84164 -1.17834,-1.34651 -1.17834,-2.97617 0,-2.51033 1.47938,-3.98973 3.989718,-3.98973 2.51033,0 3.98972,1.4794 3.98972,3.98973 0,2.51034 -1.47939,3.989733 -3.98972,3.989733 -1.120828,0 -2.002658,-0.31792 -2.811378,-1.013563 z M 91.673794,81.040377 C 85.342727,80.118397 76.418713,77.156047 71.32659,74.286067 63.150867,69.678127 55.376298,62.888689 49.930246,55.600893 46.456642,50.952606 42.989561,45.145348 42.036562,42.379255 41.447469,40.669392 41.467057,40.576679 43.166621,37.03051 50.591192,21.539005 65.13804,8.5320707 80.955696,3.2417707 88.837415,0.60567668 98.734322,-0.48063433 106.56158,0.43120068 121.38482,2.1580317 133.8278,8.2817227 144.58128,19.142227 c 5.0992,5.149967 9.08256,10.640948 12.18686,16.799386 2.73844,5.432617 2.74342,5.349061 -0.67559,11.342095 -10.73733,18.821039 -27.95247,31.041489 -47.57298,33.770439 -3.78253,0.52612 -13.191318,0.51842 -16.845776,-0.0143 z m 17.473966,-8.54584 c 15.95783,-2.78281 30.85657,-13.662314 39.28905,-28.690053 0.98132,-1.748878 1.39897,-2.9506 1.24059,-3.569756 -0.38165,-1.491911 -5.15938,-8.617977 -8.19172,-12.218065 C 128.7559,12.903424 108.60203,5.6514217 89.985071,9.4850807 78.232855,11.905129 66.926237,18.681182 59.063015,28.016663 c -3.032336,3.600088 -7.810065,10.726154 -8.191707,12.218065 -0.457905,1.790053 4.702083,9.772265 9.939567,15.375975 8.117643,8.685263 19.165424,14.850084 30.18991,16.846404 4.309767,0.78043 13.774425,0.79995 18.146975,0.0374 z M 97.964512,64.890419 c -0.46197,-0.104003 -1.87937,-0.393598 -3.14977,-0.643595 -8.517418,-1.676053 -16.18313,-9.281021 -18.267927,-18.12314 -0.795346,-3.373273 -0.787543,-7.784372 0.01982,-11.209795 2.121856,-9.002308 9.723872,-16.367151 18.878037,-18.289106 3.70677,-0.778235 5.952568,-0.778235 9.659328,0 9.15417,1.921955 16.75618,9.286798 18.87804,18.289106 0.80766,3.426629 0.81512,7.836776 0.0189,11.213524 -2.03526,8.632106 -9.38036,16.077217 -17.84708,18.09003 -2.2876,0.543834 -7.031348,0.933658 -8.189438,0.672976 z m 9.316928,-10.06652 c 3.41587,-1.666704 5.97206,-4.225783 7.53456,-7.543064 0.96721,-2.053455 1.31003,-3.800746 0.68231,-3.477621 -3.19399,1.644117 -3.83228,1.797433 -7.4545,1.790513 -4.24019,-0.0079 -6.01175,-0.676281 -9.035398,-3.407962 -3.95042,-3.568962 -5.167094,-10.016287 -2.83128,-15.003415 l 1.15202,-2.459682 -1.15222,0.274839 c -4.160864,0.992502 -8.536667,4.718415 -10.525936,8.962658 -0.985617,2.10286 -1.125546,2.923537 -1.125546,6.601117 0,3.669993 0.140935,4.500337 1.117292,6.583125 1.484245,3.166171 3.99228,5.810488 7.063726,7.447541 4.883654,2.602968 9.563032,2.677428 14.574972,0.231951 z m 4.16414,-18.840286 c 1.20299,-1.202993 1.4279,-1.727132 1.4279,-3.327551 0,-3.267535 -2.87816,-5.537442 -6.02103,-4.748637 -1.45511,0.365204 -3.16103,2.262065 -3.458,3.84504 -0.346,1.844353 0.0981,3.089964 1.60293,4.495686 0.9783,0.913851 1.65019,1.163358 3.13285,1.163358 1.58656,0 2.11509,-0.227634 3.31535,-1.427896 z M 13.245951,74.994957 c -1.462971,-0.82044 -2.005421,-1.85492 -2.005421,-3.82438 0,-1.47153 0.440567,-2.01723 6.783729,-8.402681 3.731051,-3.755912 7.318134,-7.050305 7.971294,-7.320842 2.617576,-1.084232 5.40358,0.908089 5.40358,3.864213 0,1.740291 -0.154284,1.934353 -7.034512,8.84785 -7.613443,7.65025 -8.592828,8.2524 -11.11867,6.83584 z m 170.392619,0.22682 c -0.46197,-0.19461 -3.91098,-3.45561 -7.66448,-7.24666 -6.65589,-6.722496 -6.82453,-6.93667 -6.82453,-8.667993 0,-2.951917 2.78795,-4.943508 5.40359,-3.86007 0.65316,0.270537 4.24024,3.56493 7.9713,7.320842 6.34316,6.385451 6.78372,6.931151 6.78372,8.402681 0,2.01175 -0.55724,3.03062 -2.09145,3.82399 -1.35451,0.70046 -2.31068,0.76117 -3.57815,0.22721 z M 1.9688659,43.743374 C -0.06279421,41.711719 0.48745059,38.446201 3.0677656,37.221763 5.070378,36.271452 27.474496,36.257896 29.307685,37.205886 c 2.476757,1.28077 2.90204,4.499305 0.86384,6.537499 l -1.227606,1.227611 H 16.070195 3.1964732 Z m 168.4083041,0 c -1.31059,-1.310596 -1.65151,-3.495137 -0.79518,-5.095223 1.02442,-1.91413 2.16682,-2.07659 14.603,-2.07659 7.49252,0 12.19885,0.167856 13.05271,0.465505 2.68145,0.934756 3.42055,4.627908 1.34214,6.706308 l -1.22762,1.22761 H 184.47851 171.60478 Z M 18.498337,19.234449 c -6.996561,-6.99656 -7.257807,-7.318748 -7.257807,-8.950802 0,-2.4050803 1.650066,-3.9499903 4.218866,-3.9499903 1.851613,0 1.906318,0.04349 8.901401,7.0703203 6.88699,6.91829 7.038336,7.108622 7.038336,8.851691 0,2.421476 -1.734791,4.236592 -4.049103,4.236592 -1.503735,0 -2.004395,-0.410506 -8.851693,-7.257811 z m 151.878833,6.030199 c -0.97567,-0.975676 -1.22761,-1.59772 -1.22761,-3.031092 0,-1.773052 0.11905,-1.922448 7.04821,-8.85169 l 7.04821,-7.0482093 h 1.94383 c 1.65502,0 2.10538,0.191982 3.03111,1.292135 0.73409,0.872423 1.08725,1.788893 1.08725,2.8214893 0,1.420198 -0.5181,2.047464 -7.2578,8.787168 -6.84731,6.847305 -7.34797,7.257811 -8.85171,7.257811 -1.20169,0 -1.89593,-0.302062 -2.82149,-1.227612 z"
       id="path1" /></g></svg>
