<?xml version="1.0" encoding="UTF-8" standalone="no"?>
<!-- Created with Inkscape (http://www.inkscape.org/) -->

<svg
   width="149.396mm"
   height="131.942mm"
   viewBox="0 0 149.396 131.942"
   version="1.1"
   id="svg1"
   xml:space="preserve"
   inkscape:version="1.3.2 (091e20ef0f, 2023-11-25)"
   sodipodi:docname="webDev.svg"
   xmlns:inkscape="http://www.inkscape.org/namespaces/inkscape"
   xmlns:sodipodi="http://sodipodi.sourceforge.net/DTD/sodipodi-0.dtd"
   xmlns="http://www.w3.org/2000/svg"
   xmlns:svg="http://www.w3.org/2000/svg"><sodipodi:namedview
     id="namedview1"
     pagecolor="#ffffff"
     bordercolor="#000000"
     borderopacity="0.25"
     inkscape:showpageshadow="2"
     inkscape:pageopacity="0.0"
     inkscape:pagecheckerboard="0"
     inkscape:deskcolor="#d1d1d1"
     inkscape:document-units="mm"
     inkscape:zoom="0.90154321"
     inkscape:cx="367.14824"
     inkscape:cy="295.04964"
     inkscape:window-width="1366"
     inkscape:window-height="704"
     inkscape:window-x="0"
     inkscape:window-y="0"
     inkscape:window-maximized="1"
     inkscape:current-layer="layer1" /><defs
     id="defs1" /><g
     inkscape:label="Layer 1"
     inkscape:groupmode="layer"
     id="layer1"><path
       style="fill:#d6180a;fill-opacity:1"
       d="m 12.529437,131.09367 c -4.8678714,-1.2753 -8.6944194,-4.37583 -10.8015754,-8.75215 -0.664254,-1.37958 -1.33659996,-3.32434 -1.51402696,-4.37931 -0.224794,-1.33662 -0.294348,-17.13316 -0.235246,-53.427591 l 0.08391,-51.529881 0.752816,-1.93261 C 2.5354536,6.656221 5.3080837,3.467311 9.0122976,1.644431 13.152627,-0.39306905 8.8972996,-0.26902905 74.656756,-0.26902905 c 65.759444,0 61.504114,-0.12404 65.644444,1.91346005 3.70421,1.82288 6.47684,5.01179 8.19698,9.427697 l 0.75282,1.93261 0.0839,51.529881 c 0.0591,36.294431 -0.0104,52.090971 -0.23525,53.427591 -0.17742,1.05497 -0.84977,2.99973 -1.51402,4.37931 -2.13176,4.42742 -5.95396,7.49653 -10.9167,8.76579 -2.21073,0.56541 -3.43116,0.57642 -62.131874,0.56066 -57.993064,-0.0156 -59.943903,-0.0336 -62.00763,-0.5743 z m 123.244213,-4.81068 c 3.94537,-1.02764 7.19607,-4.28243 8.22592,-8.23627 0.37369,-1.4347 0.43419,-7.04826 0.43419,-40.289531 V 39.134629 H 74.656756 4.8797407 v 38.62256 c 0,42.075011 -0.06137,40.455861 1.6372219,43.197421 1.627011,2.62602 4.1578304,4.57629 6.8946484,5.31306 2.38618,0.64238 119.898109,0.65709 122.362039,0.0153 z M 67.761466,105.44234 c -0.50063,-0.30938 -0.99109,-0.88468 -1.089923,-1.27846 -0.109109,-0.43472 1.821473,-10.222131 4.914893,-24.916861 4.75546,-22.58995 5.1449,-24.24463 5.85046,-24.8578 0.41573,-0.36129 1.0871,-0.65689 1.49193,-0.65689 0.89873,0 2.44287,1.4661 2.44287,2.31942 0,0.57065 -9.34189,45.322561 -9.94297,47.631341 -0.50491,1.9394 -2.12113,2.71473 -3.66726,1.75925 z m -9.92752,-10.043921 c -1.571609,-0.89979 -16.763212,-14.12878 -17.066947,-14.86206 -0.184257,-0.44484 -0.251849,-1.14015 -0.150203,-1.54514 0.122766,-0.48913 2.510724,-2.72503 7.112957,-6.66001 9.896404,-8.46157 10.1684,-8.67245 11.186112,-8.67245 1.765471,0 3.009806,2.44709 1.936773,3.80882 -0.195612,0.24824 -3.415765,3.05628 -7.155897,6.24009 -3.740132,3.1838 -6.761856,5.89431 -6.714942,6.02334 0.04691,0.12904 2.975642,2.68045 6.508285,5.66981 3.532644,2.98935 6.718592,5.76522 7.079885,6.16859 1.228226,1.37128 0.739461,3.27044 -1.013162,3.93679 -0.876619,0.33329 -0.961762,0.32796 -1.722861,-0.10778 z m 31.57315,-0.0815 c -0.47806,-0.24928 -0.96872,-0.60976 -1.09036,-0.80108 -0.44719,-0.70336 -0.22822,-2.21509 0.4268,-2.94639 0.36129,-0.40337 3.54724,-3.17924 7.07988,-6.16859 3.53265,-2.98936 6.461384,-5.54077 6.508294,-5.66981 0.0469,-0.12903 -2.974814,-2.83954 -6.714944,-6.02334 -3.74013,-3.18381 -6.96029,-5.99185 -7.1559,-6.24009 -1.07303,-1.36173 0.1713,-3.80882 1.93677,-3.80882 1.01771,0 1.28971,0.21088 11.186114,8.67245 4.60223,3.93498 6.99019,6.17088 7.11295,6.66001 0.10165,0.40499 0.0341,1.1003 -0.1502,1.54514 -0.30374,0.73328 -15.495334,13.96227 -17.066944,14.86206 -0.81367,0.46584 -1.03975,0.45695 -2.07246,-0.0815 z m 55.026664,-70.57264 c 0,-10.85067 -0.13709,-11.926451 -1.86371,-14.625591 -1.65258,-2.583397 -4.38386,-4.463097 -7.4202,-5.106677 -2.20023,-0.46635 -118.785972,-0.46635 -120.986198,0 -3.036345,0.64358 -5.7676244,2.52328 -7.4202054,5.106677 -1.7266219,2.69914 -1.8637059,3.774921 -1.8637059,14.625591 v 9.71912 H 74.656756 144.43376 Z m -128.021835,2.45214 c -3.725935,-0.97007 -5.96589,-3.83185 -5.978645,-7.63834 -0.01784,-5.32355 4.774968,-8.765831 10.16367,-7.299741 1.97067,0.53616 4.244879,2.914461 4.87402,5.097101 1.384828,4.8043 -1.736967,9.41025 -6.723413,9.91984 -0.802874,0.082 -1.853908,0.0466 -2.335632,-0.0789 z m 3.023176,-5.11917 c 0.87777,-0.45391 1.502111,-1.55155 1.502111,-2.64082 0,-0.88858 -1.243525,-2.3727 -2.186336,-2.60933 -1.189304,-0.2985 -2.734457,0.53012 -3.238628,1.73677 -0.402747,0.96391 -0.395551,1.14705 0.08349,2.12487 0.815557,1.66471 2.280634,2.19456 3.839358,1.38851 z m 20.007719,4.92249 c -1.602114,-0.5887 -3.494921,-2.24879 -4.24872,-3.72636 -0.869703,-1.70476 -1.044192,-4.50647 -0.387718,-6.22542 1.987933,-5.205341 8.659237,-6.751361 12.65124,-2.93184 3.812508,3.64779 2.838234,10.08287 -1.88565,12.45472 -1.749293,0.87831 -4.401099,1.06388 -6.129152,0.4289 z m 4.581217,-5.35986 c 1.118573,-1.11857 1.155079,-2.53868 0.09757,-3.79546 -0.626945,-0.74508 -0.968663,-0.89826 -2.003866,-0.89826 -2.609536,0 -3.782075,2.84567 -1.934018,4.69372 1.177835,1.17784 2.662483,1.17784 3.840318,0 z m 18.954553,5.21033 c -5.013528,-2.26472 -6.214999,-8.68008 -2.349535,-12.54554 4.870195,-4.870201 13.128591,-1.467551 13.142571,5.41505 0.0112,5.52159 -5.8226,9.37575 -10.793036,7.13049 z m 5.069386,-5.12662 c 1.1507,-1.15071 1.09175,-2.99476 -0.12857,-4.02159 -1.256781,-1.05752 -2.676885,-1.02101 -3.795458,0.0976 -1.118574,1.11858 -1.155079,2.53868 -0.09757,3.79546 1.026831,1.22032 2.870888,1.27928 4.021588,0.12857 z"
       id="path1" /></g></svg>
